# This file uses centimeters as units for non-parametric coordinates.

mtllib soutien-piedestal.mtl
g default
v -0.474706 0.030748 0.338124
v -0.352123 0.030748 0.470687
v -0.352123 0.030748 0.338124
v -0.422205 0.069432 0.396326
v -0.416459 0.076155 0.402072
v -0.422756 0.070504 0.395775
v -0.423207 0.071664 0.395324
v -0.421564 0.068467 0.396967
v -0.423552 0.072896 0.394979
v -0.420842 0.067622 0.397688
v -0.423785 0.074179 0.394746
v -0.420052 0.066912 0.398479
v -0.423902 0.075493 0.394629
v -0.419204 0.066348 0.399327
v -0.423902 0.076818 0.394629
v -0.418313 0.065939 0.400218
v -0.423785 0.078132 0.394746
v -0.417393 0.065691 0.401138
v -0.423552 0.079415 0.394979
v -0.416459 0.065608 0.402072
v -0.423207 0.080646 0.395324
v -0.415524 0.065691 0.403007
v -0.352123 -0.017283 0.338124
v -0.352123 -0.017283 -0.201166
v 0.339331 -0.017283 -0.022285
v 0.339331 -0.017283 0.159243
v -0.422756 0.081807 0.395775
v -0.414604 0.065939 0.403927
v -0.422205 0.082879 0.396326
v -0.413713 0.066348 0.404818
v -0.421564 0.083844 0.396967
v -0.412866 0.066912 0.405665
v -0.420842 0.084689 0.397688
v -0.412075 0.067622 0.406456
v -0.420052 0.085398 0.398479
v -0.411353 0.068467 0.407178
v -0.419204 0.085962 0.399327
v -0.410712 0.069432 0.407819
v -0.418313 0.086372 0.400218
v -0.410161 0.070504 0.408370
v -0.417393 0.086620 0.401138
v -0.409710 0.071664 0.408821
v -0.416459 0.086703 0.402072
v -0.409365 0.072896 0.409166
v -0.415524 0.086620 0.403007
v -0.409132 0.074179 0.409399
v -0.414604 0.086372 0.403927
v -0.409015 0.075493 0.409516
v -0.413713 0.085962 0.404818
v -0.409015 0.076818 0.409516
v -0.412866 0.085398 0.405665
v -0.409132 0.078132 0.409399
v -0.412075 0.084689 0.406456
v -0.409365 0.079415 0.409166
v -0.411353 0.083844 0.407178
v -0.409710 0.080646 0.408821
v -0.410712 0.082879 0.407819
v -0.410161 0.081807 0.408370
v -0.435600 0.070504 0.408620
v -0.435075 0.069432 0.409195
v -0.436031 0.071664 0.408148
v -0.434463 0.068467 0.409865
v -0.436361 0.072896 0.407788
v -0.433774 0.067622 0.410620
v -0.436583 0.074179 0.407544
v -0.433019 0.066912 0.411446
v -0.436695 0.075493 0.407422
v -0.432209 0.066348 0.412332
v -0.436695 0.076818 0.407422
v -0.431359 0.065939 0.413263
v -0.436583 0.078132 0.407544
v -0.430480 0.065691 0.414225
v -0.436361 0.079415 0.407788
v -0.429588 0.065608 0.415202
v -0.436031 0.080646 0.408148
v -0.428695 0.065691 0.416179
v -0.435600 0.081807 0.408620
v -0.427817 0.065939 0.417140
v -0.435075 0.082879 0.409195
v -0.426966 0.066348 0.418071
v -0.434463 0.083844 0.409865
v -0.426157 0.066912 0.418957
v -0.433774 0.084689 0.410620
v -0.425402 0.067622 0.419784
v -0.433019 0.085398 0.411446
v -0.424713 0.068467 0.420538
v -0.432209 0.085962 0.412332
v -0.424101 0.069432 0.421208
v -0.431359 0.086372 0.413263
v -0.423575 0.070504 0.421783
v -0.430480 0.086620 0.414225
v -0.423144 0.071664 0.422255
v -0.474706 0.126898 0.338124
v -0.352123 0.126898 0.470687
v -0.429588 0.086703 0.415202
v -0.422815 0.072896 0.422615
v -0.428695 0.086620 0.416179
v -0.422593 0.074179 0.422859
v -0.427817 0.086372 0.417140
v -0.422481 0.075493 0.422982
v -0.426966 0.085962 0.418071
v -0.422481 0.076818 0.422982
v -0.426157 0.085398 0.418957
v -0.422593 0.078132 0.422859
v -0.425402 0.084689 0.419784
v -0.422815 0.079415 0.422615
v -0.424713 0.083844 0.420538
v -0.423144 0.080646 0.422255
v -0.424101 0.082879 0.421208
v -0.423575 0.081807 0.421783
v 0.328113 0.030748 0.163029
v 0.326494 0.030748 -0.026618
v -0.352123 0.030748 -0.201166
v -0.352123 -0.017283 0.500000
v -0.500000 0.126898 0.338124
v -0.352123 0.126898 0.500000
v -0.352123 0.030748 0.500000
v 0.339331 0.030748 0.159243
v 0.339331 0.030748 -0.022285
v 0.326494 0.120768 -0.026618
v 0.339331 0.120768 -0.022285
v 0.339331 0.068467 0.059883
v 0.339331 0.069432 0.058976
v 0.327225 0.069432 0.058976
v 0.327233 0.068467 0.059883
v 0.339331 0.067622 0.060903
v 0.327241 0.067622 0.060903
v 0.339331 0.070504 0.058197
v 0.327218 0.070504 0.058197
v 0.339331 0.066912 0.062022
v 0.327251 0.066912 0.062022
v 0.339331 0.071664 0.057559
v 0.327213 0.071664 0.057559
v 0.339331 0.066348 0.063220
v 0.327261 0.066348 0.063220
v 0.339331 0.072896 0.057072
v 0.327209 0.072896 0.057072
v 0.339331 0.065939 0.064480
v 0.327272 0.065939 0.064480
v 0.339331 0.074179 0.056742
v 0.327206 0.074179 0.056742
v 0.339331 0.065691 0.065781
v 0.327283 0.065691 0.065781
v 0.339331 0.075493 0.056576
v 0.327204 0.075493 0.056576
v 0.339331 0.065608 0.067103
v 0.327294 0.065608 0.067103
v 0.339331 0.076818 0.056576
v 0.327204 0.076818 0.056576
v 0.339331 0.065691 0.068425
v 0.327306 0.065691 0.068425
v 0.339331 0.078132 0.056742
v 0.327206 0.078132 0.056742
v 0.339331 0.065939 0.069726
v 0.327317 0.065939 0.069726
v 0.339331 0.079415 0.057072
v 0.327209 0.079415 0.057072
v 0.339331 0.066348 0.070986
v 0.327327 0.066348 0.070986
v 0.339331 0.080646 0.057559
v 0.327213 0.080646 0.057559
v 0.339331 0.066912 0.072184
v 0.327338 0.066912 0.072184
v 0.339331 0.081807 0.058197
v 0.327218 0.081807 0.058197
v 0.339331 0.067622 0.073303
v 0.327347 0.067622 0.073303
v 0.339331 0.082879 0.058976
v 0.327225 0.082879 0.058976
v 0.339331 0.068467 0.074323
v 0.327356 0.068467 0.074323
v 0.339331 0.083844 0.059883
v 0.327233 0.083844 0.059883
v 0.339331 0.069432 0.075230
v 0.327364 0.069432 0.075230
v 0.339331 0.084689 0.060903
v 0.327241 0.084689 0.060903
v 0.339331 0.070504 0.076009
v 0.327370 0.070504 0.076009
v 0.339331 0.085398 0.062022
v 0.327251 0.085398 0.062022
v 0.339331 0.071664 0.076647
v 0.327376 0.071664 0.076647
v 0.339331 0.085962 0.063220
v 0.327261 0.085962 0.063220
v 0.339331 0.072896 0.077135
v 0.327380 0.072896 0.077135
v 0.339331 0.086372 0.064480
v 0.327272 0.086372 0.064480
v 0.339331 0.074179 0.077464
v 0.327383 0.074179 0.077464
v 0.339331 0.086620 0.065781
v 0.327283 0.086620 0.065781
v 0.339331 0.075493 0.077630
v 0.327384 0.075493 0.077630
v 0.339331 0.086703 0.067103
v 0.327294 0.086703 0.067103
v 0.339331 0.076818 0.077630
v 0.327384 0.076818 0.077630
v 0.339331 0.086620 0.068425
v 0.327306 0.086620 0.068425
v 0.339331 0.078132 0.077464
v 0.327383 0.078132 0.077464
v 0.339331 0.086372 0.069726
v 0.327317 0.086372 0.069726
v 0.339331 0.079415 0.077135
v 0.327380 0.079415 0.077135
v 0.339331 0.085962 0.070986
v 0.327327 0.085962 0.070986
v 0.339331 0.080646 0.076647
v 0.327376 0.080646 0.076647
v 0.339331 0.085398 0.072184
v 0.327338 0.085398 0.072184
v 0.339331 0.081807 0.076009
v 0.327370 0.081807 0.076009
v 0.339331 0.084689 0.073303
v 0.327347 0.084689 0.073303
v 0.339331 0.082879 0.075230
v 0.327364 0.082879 0.075230
v 0.339331 0.083844 0.074323
v 0.327356 0.083844 0.074323
v 0.328113 0.120768 0.163029
v 0.339331 0.120768 0.159243
v -0.500000 0.030748 0.338124
v -0.500000 -0.017283 0.338124
v -0.352123 -0.017283 -0.350545
v -0.352123 0.030748 -0.350545
v -0.419690 0.086703 -0.266306
v -0.418761 0.086620 -0.267246
v -0.352123 0.122266 -0.334614
v -0.417845 0.086372 -0.268171
v -0.416960 0.085962 -0.269066
v -0.416117 0.085398 -0.269918
v -0.415330 0.084689 -0.270714
v -0.414612 0.083844 -0.271439
v -0.413975 0.082879 -0.272084
v -0.413427 0.081807 -0.272637
v -0.412979 0.080646 -0.273091
v -0.412636 0.079415 -0.273438
v -0.412404 0.078132 -0.273672
v -0.412287 0.076818 -0.273790
v -0.352123 0.030748 -0.334614
v -0.484123 0.030748 -0.201166
v -0.412287 0.075493 -0.273790
v -0.412404 0.074179 -0.273672
v -0.412636 0.072896 -0.273438
v -0.412979 0.071664 -0.273091
v -0.413427 0.070504 -0.272637
v -0.413975 0.069432 -0.272084
v -0.414612 0.068467 -0.271439
v -0.415330 0.067622 -0.270714
v -0.416117 0.066912 -0.269918
v -0.416960 0.066348 -0.269066
v -0.417845 0.065939 -0.268171
v -0.418761 0.065691 -0.267246
v -0.419690 0.065608 -0.266306
v -0.500000 -0.017283 -0.201166
v -0.500000 0.030748 -0.201166
v -0.500000 0.122266 -0.201166
v -0.484123 0.122266 -0.201166
v -0.352123 0.122266 -0.350545
v -0.420620 0.086620 -0.265366
v -0.428573 0.086620 -0.273319
v -0.427643 0.086703 -0.274258
v -0.426713 0.086620 -0.275198
v -0.421535 0.086372 -0.264441
v -0.429488 0.086372 -0.272394
v -0.425797 0.086372 -0.276122
v -0.422421 0.085962 -0.263545
v -0.430374 0.085962 -0.271499
v -0.424911 0.085962 -0.277018
v -0.423264 0.085398 -0.262693
v -0.431218 0.085398 -0.270647
v -0.424068 0.085398 -0.277869
v -0.424050 0.084689 -0.261898
v -0.432004 0.084689 -0.269852
v -0.423281 0.084689 -0.278664
v -0.424768 0.083844 -0.261172
v -0.432722 0.083844 -0.269127
v -0.422563 0.083844 -0.279390
v -0.425406 0.082879 -0.260528
v -0.433360 0.082879 -0.268482
v -0.421925 0.082879 -0.280034
v -0.425953 0.081807 -0.259974
v -0.433908 0.081807 -0.267929
v -0.421377 0.081807 -0.280587
v -0.426402 0.080646 -0.259520
v -0.434357 0.080646 -0.267476
v -0.420928 0.080646 -0.281041
v -0.426745 0.079415 -0.259174
v -0.434700 0.079415 -0.267129
v -0.420585 0.079415 -0.281387
v -0.426976 0.078132 -0.258940
v -0.434932 0.078132 -0.266895
v -0.420353 0.078132 -0.281621
v -0.427093 0.076818 -0.258822
v -0.435049 0.076818 -0.266777
v -0.420237 0.076818 -0.281739
v -0.427093 0.075493 -0.258822
v -0.435049 0.075493 -0.266777
v -0.420237 0.075493 -0.281739
v -0.426976 0.074179 -0.258940
v -0.434932 0.074179 -0.266895
v -0.420353 0.074179 -0.281621
v -0.426745 0.072896 -0.259174
v -0.434700 0.072896 -0.267129
v -0.420585 0.072896 -0.281387
v -0.426402 0.071664 -0.259520
v -0.434357 0.071664 -0.267476
v -0.420928 0.071664 -0.281041
v -0.425953 0.070504 -0.259974
v -0.433908 0.070504 -0.267929
v -0.421377 0.070504 -0.280587
v -0.425406 0.069432 -0.260528
v -0.433360 0.069432 -0.268482
v -0.421925 0.069432 -0.280034
v -0.424768 0.068467 -0.261172
v -0.432722 0.068467 -0.269127
v -0.422563 0.068467 -0.279390
v -0.424050 0.067622 -0.261898
v -0.432004 0.067622 -0.269852
v -0.423281 0.067622 -0.278664
v -0.423264 0.066912 -0.262693
v -0.431218 0.066912 -0.270647
v -0.424068 0.066912 -0.277869
v -0.422421 0.066348 -0.263545
v -0.430374 0.066348 -0.271499
v -0.424911 0.066348 -0.277018
v -0.421535 0.065939 -0.264441
v -0.429488 0.065939 -0.272394
v -0.425797 0.065939 -0.276122
v -0.420620 0.065691 -0.265366
v -0.428573 0.065691 -0.273319
v -0.426713 0.065691 -0.275198
v -0.427643 0.065608 -0.274258
vt 0.365612 0.274278
vt 0.420090 0.257587
vt 0.420090 0.291897
vt 0.400402 0.035857
vt 0.500000 0.156250
vt 0.416277 0.024324
vt 0.433472 0.014871
vt 0.386099 0.049289
vt 0.451716 0.007647
vt 0.373591 0.064409
vt 0.470722 0.002768
vt 0.363077 0.080976
vt 0.490189 0.000308
vt 0.354722 0.098731
vt 0.509811 0.000308
vt 0.348659 0.117392
vt 0.529278 0.002767
vt 0.344982 0.136667
vt 0.548284 0.007647
vt 0.343750 0.156250
vt 0.566528 0.014871
vt 0.344982 0.175833
vt 0.420090 0.958103
vt 0.417371 0.824326
vt 0.585518 0.821427
vt 0.586369 0.958421
vt 0.583723 0.024324
vt 0.348659 0.195108
vt 0.599598 0.035857
vt 0.354722 0.213770
vt 0.613901 0.049289
vt 0.363077 0.231524
vt 0.626409 0.064408
vt 0.373591 0.248092
vt 0.636923 0.080976
vt 0.386099 0.263211
vt 0.645278 0.098730
vt 0.400402 0.276643
vt 0.651341 0.117392
vt 0.416277 0.288176
vt 0.655018 0.136667
vt 0.433472 0.297629
vt 0.656250 0.156250
vt 0.451716 0.304853
vt 0.655018 0.175833
vt 0.470722 0.309732
vt 0.651341 0.195108
vt 0.490189 0.312192
vt 0.645278 0.213769
vt 0.509811 0.312192
vt 0.636923 0.231524
vt 0.529278 0.309732
vt 0.626409 0.248091
vt 0.548284 0.304853
vt 0.613901 0.263210
vt 0.566528 0.297629
vt 0.599598 0.276643
vt 0.583723 0.288176
vt 0.455000 0.635412
vt 0.460000 0.636037
vt 0.460000 0.312500
vt 0.455000 0.312500
vt 0.450000 0.634899
vt 0.450000 0.312500
vt 0.465000 0.636766
vt 0.465000 0.312500
vt 0.445000 0.634507
vt 0.445000 0.312500
vt 0.470000 0.637586
vt 0.470000 0.312500
vt 0.440000 0.634242
vt 0.440000 0.312500
vt 0.475000 0.638484
vt 0.475000 0.312500
vt 0.435000 0.634109
vt 0.435000 0.312500
vt 0.480000 0.639447
vt 0.480000 0.312500
vt 0.430000 0.634109
vt 0.430000 0.312500
vt 0.485000 0.640459
vt 0.485000 0.312500
vt 0.425000 0.634242
vt 0.425000 0.312500
vt 0.490000 0.641504
vt 0.490000 0.312500
vt 0.420000 0.634507
vt 0.420000 0.312500
vt 0.495000 0.642566
vt 0.495000 0.312500
vt 0.415000 0.634899
vt 0.415000 0.312500
vt 0.500000 0.643628
vt 0.500000 0.312500
vt 0.410000 0.635412
vt 0.410000 0.312500
vt 0.505000 0.644674
vt 0.505000 0.312500
vt 0.405000 0.636037
vt 0.405000 0.312500
vt 0.510000 0.645686
vt 0.510000 0.312500
vt 0.400000 0.636765
vt 0.400000 0.312500
vt 0.515000 0.646649
vt 0.515000 0.312500
vt 0.395000 0.637586
vt 0.395000 0.312500
vt 0.520000 0.647547
vt 0.520000 0.312500
vt 0.390000 0.638484
vt 0.390000 0.312500
vt 0.525000 0.648367
vt 0.525000 0.312500
vt 0.385000 0.639447
vt 0.385000 0.312500
vt 0.530000 0.649096
vt 0.530000 0.312500
vt 0.380000 0.640459
vt 0.380000 0.312500
vt 0.535000 0.649721
vt 0.535000 0.312500
vt 0.375000 0.641504
vt 0.375000 0.312500
vt 0.540000 0.650234
vt 0.540000 0.312500
vt 0.365612 0.274278
vt 0.420090 0.257587
vt 0.620000 0.642566
vt 0.625000 0.641504
vt 0.625000 0.312500
vt 0.620000 0.312500
vt 0.545000 0.650626
vt 0.545000 0.312500
vt 0.615000 0.643628
vt 0.615000 0.312500
vt 0.550000 0.650890
vt 0.550000 0.312500
vt 0.610000 0.644674
vt 0.610000 0.312500
vt 0.555000 0.651024
vt 0.555000 0.312500
vt 0.605000 0.645686
vt 0.605000 0.312500
vt 0.560000 0.651024
vt 0.560000 0.312500
vt 0.600000 0.646648
vt 0.600000 0.312500
vt 0.565000 0.650890
vt 0.565000 0.312500
vt 0.595000 0.647547
vt 0.595000 0.312500
vt 0.570000 0.650626
vt 0.570000 0.312500
vt 0.590000 0.648367
vt 0.590000 0.312500
vt 0.575000 0.650234
vt 0.575000 0.312500
vt 0.585000 0.649096
vt 0.585000 0.312500
vt 0.580000 0.649721
vt 0.580000 0.312500
vt 0.574222 0.297846
vt 0.579101 0.426554
vt 0.417410 0.430149
vt 0.420090 1.000000
vt 0.354371 0.270642
vt 0.420090 0.250000
vt 0.420090 0.250000
vt 0.420090 0.000000
vt 0.588314 0.039338
vt 0.577555 0.297974
vt 0.583114 0.426464
vt 0.579101 0.426554
vt 0.583114 0.426464
vt 0.786316 0.009710
vt 0.780105 0.262007
vt 0.465000 0.368373
vt 0.460000 0.368373
vt 0.460000 0.583579
vt 0.465000 0.583441
vt 0.470000 0.368373
vt 0.470000 0.583287
vt 0.455000 0.368373
vt 0.455000 0.583697
vt 0.475000 0.368373
vt 0.475000 0.583117
vt 0.450000 0.368373
vt 0.450000 0.583794
vt 0.480000 0.368373
vt 0.480000 0.582935
vt 0.445000 0.368373
vt 0.445000 0.583868
vt 0.485000 0.368373
vt 0.485000 0.582744
vt 0.440000 0.368373
vt 0.440000 0.583918
vt 0.490000 0.368373
vt 0.490000 0.582546
vt 0.435000 0.368373
vt 0.435000 0.583943
vt 0.495000 0.368373
vt 0.495000 0.582346
vt 0.430000 0.368373
vt 0.430000 0.583943
vt 0.500000 0.368373
vt 0.500000 0.582145
vt 0.425000 0.368373
vt 0.425000 0.583918
vt 0.505000 0.368373
vt 0.505000 0.581947
vt 0.420000 0.368373
vt 0.420000 0.583868
vt 0.510000 0.368373
vt 0.510000 0.581756
vt 0.415000 0.368373
vt 0.415000 0.583794
vt 0.515000 0.368373
vt 0.515000 0.581574
vt 0.410000 0.368373
vt 0.410000 0.583697
vt 0.520000 0.368373
vt 0.520000 0.581405
vt 0.405000 0.368373
vt 0.405000 0.583579
vt 0.525000 0.368373
vt 0.525000 0.581250
vt 0.400000 0.368373
vt 0.400000 0.583441
vt 0.530000 0.368373
vt 0.530000 0.581112
vt 0.395000 0.368373
vt 0.395000 0.583287
vt 0.535000 0.368373
vt 0.535000 0.580994
vt 0.390000 0.368373
vt 0.390000 0.583117
vt 0.540000 0.368373
vt 0.540000 0.580897
vt 0.385000 0.368373
vt 0.385000 0.582935
vt 0.545000 0.368373
vt 0.545000 0.580823
vt 0.380000 0.368373
vt 0.380000 0.582744
vt 0.550000 0.368373
vt 0.550000 0.580773
vt 0.375000 0.368373
vt 0.375000 0.582546
vt 0.555000 0.368373
vt 0.555000 0.580748
vt 0.625000 0.368373
vt 0.620000 0.368373
vt 0.620000 0.582346
vt 0.625000 0.582546
vt 0.560000 0.368373
vt 0.560000 0.580748
vt 0.615000 0.368373
vt 0.615000 0.582145
vt 0.565000 0.368373
vt 0.565000 0.580773
vt 0.610000 0.368373
vt 0.610000 0.581947
vt 0.570000 0.368373
vt 0.570000 0.580823
vt 0.605000 0.368373
vt 0.605000 0.581756
vt 0.575000 0.368373
vt 0.575000 0.580897
vt 0.600000 0.368373
vt 0.600000 0.581574
vt 0.580000 0.368373
vt 0.580000 0.580994
vt 0.595000 0.368373
vt 0.595000 0.581405
vt 0.585000 0.368373
vt 0.585000 0.581112
vt 0.590000 0.368373
vt 0.590000 0.581250
vt 0.574222 0.297846
vt 0.577555 0.297974
vt 0.354371 0.270642
vt 0.385663 0.260813
vt 0.385267 0.260938
vt 0.384876 0.261061
vt 0.384498 0.261179
vt 0.384139 0.261292
vt 0.383803 0.261398
vt 0.383497 0.261494
vt 0.383225 0.261579
vt 0.382991 0.261653
vt 0.382800 0.261713
vt 0.382653 0.261759
vt 0.382555 0.261790
vt 0.382505 0.261806
vt 0.382505 0.261806
vt 0.382555 0.261790
vt 0.382654 0.261759
vt 0.382800 0.261713
vt 0.382991 0.261653
vt 0.383225 0.261579
vt 0.383497 0.261494
vt 0.383803 0.261398
vt 0.384139 0.261292
vt 0.384498 0.261179
vt 0.384876 0.261061
vt 0.385267 0.260938
vt 0.385663 0.260813
vt 0.386060 0.260689
vt 0.386450 0.260566
vt 0.386828 0.260447
vt 0.387188 0.260335
vt 0.387524 0.260229
vt 0.387830 0.260133
vt 0.388102 0.260047
vt 0.388336 0.259974
vt 0.388527 0.259914
vt 0.388673 0.259868
vt 0.388772 0.259837
vt 0.388822 0.259821
vt 0.388822 0.259821
vt 0.388772 0.259837
vt 0.388673 0.259868
vt 0.388527 0.259914
vt 0.388336 0.259974
vt 0.388102 0.260047
vt 0.387830 0.260133
vt 0.387524 0.260229
vt 0.387188 0.260335
vt 0.386828 0.260447
vt 0.386450 0.260566
vt 0.386060 0.260689
vt 0.576690 0.362948
vt 0.576724 0.363845
vt 0.576757 0.364728
vt 0.576790 0.365583
vt 0.576821 0.366397
vt 0.576849 0.367156
vt 0.576876 0.367848
vt 0.576899 0.368464
vt 0.576919 0.368992
vt 0.576935 0.369425
vt 0.576948 0.369756
vt 0.576956 0.369980
vt 0.576961 0.370092
vt 0.576961 0.370092
vt 0.576956 0.369980
vt 0.576948 0.369756
vt 0.576935 0.369425
vt 0.576919 0.368992
vt 0.576899 0.368464
vt 0.576876 0.367848
vt 0.576849 0.367156
vt 0.576821 0.366397
vt 0.576790 0.365583
vt 0.576757 0.364728
vt 0.576724 0.363845
vt 0.576690 0.362948
vt 0.580336 0.362257
vt 0.580377 0.363193
vt 0.580417 0.364129
vt 0.580457 0.365050
vt 0.580496 0.365942
vt 0.580532 0.366790
vt 0.580567 0.367582
vt 0.580598 0.368304
vt 0.580626 0.368946
vt 0.580650 0.369497
vt 0.580669 0.369949
vt 0.580684 0.370294
vt 0.580694 0.370527
vt 0.580699 0.370644
vt 0.580699 0.370644
vt 0.580694 0.370527
vt 0.580684 0.370294
vt 0.580669 0.369949
vt 0.580650 0.369497
vt 0.580626 0.368946
vt 0.580598 0.368304
vt 0.580567 0.367582
vt 0.580532 0.366790
vt 0.580496 0.365942
vt 0.580457 0.365050
vt 0.580417 0.364129
vt 0.580377 0.363193
vt 0.576656 0.362051
vt 0.576622 0.361168
vt 0.576590 0.360313
vt 0.576559 0.359499
vt 0.576530 0.358740
vt 0.576504 0.358048
vt 0.576481 0.357432
vt 0.576461 0.356904
vt 0.576444 0.356471
vt 0.576432 0.356140
vt 0.576423 0.355916
vt 0.576419 0.355804
vt 0.576419 0.355804
vt 0.576423 0.355916
vt 0.576432 0.356140
vt 0.576444 0.356471
vt 0.576461 0.356904
vt 0.576481 0.357432
vt 0.576504 0.358048
vt 0.576530 0.358740
vt 0.576559 0.359499
vt 0.576590 0.360313
vt 0.576622 0.361168
vt 0.576656 0.362051
vt 0.580336 0.362257
vt 0.580297 0.361337
vt 0.580258 0.360445
vt 0.580221 0.359597
vt 0.580187 0.358805
vt 0.580156 0.358082
vt 0.580128 0.357441
vt 0.580104 0.356890
vt 0.580085 0.356438
vt 0.580070 0.356093
vt 0.580060 0.355860
vt 0.580055 0.355742
vt 0.580055 0.355742
vt 0.580060 0.355860
vt 0.580070 0.356093
vt 0.580085 0.356438
vt 0.580104 0.356890
vt 0.580128 0.357441
vt 0.580156 0.358082
vt 0.580187 0.358805
vt 0.580221 0.359596
vt 0.580258 0.360445
vt 0.580297 0.361337
vt 0.337288 0.003792
vt 0.375228 0.958437
vt 0.415771 0.787352
vt 0.415841 0.467193
vt 0.395285 0.442543
vt 0.395570 0.442828
vt 0.416009 0.463242
vt 0.395851 0.443108
vt 0.396123 0.443379
vt 0.396381 0.443638
vt 0.396622 0.443879
vt 0.396842 0.444098
vt 0.397038 0.444294
vt 0.397206 0.444461
vt 0.397344 0.444599
vt 0.397449 0.444704
vt 0.397520 0.444775
vt 0.397556 0.444811
vt 0.416009 0.463242
vt 0.375523 0.422804
vt 0.397556 0.444811
vt 0.397520 0.444775
vt 0.397449 0.444704
vt 0.397344 0.444599
vt 0.397206 0.444461
vt 0.397038 0.444294
vt 0.396842 0.444098
vt 0.396622 0.443879
vt 0.396381 0.443638
vt 0.396123 0.443379
vt 0.395851 0.443108
vt 0.395570 0.442828
vt 0.395285 0.442543
vt 0.375090 0.824399
vt 0.203909 0.254466
vt 0.200234 0.000830
vt 0.370485 0.421920
vt 0.375523 0.422804
vt 0.415841 0.467193
vt 0.620000 0.393741
vt 0.615000 0.393612
vt 0.615000 0.593545
vt 0.620000 0.593663
vt 0.625000 0.393869
vt 0.625000 0.593782
vt 0.610000 0.393486
vt 0.610000 0.593428
vt 0.380000 0.393995
vt 0.375000 0.393869
vt 0.375000 0.593782
vt 0.380000 0.593899
vt 0.605000 0.393364
vt 0.605000 0.593315
vt 0.385000 0.394117
vt 0.385000 0.594012
vt 0.600000 0.393248
vt 0.600000 0.593207
vt 0.390000 0.394233
vt 0.390000 0.594120
vt 0.595000 0.393139
vt 0.595000 0.593107
vt 0.395000 0.394342
vt 0.395000 0.594221
vt 0.590000 0.393040
vt 0.590000 0.593015
vt 0.400000 0.394441
vt 0.400000 0.594312
vt 0.585000 0.392952
vt 0.585000 0.592934
vt 0.405000 0.394529
vt 0.405000 0.594394
vt 0.580000 0.392877
vt 0.580000 0.592864
vt 0.410000 0.394604
vt 0.410000 0.594464
vt 0.575000 0.392815
vt 0.575000 0.592806
vt 0.415000 0.394666
vt 0.415000 0.594521
vt 0.570000 0.392767
vt 0.570000 0.592763
vt 0.420000 0.394713
vt 0.420000 0.594565
vt 0.565000 0.392735
vt 0.565000 0.592733
vt 0.425000 0.394746
vt 0.425000 0.594594
vt 0.560000 0.392719
vt 0.560000 0.592718
vt 0.430000 0.394762
vt 0.430000 0.594609
vt 0.370485 0.421920
vt 0.555000 0.392719
vt 0.555000 0.592718
vt 0.435000 0.394762
vt 0.435000 0.594609
vt 0.550000 0.392735
vt 0.550000 0.592733
vt 0.440000 0.394746
vt 0.440000 0.594594
vt 0.545000 0.392767
vt 0.545000 0.592763
vt 0.445000 0.394713
vt 0.445000 0.594565
vt 0.540000 0.392815
vt 0.540000 0.592806
vt 0.450000 0.394666
vt 0.450000 0.594521
vt 0.535000 0.392877
vt 0.535000 0.592864
vt 0.455000 0.394604
vt 0.455000 0.594464
vt 0.530000 0.392952
vt 0.530000 0.592934
vt 0.460000 0.394529
vt 0.460000 0.594394
vt 0.525000 0.393040
vt 0.525000 0.593015
vt 0.465000 0.394441
vt 0.465000 0.594312
vt 0.520000 0.393139
vt 0.520000 0.593107
vt 0.470000 0.394342
vt 0.470000 0.594221
vt 0.515000 0.393248
vt 0.515000 0.593207
vt 0.475000 0.394234
vt 0.475000 0.594120
vt 0.510000 0.393364
vt 0.510000 0.593315
vt 0.480000 0.394117
vt 0.480000 0.594012
vt 0.505000 0.393486
vt 0.505000 0.593428
vt 0.485000 0.393995
vt 0.485000 0.593899
vt 0.500000 0.393612
vt 0.500000 0.593545
vt 0.490000 0.393869
vt 0.490000 0.593782
vt 0.495000 0.393741
vt 0.495000 0.593663
vt 0.163250 0.250893
vt 0.159447 -0.002659
vt 0.395000 0.442258
vt 0.394719 0.441978
vt 0.394448 0.441706
vt 0.394189 0.441448
vt 0.393948 0.441207
vt 0.393728 0.440987
vt 0.393532 0.440792
vt 0.393364 0.440624
vt 0.393227 0.440487
vt 0.393121 0.440382
vt 0.393050 0.440311
vt 0.393014 0.440275
vt 0.393014 0.440275
vt 0.393050 0.440311
vt 0.393121 0.440382
vt 0.393227 0.440487
vt 0.393364 0.440624
vt 0.393532 0.440792
vt 0.393728 0.440987
vt 0.393948 0.441207
vt 0.394189 0.441448
vt 0.394448 0.441706
vt 0.394719 0.441978
vt 0.395000 0.442258
vt 0.392963 0.444357
vt 0.392678 0.444072
vt 0.392393 0.443788
vt 0.392112 0.443507
vt 0.391840 0.443236
vt 0.391581 0.442978
vt 0.391340 0.442737
vt 0.391120 0.442517
vt 0.390924 0.442322
vt 0.390756 0.442154
vt 0.390619 0.442017
vt 0.390513 0.441912
vt 0.390442 0.441841
vt 0.390406 0.441805
vt 0.390406 0.441805
vt 0.390442 0.441841
vt 0.390513 0.441912
vt 0.390619 0.442017
vt 0.390756 0.442154
vt 0.390924 0.442322
vt 0.391120 0.442517
vt 0.391340 0.442737
vt 0.391581 0.442978
vt 0.391840 0.443236
vt 0.392112 0.443507
vt 0.392393 0.443788
vt 0.392678 0.444072
vt 0.392963 0.444357
vt 0.393244 0.444637
vt 0.393516 0.444909
vt 0.393774 0.445167
vt 0.394016 0.445408
vt 0.394236 0.445628
vt 0.394432 0.445823
vt 0.394600 0.445991
vt 0.394737 0.446128
vt 0.394843 0.446233
vt 0.394914 0.446304
vt 0.394949 0.446340
vt 0.394949 0.446340
vt 0.394914 0.446304
vt 0.394843 0.446233
vt 0.394737 0.446128
vt 0.394600 0.445991
vt 0.394432 0.445823
vt 0.394236 0.445628
vt 0.394016 0.445408
vt 0.393774 0.445167
vt 0.393516 0.444909
vt 0.393244 0.444637
vn 0.000000 1.000000 -0.000000
vn -0.000000 1.000000 -0.000000
vn -0.000000 1.000000 -0.000000
vn -0.707099 -0.000003 0.707115
vn -0.707107 -0.000000 0.707107
vn -0.707110 0.000003 0.707104
vn -0.707104 -0.000011 0.707110
vn -0.707104 0.000008 0.707109
vn -0.707105 0.000003 0.707108
vn -0.707110 0.000004 0.707104
vn -0.707109 0.000027 0.707105
vn -0.707105 -0.000000 0.707109
vn -0.707105 0.000008 0.707109
vn -0.707115 0.000006 0.707099
vn -0.707103 -0.000008 0.707110
vn -0.707094 0.000002 0.707120
vn -0.707110 -0.000027 0.707104
vn -0.707096 0.000002 0.707118
vn -0.707103 0.000000 0.707111
vn -0.707119 0.000000 0.707095
vn -0.707106 0.000013 0.707108
vn -0.707122 0.000004 0.707092
vn -0.000000 -1.000000 0.000000
vn -0.000000 -1.000000 0.000000
vn 0.052928 -0.992355 -0.111488
vn -0.000000 -1.000000 0.000000
vn -0.707114 -0.000005 0.707099
vn -0.707097 -0.000000 0.707116
vn -0.707098 0.000003 0.707116
vn -0.707089 0.000008 0.707125
vn -0.707104 -0.000008 0.707109
vn -0.707108 0.000004 0.707106
vn -0.707117 -0.000006 0.707097
vn -0.707119 -0.000008 0.707095
vn -0.707097 -0.000002 0.707116
vn -0.707119 0.000017 0.707094
vn -0.707108 -0.000006 0.707106
vn -0.707108 0.000008 0.707106
vn -0.707101 -0.000002 0.707113
vn -0.707110 -0.000013 0.707104
vn -0.707103 -0.000002 0.707110
vn -0.707102 -0.000003 0.707112
vn -0.707127 0.000000 0.707087
vn -0.707106 -0.000002 0.707107
vn -0.707107 -0.000004 0.707107
vn -0.707113 -0.000007 0.707100
vn -0.707098 0.000000 0.707116
vn -0.707107 -0.000005 0.707107
vn -0.707097 -0.000008 0.707117
vn -0.707105 0.000005 0.707108
vn -0.707099 -0.000004 0.707114
vn -0.707112 0.000007 0.707102
vn -0.707119 0.000008 0.707094
vn -0.707106 0.000002 0.707108
vn -0.707120 -0.000017 0.707093
vn -0.707101 0.000003 0.707112
vn -0.707109 -0.000008 0.707105
vn -0.707109 0.000013 0.707104
vn 0.596644 0.536685 0.596644
vn 0.544284 0.638366 0.544283
vn 0.544803 0.637480 0.544802
vn 0.597011 0.535870 0.597011
vn 0.639565 0.426510 0.639567
vn 0.639796 0.425816 0.639798
vn 0.483330 0.729921 0.483330
vn 0.484008 0.729021 0.484008
vn 0.672368 0.309585 0.672368
vn 0.672490 0.309054 0.672490
vn 0.414743 0.809923 0.414744
vn 0.415578 0.809067 0.415579
vn 0.694535 0.187732 0.694535
vn 0.694579 0.187400 0.694579
vn 0.339613 0.877113 0.339613
vn 0.340593 0.876352 0.340593
vn 0.705706 0.062907 0.705706
vn 0.705711 0.062794 0.705711
vn 0.259135 0.930429 0.259136
vn 0.260238 0.929813 0.260240
vn 0.705706 -0.062907 0.705706
vn 0.705711 -0.062794 0.705711
vn 0.174584 0.969041 0.174584
vn 0.175781 0.968608 0.175782
vn 0.694535 -0.187732 0.694535
vn 0.694579 -0.187400 0.694579
vn 0.087297 0.992350 0.087297
vn 0.088553 0.992127 0.088553
vn 0.672369 -0.309584 0.672368
vn 0.672490 -0.309054 0.672490
vn -0.001348 0.999998 -0.001349
vn -0.000071 1.000000 -0.000072
vn 0.639566 -0.426511 0.639566
vn 0.639797 -0.425816 0.639797
vn -0.089952 0.991876 -0.089953
vn -0.088695 0.992102 -0.088696
vn 0.596645 -0.536685 0.596644
vn 0.597011 -0.535869 0.597011
vn -0.177114 0.968122 -0.177114
vn -0.175916 0.968559 -0.175916
vn 0.544288 -0.638360 0.544286
vn 0.544806 -0.637475 0.544805
vn -0.261466 0.929124 -0.261465
vn -0.260363 0.929744 -0.260361
vn 0.483330 -0.729921 0.483330
vn 0.484008 -0.729021 0.484008
vn -0.341686 0.875501 -0.341685
vn -0.340705 0.876266 -0.340703
vn 0.414745 -0.809922 0.414744
vn 0.415581 -0.809066 0.415579
vn -0.416515 0.808104 -0.416514
vn -0.415678 0.808965 -0.415678
vn 0.339615 -0.877112 0.339614
vn 0.340595 -0.876351 0.340593
vn -0.484766 0.728013 -0.484767
vn -0.484087 0.728916 -0.484088
vn 0.259133 -0.930430 0.259136
vn 0.260236 -0.929814 0.260239
vn -0.545376 0.636498 -0.545377
vn -0.544856 0.637387 -0.544858
vn 0.174585 -0.969041 0.174587
vn 0.175782 -0.968608 0.175784
vn -0.597418 0.534963 -0.597417
vn -0.597050 0.535783 -0.597049
vn 0.087295 -0.992351 0.087294
vn 0.088551 -0.992128 0.088550
vn -0.640055 0.425042 -0.640054
vn -0.639823 0.425739 -0.639822
vn 0.734205 0.000000 -0.678927
vn 0.734205 0.000000 -0.678927
vn 0.734205 0.000000 -0.678927
vn 0.734205 0.000000 -0.678927
vn -0.001350 -0.999998 -0.001352
vn -0.000073 -1.000000 -0.000076
vn -0.672628 0.308451 -0.672629
vn -0.672506 0.308983 -0.672507
vn -0.089952 -0.991876 -0.089953
vn -0.088695 -0.992102 -0.088696
vn -0.694632 0.187007 -0.694633
vn -0.694587 0.187341 -0.694588
vn -0.177114 -0.968122 -0.177115
vn -0.175916 -0.968559 -0.175917
vn -0.705717 0.062663 -0.705718
vn -0.705711 0.062777 -0.705713
vn -0.261469 -0.929123 -0.261466
vn -0.260365 -0.929743 -0.260362
vn -0.705718 -0.062663 -0.705717
vn -0.705713 -0.062777 -0.705712
vn -0.341684 -0.875502 -0.341684
vn -0.340703 -0.876267 -0.340703
vn -0.694633 -0.187007 -0.694632
vn -0.694588 -0.187341 -0.694587
vn -0.416510 -0.808108 -0.416511
vn -0.415674 -0.808968 -0.415675
vn -0.672628 -0.308451 -0.672629
vn -0.672506 -0.308983 -0.672507
vn -0.484766 -0.728013 -0.484767
vn -0.484087 -0.728916 -0.484088
vn -0.640054 -0.425042 -0.640055
vn -0.639823 -0.425739 -0.639823
vn -0.545376 -0.636498 -0.545377
vn -0.544856 -0.637387 -0.544858
vn -0.597417 -0.534963 -0.597417
vn -0.597050 -0.535782 -0.597050
vn -0.000000 1.000000 -0.000000
vn -0.000000 1.000000 0.000000
vn -0.000000 1.000000 0.000000
vn -0.000000 -1.000000 0.000000
vn 0.000000 1.000000 0.000000
vn 0.000000 1.000000 0.000000
vn 0.000000 1.000000 0.000000
vn 0.000000 1.000000 0.000000
vn 1.000000 0.000000 0.000000
vn 1.000000 0.000000 0.000000
vn 1.000000 0.000000 0.000000
vn 1.000000 0.000000 0.000000
vn 0.208442 0.000000 0.978035
vn 0.208442 0.000000 0.978035
vn 0.442048 0.000000 0.896991
vn 0.442048 0.000000 0.896991
vn 0.319791 0.000000 -0.947488
vn 0.319791 0.000000 -0.947488
vn 0.319791 0.000000 -0.947488
vn 0.319791 0.000000 -0.947488
vn 1.000000 0.000000 0.000000
vn 1.000000 0.000000 0.000000
vn 1.000000 0.000000 0.000000
vn 1.000000 0.000000 0.000000
vn -0.000000 1.000000 -0.000000
vn -0.000000 1.000000 -0.000000
vn 0.000000 0.728955 0.684562
vn 0.000000 0.637412 0.770523
vn 0.000000 0.637244 0.770662
vn 0.000000 0.728785 0.684743
vn 0.000000 0.809003 0.587804
vn 0.000000 0.808841 0.588027
vn 0.000000 0.535814 0.844336
vn 0.000000 0.535659 0.844434
vn 0.000000 0.876295 0.481775
vn 0.000000 0.876151 0.482037
vn 0.000000 0.425768 0.904833
vn 0.000000 0.425636 0.904894
vn 0.000000 0.929766 0.368151
vn 0.000000 0.929649 0.368447
vn 0.000000 0.309009 0.951059
vn 0.000000 0.308908 0.951092
vn 0.000000 0.968576 0.248719
vn 0.000000 0.968493 0.249039
vn 0.000000 0.187377 0.982288
vn 0.000000 0.187314 0.982300
vn 0.000000 0.992111 0.125363
vn 0.000000 0.992068 0.125699
vn 0.000000 0.062790 0.998027
vn 0.000000 0.062768 0.998028
vn 0.000000 1.000000 0.000031
vn 0.000000 1.000000 0.000373
vn 0.000000 -0.062789 0.998027
vn 0.000000 -0.062767 0.998028
vn 0.000000 0.992119 -0.125303
vn 0.000000 0.992161 -0.124966
vn 0.000000 -0.187377 0.982288
vn 0.000000 -0.187315 0.982300
vn 0.000000 0.968590 -0.248662
vn 0.000000 0.968673 -0.248342
vn 0.000000 -0.309010 0.951059
vn 0.000000 -0.308909 0.951091
vn 0.000000 0.929787 -0.368098
vn 0.000000 0.929904 -0.367803
vn 0.000000 -0.425768 0.904832
vn 0.000000 -0.425636 0.904895
vn 0.000000 0.876319 -0.481731
vn 0.000000 0.876463 -0.481469
vn 0.000000 -0.535813 0.844336
vn 0.000000 -0.535659 0.844434
vn 0.000000 0.809030 -0.587767
vn 0.000000 0.809192 -0.587544
vn 0.000000 -0.637408 0.770526
vn 0.000000 -0.637241 0.770665
vn 0.000000 0.728984 -0.684531
vn 0.000000 0.729154 -0.684350
vn 0.000000 -0.728953 0.684563
vn 0.000000 -0.728783 0.684745
vn 0.000000 0.637439 -0.770501
vn 0.000000 0.637607 -0.770362
vn 0.000000 -0.809002 0.587806
vn 0.000000 -0.808840 0.588030
vn 0.000000 0.535841 -0.844319
vn 0.000000 0.535996 -0.844221
vn 0.000000 -0.876294 0.481776
vn 0.000000 -0.876150 0.482038
vn 0.000000 0.425793 -0.904821
vn 0.000000 0.425924 -0.904759
vn 0.000000 -0.929768 0.368146
vn 0.000000 -0.929651 0.368441
vn 0.000000 0.309024 -0.951054
vn 0.000000 0.309124 -0.951022
vn 0.000000 -0.968577 0.248714
vn 0.000000 -0.968495 0.249034
vn 0.000000 0.187385 -0.982287
vn 0.000000 0.187448 -0.982275
vn 0.000000 -0.992112 0.125357
vn 0.000000 -0.992069 0.125693
vn 0.000000 0.062793 -0.998027
vn 0.000000 0.062814 -0.998025
vn 0.000000 -1.000000 0.000026
vn 0.000000 -1.000000 0.000367
vn 0.000000 -0.062793 -0.998027
vn 0.000000 -0.062814 -0.998025
vn 0.000000 -0.992118 -0.125307
vn 0.000000 -0.992161 -0.124971
vn 0.000000 -0.187388 -0.982286
vn 0.000000 -0.187450 -0.982274
vn 0.000000 -0.968590 -0.248663
vn 0.000000 -0.968672 -0.248343
vn 0.000000 -0.309027 -0.951053
vn 0.000000 -0.309127 -0.951021
vn 0.000000 -0.929786 -0.368101
vn 0.000000 -0.929902 -0.367806
vn 0.000000 -0.425792 -0.904821
vn 0.000000 -0.425923 -0.904759
vn 0.000000 -0.876320 -0.481730
vn 0.000000 -0.876464 -0.481468
vn 0.000000 -0.535841 -0.844319
vn 0.000000 -0.535996 -0.844221
vn 0.000000 -0.809033 -0.587763
vn 0.000000 -0.809195 -0.587540
vn 0.000000 -0.637438 -0.770502
vn 0.000000 -0.637606 -0.770363
vn 0.000000 -0.728982 -0.684532
vn 0.000000 -0.729153 -0.684351
vn 0.000000 1.000000 -0.000000
vn 0.000000 1.000000 -0.000000
vn 0.000000 1.000000 -0.000000
vn 0.000000 1.000000 -0.000000
vn 0.319790 0.000000 0.947489
vn 0.319790 0.000000 0.947489
vn 0.319790 0.000000 0.947489
vn 0.319790 0.000000 0.947489
vn -0.738310 0.000000 0.674461
vn -0.738311 0.000000 0.674461
vn -0.738310 0.000000 0.674461
vn -0.738310 0.000000 0.674461
vn -0.738310 0.000000 0.674461
vn -0.738310 0.000000 0.674461
vn -0.738310 0.000000 0.674461
vn -0.738310 0.000000 0.674461
vn -0.738310 0.000000 0.674461
vn -0.738310 0.000000 0.674461
vn -0.738310 0.000000 0.674461
vn -0.738310 0.000000 0.674461
vn -0.738310 0.000000 0.674461
vn -0.738310 0.000000 0.674461
vn -0.738310 0.000000 0.674461
vn -0.738310 0.000000 0.674461
vn -0.738310 0.000000 0.674461
vn -0.738310 0.000000 0.674461
vn -0.738310 0.000000 0.674461
vn -0.738310 0.000000 0.674461
vn -0.738310 0.000000 0.674461
vn -0.738310 0.000000 0.674461
vn -0.738310 0.000000 0.674461
vn -0.738310 0.000000 0.674461
vn -0.738310 0.000000 0.674461
vn -0.738310 0.000000 0.674461
vn -0.738311 0.000000 0.674461
vn -0.738311 0.000000 0.674461
vn -0.738310 0.000000 0.674461
vn -0.738311 0.000000 0.674461
vn -0.738311 0.000000 0.674461
vn -0.738311 0.000000 0.674461
vn -0.738311 0.000000 0.674461
vn -0.738311 0.000000 0.674461
vn -0.738311 0.000000 0.674461
vn -0.738311 0.000000 0.674461
vn -0.738311 0.000000 0.674461
vn -0.738311 0.000000 0.674461
vn -0.738311 0.000000 0.674461
vn -0.738311 0.000000 0.674461
vn -0.738311 0.000000 0.674461
vn -0.738311 0.000000 0.674461
vn -0.738311 0.000000 0.674461
vn -0.738311 0.000000 0.674461
vn -0.738311 0.000000 0.674461
vn -0.738311 0.000000 0.674461
vn -0.738311 0.000000 0.674461
vn -0.738311 0.000000 0.674461
vn -0.738311 0.000000 0.674461
vn -0.738311 0.000000 0.674461
vn -0.738311 0.000000 0.674461
vn -0.738311 0.000000 0.674461
vn -0.738311 0.000000 0.674461
vn -0.738311 0.000000 0.674461
vn -0.999964 0.000000 0.008538
vn -0.999964 0.000000 0.008538
vn -0.999964 0.000000 0.008538
vn -0.999964 0.000000 0.008538
vn -0.999964 0.000000 0.008538
vn -0.999964 0.000000 0.008538
vn -0.999964 0.000000 0.008538
vn -0.999964 0.000000 0.008538
vn -0.999964 0.000000 0.008538
vn -0.999964 0.000000 0.008538
vn -0.999964 0.000000 0.008538
vn -0.999964 0.000000 0.008538
vn -0.999964 0.000000 0.008538
vn -0.999964 0.000000 0.008538
vn -0.999964 0.000000 0.008538
vn -0.999964 0.000000 0.008538
vn -0.999964 0.000000 0.008538
vn -0.999964 0.000000 0.008538
vn -0.999964 0.000000 0.008538
vn -0.999964 0.000000 0.008538
vn -0.999964 0.000000 0.008538
vn -0.999964 0.000000 0.008538
vn -0.999964 0.000000 0.008538
vn -0.999964 0.000000 0.008538
vn -0.999964 0.000000 0.008538
vn -0.999964 0.000000 0.008538
vn -0.999964 0.000000 0.008538
vn -0.999964 0.000000 0.008538
vn -0.999964 0.000000 0.008538
vn 1.000000 0.000000 0.000000
vn 1.000000 0.000000 0.000000
vn 1.000000 0.000000 0.000000
vn 1.000000 0.000000 0.000000
vn 1.000000 0.000000 0.000000
vn 1.000000 0.000000 0.000000
vn 1.000000 0.000000 0.000000
vn 1.000000 0.000000 0.000000
vn 1.000000 0.000000 0.000000
vn 1.000000 0.000000 0.000000
vn 1.000000 0.000000 0.000000
vn 1.000000 0.000000 0.000000
vn 1.000000 0.000000 0.000000
vn 1.000000 0.000000 0.000000
vn 1.000000 0.000000 0.000000
vn 1.000000 0.000000 0.000000
vn 1.000000 0.000000 0.000000
vn 1.000000 0.000000 0.000000
vn 1.000000 0.000000 0.000000
vn 1.000000 0.000000 0.000000
vn 1.000000 0.000000 0.000000
vn 1.000000 0.000000 0.000000
vn 1.000000 0.000000 0.000000
vn 1.000000 0.000000 0.000000
vn 1.000000 0.000000 0.000000
vn 1.000000 0.000000 0.000000
vn 1.000000 0.000000 0.000000
vn 1.000000 0.000000 0.000000
vn 1.000000 0.000000 0.000000
vn -0.999964 0.000000 0.008538
vn -0.999964 0.000000 0.008538
vn -0.999964 0.000000 0.008538
vn -0.999964 0.000000 0.008538
vn -0.999964 0.000000 0.008538
vn -0.999964 0.000000 0.008538
vn -0.999964 0.000000 0.008538
vn -0.999964 0.000000 0.008538
vn -0.999964 0.000000 0.008538
vn -0.999964 0.000000 0.008538
vn -0.999964 0.000000 0.008538
vn -0.999964 0.000000 0.008538
vn -0.999964 0.000000 0.008538
vn -0.999964 0.000000 0.008538
vn -0.999964 0.000000 0.008538
vn -0.999964 0.000000 0.008538
vn -0.999964 0.000000 0.008538
vn -0.999964 0.000000 0.008538
vn -0.999964 0.000000 0.008538
vn -0.999964 0.000000 0.008538
vn -0.999964 0.000000 0.008538
vn -0.999964 0.000000 0.008538
vn -0.999964 0.000000 0.008538
vn -0.999964 0.000000 0.008538
vn -0.999964 0.000000 0.008538
vn 1.000000 0.000000 0.000000
vn 1.000000 0.000000 0.000000
vn 1.000000 0.000000 0.000000
vn 1.000000 0.000000 0.000000
vn 1.000000 0.000000 0.000000
vn 1.000000 0.000000 0.000000
vn 1.000000 0.000000 0.000000
vn 1.000000 0.000000 0.000000
vn 1.000000 0.000000 0.000000
vn 1.000000 0.000000 0.000000
vn 1.000000 0.000000 0.000000
vn 1.000000 0.000000 0.000000
vn 1.000000 0.000000 0.000000
vn 1.000000 0.000000 0.000000
vn 1.000000 0.000000 0.000000
vn 1.000000 0.000000 0.000000
vn 1.000000 0.000000 0.000000
vn 1.000000 0.000000 0.000000
vn 1.000000 0.000000 0.000000
vn 1.000000 0.000000 0.000000
vn 1.000000 0.000000 0.000000
vn 1.000000 0.000000 0.000000
vn 1.000000 0.000000 0.000000
vn 1.000000 0.000000 0.000000
vn 1.000000 0.000000 0.000000
vn -0.738311 0.000000 0.674461
vn -0.738311 0.000000 0.674461
vn 0.000000 -1.000000 0.000000
vn 0.000000 0.000000 -1.000000
vn 0.000000 0.000000 -1.000000
vn 0.000000 0.000000 -1.000000
vn 0.000000 0.000000 -1.000000
vn 0.280354 -0.756744 -0.590543
vn 0.303020 0.707649 -0.638288
vn 0.426538 0.104000 -0.898470
vn 0.710955 0.000000 0.703238
vn 0.710955 0.000000 0.703238
vn 0.710954 0.000000 0.703238
vn 0.710955 0.000000 0.703238
vn 0.710955 0.000000 0.703238
vn 0.710955 0.000000 0.703238
vn 0.710955 0.000000 0.703238
vn 0.710955 0.000000 0.703238
vn 0.710955 0.000000 0.703238
vn 0.710955 0.000000 0.703238
vn 0.710955 0.000000 0.703238
vn 0.710955 0.000000 0.703238
vn 0.710955 0.000000 0.703238
vn 0.710955 0.000000 0.703238
vn 0.710955 0.000000 0.703238
vn 0.710955 0.000000 0.703238
vn 0.710955 0.000000 0.703238
vn 0.710955 0.000000 0.703238
vn 0.710955 0.000000 0.703238
vn 0.710955 0.000000 0.703238
vn 0.710955 0.000000 0.703238
vn 0.710955 0.000000 0.703238
vn 0.710955 0.000000 0.703238
vn 0.710955 0.000000 0.703238
vn 0.710955 0.000000 0.703238
vn 0.710955 0.000000 0.703238
vn 0.710955 0.000000 0.703238
vn 0.710955 0.000000 0.703238
vn 0.710954 0.000000 0.703238
vn -0.000000 1.000000 0.000000
vn 0.000000 1.000000 -0.000000
vn 0.000000 -1.000000 0.000000
vn -0.977714 0.000000 -0.209943
vn -0.977714 0.000000 -0.209943
vn -1.000000 0.000000 0.000000
vn -1.000000 0.000000 0.000000
vn 0.000000 1.000000 0.000000
vn 0.000000 1.000000 0.000000
vn 0.000000 1.000000 0.000000
vn 0.000000 1.000000 0.000000
vn 0.000158 -1.000000 -0.000158
vn 0.088779 -0.992087 -0.088781
vn 0.088486 -0.992139 -0.088489
vn -0.000140 -1.000000 0.000139
vn -0.088470 -0.992142 0.088472
vn -0.088762 -0.992090 0.088764
vn 0.175997 -0.968530 -0.175996
vn 0.175718 -0.968631 -0.175718
vn -0.175702 -0.968637 0.175705
vn -0.175980 -0.968535 0.175983
vn 0.260437 -0.929702 -0.260437
vn 0.260180 -0.929845 -0.260180
vn -0.260162 -0.929856 0.260162
vn -0.260419 -0.929712 0.260418
vn 0.340774 -0.876211 -0.340775
vn 0.340546 -0.876388 -0.340547
vn -0.340534 -0.876398 0.340533
vn -0.340762 -0.876221 0.340761
vn 0.415729 -0.808913 -0.415727
vn 0.415535 -0.809112 -0.415533
vn -0.415533 -0.809114 0.415532
vn -0.415727 -0.808914 0.415726
vn 0.484127 -0.728864 -0.484126
vn 0.483969 -0.729074 -0.483968
vn -0.483968 -0.729076 0.483967
vn -0.484126 -0.728866 0.484125
vn 0.544891 -0.637328 -0.544891
vn 0.544771 -0.637534 -0.544771
vn -0.544771 -0.637532 0.544772
vn -0.544892 -0.637326 0.544893
vn 0.597074 -0.535733 -0.597070
vn 0.596989 -0.535923 -0.596985
vn -0.596986 -0.535926 0.596986
vn -0.597071 -0.535736 0.597071
vn 0.639839 -0.425696 -0.639835
vn 0.639785 -0.425858 -0.639781
vn -0.639780 -0.425870 0.639779
vn -0.639834 -0.425708 0.639833
vn 0.672518 -0.308932 -0.672518
vn 0.672490 -0.309056 -0.672490
vn -0.672482 -0.309091 0.672482
vn -0.672510 -0.308968 0.672510
vn 0.694589 -0.187323 -0.694590
vn 0.694579 -0.187400 -0.694580
vn -0.694579 -0.187408 0.694578
vn -0.694589 -0.187331 0.694588
vn 0.705712 -0.062785 -0.705712
vn 0.705711 -0.062810 -0.705711
vn -0.705712 -0.062789 0.705711
vn -0.705713 -0.062762 0.705712
vn 0.000000 0.000000 1.000000
vn 0.000000 0.000000 1.000000
vn 0.000000 0.000000 1.000000
vn 0.000000 0.000000 1.000000
vn 0.705712 0.062785 -0.705712
vn 0.705711 0.062810 -0.705711
vn -0.705711 0.062788 0.705712
vn -0.705712 0.062762 0.705713
vn 1.000000 0.000000 0.000000
vn 1.000000 0.000000 0.000000
vn 1.000000 0.000000 0.000000
vn 1.000000 0.000000 0.000000
vn 0.694590 0.187323 -0.694589
vn 0.694580 0.187400 -0.694579
vn -0.694579 0.187408 0.694578
vn -0.694589 0.187331 0.694588
vn 0.672519 0.308933 -0.672517
vn 0.672490 0.309056 -0.672489
vn -0.672482 0.309092 0.672480
vn -0.672511 0.308969 0.672509
vn 0.639840 0.425689 -0.639838
vn 0.639786 0.425851 -0.639784
vn -0.639779 0.425869 0.639780
vn -0.639833 0.425708 0.639834
vn 0.597076 0.535726 -0.597074
vn 0.596991 0.535916 -0.596989
vn -0.596986 0.535926 0.596986
vn -0.597071 0.535736 0.597071
vn 0.544893 0.637323 -0.544895
vn 0.544772 0.637529 -0.544774
vn -0.544770 0.637538 0.544766
vn -0.544891 0.637332 0.544887
vn 0.484129 0.728859 -0.484132
vn 0.483971 0.729069 -0.483974
vn -0.483966 0.729080 0.483962
vn -0.484124 0.728870 0.484120
vn 0.415733 0.808909 -0.415731
vn 0.415539 0.809108 -0.415537
vn -0.415526 0.809120 0.415527
vn -0.415720 0.808921 0.415721
vn 0.340775 0.876211 -0.340775
vn 0.340547 0.876388 -0.340546
vn -0.340532 0.876399 0.340533
vn -0.340760 0.876222 0.340761
vn 0.260433 0.929703 -0.260436
vn 0.260176 0.929847 -0.260179
vn -0.260167 0.929854 0.260165
vn -0.260423 0.929710 0.260422
vn 0.175995 0.968530 -0.175996
vn 0.175716 0.968632 -0.175718
vn -0.175704 0.968637 0.175703
vn -0.175982 0.968535 0.175981
vn 0.088779 0.992087 -0.088779
vn 0.088486 0.992139 -0.088487
vn -0.088471 0.992142 0.088472
vn -0.088764 0.992090 0.088764
vn 0.000156 1.000000 -0.000154
vn -0.000142 1.000000 0.000143
vn -0.710671 0.000000 -0.703525
vn -0.710671 0.000000 -0.703525
vn 0.000000 1.000000 -0.000000
vn 0.000000 1.000000 -0.000000
vn 0.710954 0.000000 0.703238
vn 0.710954 0.000000 0.703238
vn 0.710954 0.000000 0.703238
vn 0.710954 0.000000 0.703238
vn 0.710954 0.000000 0.703238
vn 0.710954 0.000000 0.703238
vn 0.710954 0.000000 0.703238
vn 0.710954 0.000000 0.703238
vn 0.710954 0.000000 0.703238
vn 0.710954 0.000000 0.703238
vn 0.710954 0.000000 0.703238
vn 0.710954 0.000000 0.703238
vn 0.710954 0.000000 0.703238
vn 0.710954 0.000000 0.703238
vn 0.710954 0.000000 0.703238
vn 0.710954 0.000000 0.703238
vn 0.710954 0.000000 0.703238
vn 0.710954 0.000000 0.703238
vn 0.710954 0.000000 0.703238
vn 0.710954 0.000000 0.703238
vn 0.710954 0.000000 0.703238
vn 0.710954 0.000000 0.703238
vn 0.710954 0.000000 0.703238
vn 0.710954 0.000000 0.703238
vn 0.710954 0.000000 0.703238
vn -0.710671 0.000000 -0.703525
vn -0.710671 0.000000 -0.703525
vn -0.710671 0.000000 -0.703525
vn -0.710671 0.000000 -0.703525
vn -0.710671 0.000000 -0.703525
vn -0.710671 0.000000 -0.703525
vn -0.710671 0.000000 -0.703525
vn -0.710671 0.000000 -0.703525
vn -0.710671 0.000000 -0.703525
vn -0.710671 0.000000 -0.703525
vn -0.710671 0.000000 -0.703525
vn -0.710671 0.000000 -0.703525
vn -0.710671 0.000000 -0.703525
vn -0.710671 0.000000 -0.703525
vn -0.710671 0.000000 -0.703525
vn -0.710671 0.000000 -0.703525
vn -0.710671 0.000000 -0.703525
vn -0.710671 0.000000 -0.703525
vn -0.710671 0.000000 -0.703525
vn -0.710671 0.000000 -0.703525
vn -0.710671 0.000000 -0.703525
vn -0.710671 0.000000 -0.703525
vn -0.710671 0.000000 -0.703525
vn -0.710671 0.000000 -0.703525
vn -0.710671 0.000000 -0.703525
vn -0.710671 0.000000 -0.703525
vn -0.710671 0.000000 -0.703525
vn -0.710671 0.000000 -0.703525
vn -0.710671 0.000000 -0.703525
vn -0.710671 0.000000 -0.703525
vn -0.710671 0.000000 -0.703525
vn -0.710671 0.000000 -0.703525
vn -0.710671 0.000000 -0.703525
vn -0.710671 0.000000 -0.703525
vn -0.710671 0.000000 -0.703525
vn -0.710671 0.000000 -0.703525
vn -0.710671 0.000000 -0.703525
vn -0.710671 0.000000 -0.703525
vn -0.710671 0.000000 -0.703525
vn -0.710671 0.000000 -0.703525
vn -0.710671 0.000000 -0.703525
vn -0.710671 0.000000 -0.703525
vn -0.710671 0.000000 -0.703525
vn -0.710671 0.000000 -0.703525
vn -0.710671 0.000000 -0.703525
vn -0.710671 0.000000 -0.703525
vn -0.710671 0.000000 -0.703525
vn -0.710671 0.000000 -0.703525
vn -0.710671 0.000000 -0.703525
vn -0.710671 0.000000 -0.703525
vn -0.710671 0.000000 -0.703525
vn -0.710671 0.000000 -0.703525
vn -0.710671 0.000000 -0.703525
vn -0.710671 0.000000 -0.703525
s 1
g polySurface1
usemtl initialShadingGroup
f 1/1/1 2/2/2 3/3/3
s 2
f 4/4/4 5/5/5 6/6/6
f 6/6/6 5/5/5 7/7/7
f 8/8/8 5/5/5 4/4/4
f 7/7/7 5/5/5 9/9/9
f 10/10/10 5/5/5 8/8/8
f 9/9/9 5/5/5 11/11/11
f 12/12/12 5/5/5 10/10/10
f 11/11/11 5/5/5 13/13/13
f 14/14/14 5/5/5 12/12/12
f 13/13/13 5/5/5 15/15/15
f 16/16/16 5/5/5 14/14/14
f 15/15/15 5/5/5 17/17/17
f 18/18/18 5/5/5 16/16/16
f 17/17/17 5/5/5 19/19/19
f 20/20/20 5/5/5 18/18/18
f 19/19/19 5/5/5 21/21/21
f 22/22/22 5/5/5 20/20/20
s 1
f 23/23/23 24/24/24 25/25/25 26/26/26
s 2
f 21/21/21 5/5/5 27/27/27
f 28/28/28 5/5/5 22/22/22
f 27/27/27 5/5/5 29/29/29
f 30/30/30 5/5/5 28/28/28
f 29/29/29 5/5/5 31/31/31
f 32/32/32 5/5/5 30/30/30
f 31/31/31 5/5/5 33/33/33
f 34/34/34 5/5/5 32/32/32
f 33/33/33 5/5/5 35/35/35
f 36/36/36 5/5/5 34/34/34
f 35/35/35 5/5/5 37/37/37
f 38/38/38 5/5/5 36/36/36
f 37/37/37 5/5/5 39/39/39
f 40/40/40 5/5/5 38/38/38
f 39/39/39 5/5/5 41/41/41
f 42/42/42 5/5/5 40/40/40
f 41/41/41 5/5/5 43/43/43
f 44/44/44 5/5/5 42/42/42
f 43/43/43 5/5/5 45/45/45
f 46/46/46 5/5/5 44/44/44
f 45/45/45 5/5/5 47/47/47
f 48/48/48 5/5/5 46/46/46
f 47/47/47 5/5/5 49/49/49
f 50/50/50 5/5/5 48/48/48
f 49/49/49 5/5/5 51/51/51
f 52/52/52 5/5/5 50/50/50
f 51/51/51 5/5/5 53/53/53
f 54/54/54 5/5/5 52/52/52
f 53/53/53 5/5/5 55/55/55
f 56/56/56 5/5/5 54/54/54
f 55/55/55 5/5/5 57/57/57
f 58/58/58 5/5/5 56/56/56
f 57/57/57 5/5/5 58/58/58
s 4
f 59/59/59 60/60/60 4/61/61 6/62/62
f 61/63/63 59/59/59 6/62/62 7/64/64
f 60/60/60 62/65/65 8/66/66 4/61/61
f 63/67/67 61/63/63 7/64/64 9/68/68
f 62/65/65 64/69/69 10/70/70 8/66/66
f 65/71/71 63/67/67 9/68/68 11/72/72
f 64/69/69 66/73/73 12/74/74 10/70/70
f 67/75/75 65/71/71 11/72/72 13/76/76
f 66/73/73 68/77/77 14/78/78 12/74/74
f 69/79/79 67/75/75 13/76/76 15/80/80
f 68/77/77 70/81/81 16/82/82 14/78/78
f 71/83/83 69/79/79 15/80/80 17/84/84
f 70/81/81 72/85/85 18/86/86 16/82/82
f 73/87/87 71/83/83 17/84/84 19/88/88
f 72/85/85 74/89/89 20/90/90 18/86/86
f 75/91/91 73/87/87 19/88/88 21/92/92
f 74/89/89 76/93/93 22/94/94 20/90/90
f 77/95/95 75/91/91 21/92/92 27/96/96
f 76/93/93 78/97/97 28/98/98 22/94/94
f 79/99/99 77/95/95 27/96/96 29/100/100
f 78/97/97 80/101/101 30/102/102 28/98/98
f 81/103/103 79/99/99 29/100/100 31/104/104
f 80/101/101 82/105/105 32/106/106 30/102/102
f 83/107/107 81/103/103 31/104/104 33/108/108
f 82/105/105 84/109/109 34/110/110 32/106/106
f 85/111/111 83/107/107 33/108/108 35/112/112
f 84/109/109 86/113/113 36/114/114 34/110/110
f 87/115/115 85/111/111 35/112/112 37/116/116
f 86/113/113 88/117/117 38/118/118 36/114/114
f 89/119/119 87/115/115 37/116/116 39/120/120
f 88/117/117 90/121/121 40/122/122 38/118/118
f 91/123/123 89/119/119 39/120/120 41/124/124
f 90/121/121 92/125/125 42/126/126 40/122/122
s off
f 2/2/127 1/1/128 93/127/129 94/128/130
s 4
f 95/129/131 91/130/123 41/131/124 43/132/132
f 92/125/125 96/133/133 44/134/134 42/126/126
f 97/135/135 95/129/131 43/132/132 45/136/136
f 96/133/133 98/137/137 46/138/138 44/134/134
f 99/139/139 97/135/135 45/136/136 47/140/140
f 98/137/137 100/141/141 48/142/142 46/138/138
f 101/143/143 99/139/139 47/140/140 49/144/144
f 100/141/141 102/145/145 50/146/146 48/142/142
f 103/147/147 101/143/143 49/144/144 51/148/148
f 102/145/145 104/149/149 52/150/150 50/146/146
f 105/151/151 103/147/147 51/148/148 53/152/152
f 104/149/149 106/153/153 54/154/154 52/150/150
f 107/155/155 105/151/151 53/152/152 55/156/156
f 106/153/153 108/157/157 56/158/158 54/154/154
f 109/159/159 107/155/155 55/156/156 57/160/160
f 108/157/157 110/161/161 58/162/162 56/158/158
f 110/161/161 109/159/159 57/160/160 58/162/162
s 1
f 111/163/163 112/164/164 113/165/165 3/3/3
f 114/166/166 23/23/23 26/26/26
s off
f 115/167/167 116/168/168 94/128/169 93/127/170
f 117/169/171 2/2/172 94/128/173 116/168/174
s 6
f 117/169/175 114/170/176 26/171/177 118/172/178
s off
f 119/173/179 112/164/180 120/174/181 121/175/182
f 118/172/183 26/171/184 25/176/185 119/177/186
s 1
f 3/3/3 2/2/2 117/169/187 118/172/188 111/163/163
s 7
f 122/178/189 123/179/190 124/180/191 125/181/192
f 126/182/193 122/178/189 125/181/192 127/183/194
f 123/179/190 128/184/195 129/185/196 124/180/191
f 130/186/197 126/182/193 127/183/194 131/187/198
f 128/184/195 132/188/199 133/189/200 129/185/196
f 134/190/201 130/186/197 131/187/198 135/191/202
f 132/188/199 136/192/203 137/193/204 133/189/200
f 138/194/205 134/190/201 135/191/202 139/195/206
f 136/192/203 140/196/207 141/197/208 137/193/204
f 142/198/209 138/194/205 139/195/206 143/199/210
f 140/196/207 144/200/211 145/201/212 141/197/208
f 146/202/213 142/198/209 143/199/210 147/203/214
f 144/200/211 148/204/215 149/205/216 145/201/212
f 150/206/217 146/202/213 147/203/214 151/207/218
f 148/204/215 152/208/219 153/209/220 149/205/216
f 154/210/221 150/206/217 151/207/218 155/211/222
f 152/208/219 156/212/223 157/213/224 153/209/220
f 158/214/225 154/210/221 155/211/222 159/215/226
f 156/212/223 160/216/227 161/217/228 157/213/224
f 162/218/229 158/214/225 159/215/226 163/219/230
f 160/216/227 164/220/231 165/221/232 161/217/228
f 166/222/233 162/218/229 163/219/230 167/223/234
f 164/220/231 168/224/235 169/225/236 165/221/232
f 170/226/237 166/222/233 167/223/234 171/227/238
f 168/224/235 172/228/239 173/229/240 169/225/236
f 174/230/241 170/226/237 171/227/238 175/231/242
f 172/228/239 176/232/243 177/233/244 173/229/240
f 178/234/245 174/230/241 175/231/242 179/235/246
f 176/232/243 180/236/247 181/237/248 177/233/244
f 182/238/249 178/234/245 179/235/246 183/239/250
f 180/236/247 184/240/251 185/241/252 181/237/248
f 186/242/253 182/238/249 183/239/250 187/243/254
f 184/240/251 188/244/255 189/245/256 185/241/252
f 190/246/257 186/242/253 187/243/254 191/247/258
f 188/244/255 192/248/259 193/249/260 189/245/256
f 194/250/261 190/246/257 191/247/258 195/251/262
f 192/252/259 196/253/263 197/254/264 193/255/260
f 198/256/265 194/250/261 195/251/262 199/257/266
f 196/253/263 200/258/267 201/259/268 197/254/264
f 202/260/269 198/256/265 199/257/266 203/261/270
f 200/258/267 204/262/271 205/263/272 201/259/268
f 206/264/273 202/260/269 203/261/270 207/265/274
f 204/262/271 208/266/275 209/267/276 205/263/272
f 210/268/277 206/264/273 207/265/274 211/269/278
f 208/266/275 212/270/279 213/271/280 209/267/276
f 214/272/281 210/268/277 211/269/278 215/273/282
f 212/270/279 216/274/283 217/275/284 213/271/280
f 218/276/285 214/272/281 215/273/282 219/277/286
f 216/274/283 220/278/287 221/279/288 217/275/284
f 220/278/287 218/276/285 219/277/286 221/279/288
s off
f 121/175/289 120/174/290 222/280/291 223/281/292
f 111/163/293 118/172/294 223/281/295 222/280/296
s 8
f 224/282/297 74/283/298 72/284/299 70/285/300 68/286/301 66/287/302 64/288/303 62/289/304 60/290/305 59/291/306 61/292/307 63/293/308 65/294/309 67/295/310 69/296/311 71/297/312 73/298/313 75/299/314 77/300/315 79/301/316 81/302/317 83/303/318 85/304/319 87/305/320 89/306/321 91/307/322 95/308/323 116/168/324 115/167/325
f 95/308/323 97/309/326 99/310/327 101/311/328 103/312/329 105/313/330 107/314/331 109/315/332 110/316/333 108/317/334 106/318/335 104/319/336 102/320/337 100/321/338 98/322/339 96/323/340 92/324/341 90/325/342 88/326/343 86/327/344 84/328/345 82/329/346 80/330/347 78/331/348 76/332/349 74/283/298 224/282/297 117/169/350 116/168/324
s 9
f 112/164/351 147/333/352 143/334/353 139/335/354 135/336/355 131/337/356 127/338/357 125/339/358 124/340/359 129/341/360 133/342/361 137/343/362 141/344/363 145/345/364 149/346/365 153/347/366 157/348/367 161/349/368 165/350/369 169/351/370 173/352/371 177/353/372 181/354/373 185/355/374 189/356/375 193/357/376 197/358/377 222/280/378 120/174/379
s 10
f 200/359/380 196/360/381 192/361/382 188/362/383 184/363/384 180/364/385 176/365/386 172/366/387 168/367/388 164/368/389 160/369/390 156/370/391 152/371/392 148/372/393 144/373/394 140/374/395 136/375/396 132/376/397 128/377/398 123/378/399 122/379/400 126/380/401 130/381/402 134/382/403 138/383/404 142/384/405 146/385/406 119/173/407 121/175/408
s 9
f 222/280/378 197/358/377 201/386/409 205/387/410 209/388/411 213/389/412 217/390/413 221/391/414 219/392/415 215/393/416 211/394/417 207/395/418 203/396/419 199/397/420 195/398/421 191/399/422 187/400/423 183/401/424 179/402/425 175/403/426 171/404/427 167/405/428 163/406/429 159/407/430 155/408/431 151/409/432 147/333/352 112/164/351 111/163/433
s 10
f 118/172/434 119/173/407 146/385/406 150/410/435 154/411/436 158/412/437 162/413/438 166/414/439 170/415/440 174/416/441 178/417/442 182/418/443 186/419/444 190/420/445 194/421/446 198/422/447 202/423/448 206/424/449 210/425/450 214/426/451 218/427/452 220/428/453 216/429/454 212/430/455 208/431/456 204/432/457 200/359/380 121/175/408 223/281/458
s 6
f 225/433/459 114/170/176 117/169/175 224/282/460
s 1
f 225/434/461 23/23/23 114/166/166
s off
f 1/1/462 224/282/463 115/167/464 93/127/465
s 1
f 226/435/466 227/436/467 119/173/468 25/25/25
f 25/25/25 24/24/24 226/435/466
s 11
f 242/451/469 230/439/470 228/437/471 229/438/472 231/440/473 232/441/474 233/442/475 234/443/476 235/444/477 236/445/478 237/446/479 238/447/480 239/448/481 240/449/482 241/450/483 244/453/484 245/454/485 246/455/486 247/456/487 248/457/488 249/458/489 250/459/490 251/460/491 252/461/492 253/462/493 254/463/494 255/464/495 256/465/496 243/452/497
s 1
f 242/451/498 243/452/499 113/165/165
f 227/436/467 242/451/498 113/165/165 112/164/164 119/173/468
f 226/435/466 24/24/24 257/466/500
f 257/466/500 24/24/24 23/23/23 225/434/461
s 12
f 258/467/501 257/468/502 225/433/503 224/282/504
s off
f 259/469/505 260/470/506 230/439/507 261/471/508
s 13
f 228/472/509 262/473/510 263/474/511 264/475/512
f 229/476/513 228/472/509 264/475/512 265/477/514
f 262/473/510 266/478/515 267/479/516 263/474/511
f 231/480/517 229/481/513 265/482/514 268/483/518
f 266/478/515 269/484/519 270/485/520 267/479/516
f 232/486/521 231/480/517 268/483/518 271/487/522
f 269/484/519 272/488/523 273/489/524 270/485/520
f 233/490/525 232/486/521 271/487/522 274/491/526
f 272/488/523 275/492/527 276/493/528 273/489/524
f 234/494/529 233/490/525 274/491/526 277/495/530
f 275/492/527 278/496/531 279/497/532 276/493/528
f 235/498/533 234/494/529 277/495/530 280/499/534
f 278/496/531 281/500/535 282/501/536 279/497/532
f 236/502/537 235/498/533 280/499/534 283/503/538
f 281/500/535 284/504/539 285/505/540 282/501/536
f 237/506/541 236/502/537 283/503/538 286/507/542
f 284/504/539 287/508/543 288/509/544 285/505/540
f 238/510/545 237/506/541 286/507/542 289/511/546
f 287/508/543 290/512/547 291/513/548 288/509/544
f 239/514/549 238/510/545 289/511/546 292/515/550
f 290/512/547 293/516/551 294/517/552 291/513/548
f 240/518/553 239/514/549 292/515/550 295/519/554
f 293/516/551 296/520/555 297/521/556 294/517/552
f 241/522/557 240/518/553 295/519/554 298/523/558
s off
f 258/524/559 243/452/560 260/470/561 259/469/562
s 13
f 296/520/555 299/525/563 300/526/564 297/521/556
f 244/527/565 241/522/557 298/523/558 301/528/566
s off
f 242/451/567 227/436/568 261/471/569 230/439/570
s 13
f 299/525/563 302/529/571 303/530/572 300/526/564
f 245/531/573 244/527/565 301/528/566 304/532/574
f 302/529/571 305/533/575 306/534/576 303/530/572
f 246/535/577 245/531/573 304/532/574 307/536/578
f 305/533/575 308/537/579 309/538/580 306/534/576
f 247/539/581 246/535/577 307/536/578 310/540/582
f 308/537/579 311/541/583 312/542/584 309/538/580
f 248/543/585 247/539/581 310/540/582 313/544/586
f 311/541/583 314/545/587 315/546/588 312/542/584
f 249/547/589 248/543/585 313/544/586 316/548/590
f 314/545/587 317/549/591 318/550/592 315/546/588
f 250/551/593 249/547/589 316/548/590 319/552/594
f 317/549/591 320/553/595 321/554/596 318/550/592
f 251/555/597 250/551/593 319/552/594 322/556/598
f 320/553/595 323/557/599 324/558/600 321/554/596
f 252/559/601 251/555/597 322/556/598 325/560/602
f 323/557/599 326/561/603 327/562/604 324/558/600
f 253/563/605 252/559/601 325/560/602 328/564/606
f 326/561/603 329/565/607 330/566/608 327/562/604
f 254/567/609 253/563/605 328/564/606 331/568/610
f 329/565/607 332/569/611 333/570/612 330/566/608
f 255/571/613 254/567/609 331/568/610 334/572/614
f 332/569/611 256/573/615 335/574/616 333/570/612
f 256/573/615 255/571/613 334/572/614 335/574/616
s 12
f 227/575/617 226/576/618 257/468/502 258/467/501
s 1
f 224/282/619 1/1/1 3/3/3 113/165/165 243/452/499 258/524/620
s 11
f 243/452/497 256/465/496 332/577/621 329/578/622 326/579/623 323/580/624 320/581/625 317/582/626 314/583/627 311/584/628 308/585/629 305/586/630 302/587/631 299/588/632 296/589/633 293/590/634 290/591/635 287/592/636 284/593/637 281/594/638 278/595/639 275/596/640 272/597/641 269/598/642 266/599/643 262/600/644 228/437/471 230/439/470 260/470/645
s 14
f 265/601/646 264/602/647 263/603/648 267/604/649 270/605/650 273/606/651 276/607/652 279/608/653 282/609/654 285/610/655 288/611/656 291/612/657 294/613/658 297/614/659 300/615/660 303/616/661 306/617/662 309/618/663 312/619/664 315/620/665 318/621/666 321/622/667 324/623/668 327/624/669 330/625/670 333/626/671 335/627/672 258/524/673 259/469/674
f 227/436/675 258/524/673 335/627/672 334/628/676 331/629/677 328/630/678 325/631/679 322/632/680 319/633/681 316/634/682 313/635/683 310/636/684 307/637/685 304/638/686 301/639/687 298/640/688 295/641/689 292/642/690 289/643/691 286/644/692 283/645/693 280/646/694 277/647/695 274/648/696 271/649/697 268/650/698 265/601/646 259/469/674 261/471/699
