# This file uses centimeters as units for non-parametric coordinates.

mtllib Tuyau-supportV2.mtl
g default
v 11.077863 0.424789 -0.930435
v 10.961147 0.424789 -1.854343
v 10.767528 0.424789 -2.765245
v 10.498368 0.424789 -3.656751
v 10.155550 0.424789 -4.522606
v 9.741483 0.424789 -5.356739
v 9.259069 0.424789 -6.153300
v 8.711694 0.424789 -6.906696
v 8.103196 0.424789 -7.611649
v 7.437843 0.424789 -8.263213
v 6.720301 0.424789 -8.856814
v 5.955605 0.424789 -9.388292
v 5.149117 0.424789 -9.853918
v 4.306495 0.424789 -10.250426
v 3.433650 0.424789 -10.575035
v 2.536704 0.424789 -10.825466
v 1.621948 0.424789 -10.999965
v 0.695797 0.424789 -11.097308
v -0.235250 0.424789 -11.116811
v -1.164664 0.424789 -11.058338
v -2.085926 0.424789 -10.922295
v -2.992573 0.424789 -10.709645
v -3.878245 0.424789 -10.421872
v -4.736732 0.424789 -10.060999
v -5.562010 0.424789 -9.629554
v -6.348294 0.424789 -9.130565
v -7.090062 0.424789 -8.567530
v -7.782118 0.424789 -7.944402
v -8.419603 0.424789 -7.265547
v -8.998047 0.424789 -6.535732
v -9.513395 0.424789 -5.760073
v -9.962030 0.424789 -4.944010
v -10.340803 0.424789 -4.093270
v -10.647062 0.424789 -3.213818
v -10.878652 0.424789 -2.311823
v -11.033957 0.424789 -1.393613
v -11.111881 0.424789 -0.465627
v -11.111881 0.424789 0.465624
v -11.033957 0.424789 1.393610
v -10.878652 0.424789 2.311820
v -10.647062 0.424789 3.213815
v -10.340803 0.424789 4.093266
v -9.962030 0.424789 4.944008
v -9.513395 0.424789 5.760069
v -8.998050 0.424789 6.535728
v -8.419606 0.424789 7.265545
v -7.782121 0.424789 7.944399
v -7.090066 0.424789 8.567527
v -6.348295 0.424789 9.130559
v -5.562013 0.424789 9.629550
v -4.736734 0.424789 10.060996
v -3.878248 0.424789 10.421871
v -2.992575 0.424789 10.709644
v -2.085928 0.424789 10.922295
v -1.164667 0.424789 11.058336
v -0.235253 0.424789 11.116811
v 0.695795 0.424789 11.097309
v 1.621945 0.424789 10.999965
v 2.536702 0.424789 10.825468
v 3.433649 0.424789 10.575035
v 4.306494 0.424789 10.250426
v 5.149116 0.424789 9.853918
v 5.955602 0.424789 9.388293
v 6.720300 0.424789 8.856813
v 7.437843 0.424789 8.263213
v 8.103197 0.424789 7.611649
v 8.711696 0.424789 6.906696
v 9.259073 0.424789 6.153298
v 9.741485 0.424789 5.356739
v 10.155551 0.424789 4.522606
v 10.498371 0.424789 3.656751
v 10.767529 0.424789 2.765245
v 10.961148 0.424789 1.854343
v 11.077867 0.424789 0.930434
v 11.116862 0.424789 -0.000000
v 5.656989 1.203623 -0.475031
v 5.597400 1.203623 -0.946729
v 5.498548 1.203623 -1.411787
v 5.361129 1.203623 -1.866943
v 5.186105 1.203623 -2.309003
v 4.974704 1.203623 -2.734867
v 4.728409 1.203623 -3.141548
v 4.448948 1.203623 -3.526193
v 4.138281 1.203623 -3.886104
v 3.798587 1.203623 -4.218758
v 3.432248 1.203623 -4.521820
v 3.041835 1.203623 -4.793164
v 2.630085 1.203623 -5.030888
v 2.199887 1.203623 -5.233323
v 1.754259 1.203623 -5.399051
v 1.296325 1.203623 -5.526908
v 0.829299 1.203623 -5.615998
v 0.356456 1.203623 -5.665697
v -0.118887 1.203623 -5.675653
v -0.593397 1.203623 -5.645800
v -1.063744 1.203623 -5.576345
v -1.526630 1.203623 -5.467776
v -1.978807 1.203623 -5.320855
v -2.417105 1.203623 -5.136612
v -2.838449 1.203623 -4.916339
v -3.239883 1.203623 -4.661581
v -3.618591 1.203623 -4.374126
v -3.971918 1.203623 -4.055990
v -4.297384 1.203623 -3.709403
v -4.592708 1.203623 -3.336798
v -4.855817 1.203623 -2.940787
v -5.084865 1.203623 -2.524149
v -5.278247 1.203623 -2.089806
v -5.434606 1.203623 -1.640805
v -5.552845 1.203623 -1.180294
v -5.632135 1.203623 -0.711505
v -5.671919 1.203623 -0.237724
v -5.671919 1.203623 0.237723
v -5.632135 1.203623 0.711503
v -5.552845 1.203623 1.180293
v -5.434606 1.203623 1.640804
v -5.278247 1.203623 2.089805
v -5.084865 1.203623 2.524148
v -4.855817 1.203623 2.940786
v -4.592708 1.203623 3.336797
v -4.297385 1.203623 3.709402
v -3.971919 1.203623 4.055988
v -3.618592 1.203623 4.374125
v -3.239884 1.203623 4.661580
v -2.838450 1.203623 4.916338
v -2.417107 1.203623 5.136611
v -1.978809 1.203623 5.320855
v -1.526631 1.203623 5.467776
v -1.063746 1.203623 5.576345
v -0.593398 1.203623 5.645800
v -0.118889 1.203623 5.675654
v 0.356455 1.203623 5.665697
v 0.829298 1.203623 5.615999
v 1.296324 1.203623 5.526909
v 1.754258 1.203623 5.399052
v 2.199886 1.203623 5.233324
v 2.630085 1.203623 5.030888
v 3.041834 1.203623 4.793165
v 3.432248 1.203623 4.521820
v 3.798587 1.203623 4.218758
v 4.138282 1.203623 3.886105
v 4.448949 1.203623 3.526193
v 4.728410 1.203623 3.141548
v 4.974705 1.203623 2.734867
v 5.186106 1.203623 2.309003
v 5.361130 1.203623 1.866943
v 5.498549 1.203623 1.411787
v 5.597400 1.203623 0.946729
v 5.656990 1.203623 0.475031
v 5.676900 1.203623 0.000000
v 11.356038 0.006231 -0.953804
v 11.236391 0.006231 -1.900918
v -0.003013 0.006231 -0.000000
v 11.037910 0.006231 -2.834698
v 10.761989 0.006231 -3.748596
v 10.410561 0.006231 -4.636198
v 9.986093 0.006231 -5.491282
v 9.491565 0.006231 -6.307849
v 8.930441 0.006231 -7.080168
v 8.306659 0.006231 -7.802828
v 7.624593 0.006231 -8.470756
v 6.889029 0.006231 -9.079267
v 6.105127 0.006231 -9.624094
v 5.278382 0.006231 -10.101415
v 4.414597 0.006231 -10.507881
v 3.519829 0.006231 -10.840643
v 2.600355 0.006231 -11.097365
v 1.662623 0.006231 -11.276246
v 0.713211 0.006231 -11.376033
v -0.241221 0.006231 -11.396025
v -1.193979 0.006231 -11.336086
v -2.138379 0.006231 -11.196628
v -3.067799 0.006231 -10.978635
v -3.975716 0.006231 -10.683635
v -4.855764 0.006231 -10.313696
v -5.701771 0.006231 -9.871415
v -6.507803 0.006231 -9.359893
v -7.268201 0.006231 -8.782718
v -7.977641 0.006231 -8.143937
v -8.631136 0.006231 -7.448033
v -9.224110 0.006231 -6.699887
v -9.752402 0.006231 -5.904745
v -10.212305 0.006231 -5.068187
v -10.600592 0.006231 -4.196079
v -10.914541 0.006231 -3.294538
v -11.151950 0.006231 -2.369888
v -11.311154 0.006231 -1.428616
v -11.391036 0.006231 -0.477322
v -11.391036 0.006231 0.477319
v -11.311154 0.006231 1.428612
v -11.151950 0.006231 2.369885
v -10.914541 0.006231 3.294535
v -10.600592 0.006231 4.196075
v -10.212305 0.006231 5.068184
v -9.752402 0.006231 5.904743
v -9.224111 0.006231 6.699884
v -8.631140 0.006231 7.448029
v -7.977642 0.006231 8.143935
v -7.268205 0.006231 8.782714
v -6.507804 0.006231 9.359888
v -5.701774 0.006231 9.871412
v -4.855768 0.006231 10.313695
v -3.975720 0.006231 10.683632
v -3.067801 0.006231 10.978634
v -2.138382 0.006231 11.196628
v -1.193982 0.006231 11.336083
v -0.241224 0.006231 11.396025
v 0.713208 0.006231 11.376034
v 1.662620 0.006231 11.276246
v 2.600353 0.006231 11.097366
v 3.519827 0.006231 10.840645
v 4.414596 0.006231 10.507881
v 5.278382 0.006231 10.101415
v 6.105125 0.006231 9.624095
v 6.889029 0.006231 9.079267
v 7.624593 0.006231 8.470756
v 8.306659 0.006231 7.802828
v 8.930443 0.006231 7.080168
v 9.491565 0.006231 6.307847
v 9.986096 0.006231 5.491282
v 10.410564 0.006231 4.636198
v 10.761991 0.006231 3.748596
v 11.037911 0.006231 2.834698
v 11.236392 0.006231 1.900918
v 11.356045 0.006231 0.953804
v 11.396017 0.006231 -0.000000
v 5.656989 42.175727 -0.475031
v 5.597400 42.175727 -0.946729
v 5.498548 42.175727 -1.411787
v 5.361129 42.175727 -1.866943
v 5.186105 42.175727 -2.309003
v 4.974704 42.175727 -2.734867
v 4.728409 42.175727 -3.141548
v 4.448948 42.175727 -3.526193
v 4.138281 42.175727 -3.886104
v 3.798587 42.175727 -4.218758
v 3.432248 42.175727 -4.521820
v 3.041835 42.175727 -4.793164
v 2.630085 42.175727 -5.030888
v 2.199887 42.175727 -5.233323
v 1.754259 42.175727 -5.399051
v 1.296325 42.175727 -5.526908
v 0.829299 42.175727 -5.615998
v 0.356456 42.175727 -5.665697
v -0.118887 42.175727 -5.675653
v -0.593397 42.175727 -5.645800
v -1.063744 42.175727 -5.576345
v -1.526630 42.175727 -5.467776
v -1.978807 42.175727 -5.320855
v -2.417105 42.175727 -5.136612
v -2.838449 42.175727 -4.916339
v -3.239883 42.175727 -4.661581
v -3.618591 42.175727 -4.374126
v -3.971918 42.175727 -4.055990
v -4.297384 42.175727 -3.709403
v -4.592708 42.175727 -3.336798
v -4.855817 42.175727 -2.940787
v -5.084865 42.175727 -2.524149
v -5.278247 42.175727 -2.089806
v -5.434606 42.175727 -1.640805
v -5.552845 42.175727 -1.180294
v -5.632135 42.175727 -0.711505
v -5.671919 42.175727 -0.237724
v -5.671919 42.175727 0.237723
v -5.632135 42.175727 0.711503
v -5.552845 42.175727 1.180293
v -5.434606 42.175727 1.640804
v -5.278247 42.175727 2.089805
v -5.084865 42.175727 2.524148
v -4.855817 42.175727 2.940786
v -4.592708 42.175727 3.336797
v -4.297385 42.175727 3.709402
v -3.971919 42.175727 4.055988
v -3.618592 42.175727 4.374125
v -3.239884 42.175727 4.661580
v -2.838450 42.175727 4.916338
v -2.417107 42.175727 5.136611
v -1.978809 42.175727 5.320855
v -1.526631 42.175727 5.467776
v -1.063746 42.175727 5.576345
v -0.593398 42.175727 5.645800
v -0.118889 42.175727 5.675654
v 0.356455 42.175727 5.665697
v 0.829298 42.175727 5.615999
v 1.296324 42.175727 5.526909
v 1.754258 42.175727 5.399052
v 2.199886 42.175727 5.233324
v 2.630085 42.175727 5.030888
v 3.041834 42.175727 4.793165
v 3.432248 42.175727 4.521820
v 3.798587 42.175727 4.218758
v 4.138282 42.175727 3.886105
v 4.448949 42.175727 3.526193
v 4.728410 42.175727 3.141548
v 4.974705 42.175727 2.734867
v 5.186106 42.175727 2.309003
v 5.361130 42.175727 1.866943
v 5.498549 42.175727 1.411787
v 5.597400 42.175727 0.946729
v 5.656990 42.175727 0.475031
v 5.676900 42.175727 0.000000
v 4.778687 42.175727 -0.401245
v 4.728354 42.175727 -0.799676
v 4.644857 42.175727 -1.192497
v 4.528782 42.175727 -1.576954
v 4.380944 42.175727 -1.950350
v 4.202380 42.175727 -2.310065
v 3.994342 42.175727 -2.653577
v 3.758289 42.175727 -2.978476
v 3.495877 42.175727 -3.282483
v 3.208946 42.175727 -3.563467
v 2.899511 42.175727 -3.819455
v 2.569739 42.175727 -4.048651
v 2.221946 42.175727 -4.249450
v 1.858570 42.175727 -4.420441
v 1.482160 42.175727 -4.560427
v 1.095357 42.175727 -4.668425
v 0.700873 42.175727 -4.743676
v 0.301475 42.175727 -4.785655
v -0.100034 42.175727 -4.794065
v -0.500839 42.175727 -4.768849
v -0.898128 42.175727 -4.710182
v -1.289115 42.175727 -4.618477
v -1.671056 42.175727 -4.494377
v -2.041274 42.175727 -4.338752
v -2.397171 42.175727 -4.152694
v -2.736251 42.175727 -3.937507
v -3.056136 42.175727 -3.694702
v -3.354580 42.175727 -3.425981
v -3.629493 42.175727 -3.133229
v -3.878944 42.175727 -2.818500
v -4.101185 42.175727 -2.484001
v -4.294656 42.175727 -2.132078
v -4.458000 42.175727 -1.765201
v -4.590073 42.175727 -1.385942
v -4.689946 42.175727 -0.996961
v -4.756919 42.175727 -0.600988
v -4.790524 42.175727 -0.200799
v -4.790524 42.175727 0.200798
v -4.756919 42.175727 0.600987
v -4.689946 42.175727 0.996960
v -4.590073 42.175727 1.385941
v -4.458000 42.175727 1.765200
v -4.294656 42.175727 2.132077
v -4.101185 42.175727 2.484000
v -3.878945 42.175727 2.818499
v -3.629494 42.175727 3.133228
v -3.354581 42.175727 3.425980
v -3.056136 42.175727 3.694701
v -2.736253 42.175727 3.937506
v -2.397173 42.175727 4.152693
v -2.041276 42.175727 4.338752
v -1.671057 42.175727 4.494377
v -1.289116 42.175727 4.618478
v -0.898129 42.175727 4.710183
v -0.500840 42.175727 4.768849
v -0.100035 42.175727 4.794066
v 0.301474 42.175727 4.785656
v 0.700872 42.175727 4.743678
v 1.095356 42.175727 4.668426
v 1.482159 42.175727 4.560428
v 1.858569 42.175727 4.420442
v 2.221945 42.175727 4.249450
v 2.569739 42.175727 4.048652
v 2.899510 42.175727 3.819455
v 3.208946 42.175727 3.563467
v 3.495877 42.175727 3.282484
v 3.758289 42.175727 2.978477
v 3.994342 42.175727 2.653577
v 4.202380 42.175727 2.310066
v 4.380945 42.175727 1.950350
v 4.528782 42.175727 1.576954
v 4.644857 42.175727 1.192497
v 4.728354 42.175727 0.799676
v 4.778687 42.175727 0.401245
v 4.795504 42.175727 0.000000
v 4.778687 0.271052 -0.401245
v 4.728354 0.271052 -0.799676
v 0.000655 0.271052 0.000000
v 4.644857 0.271052 -1.192497
v 4.528782 0.271052 -1.576954
v 4.380944 0.271052 -1.950350
v 4.202380 0.271052 -2.310065
v 3.994341 0.271052 -2.653577
v 3.758289 0.271052 -2.978476
v 3.495877 0.271052 -3.282483
v 3.208946 0.271052 -3.563467
v 2.899511 0.271052 -3.819455
v 2.569739 0.271052 -4.048651
v 2.221946 0.271052 -4.249450
v 1.858570 0.271052 -4.420441
v 1.482160 0.271052 -4.560427
v 1.095357 0.271052 -4.668425
v 0.700873 0.271052 -4.743676
v 0.301475 0.271052 -4.785655
v -0.100034 0.271052 -4.794065
v -0.500839 0.271052 -4.768849
v -0.898128 0.271052 -4.710182
v -1.289115 0.271052 -4.618477
v -1.671056 0.271052 -4.494377
v -2.041274 0.271052 -4.338752
v -2.397171 0.271052 -4.152694
v -2.736251 0.271052 -3.937507
v -3.056136 0.271052 -3.694702
v -3.354581 0.271052 -3.425981
v -3.629493 0.271052 -3.133229
v -3.878944 0.271052 -2.818500
v -4.101185 0.271052 -2.484001
v -4.294656 0.271052 -2.132078
v -4.458000 0.271052 -1.765201
v -4.590073 0.271052 -1.385942
v -4.689946 0.271052 -0.996961
v -4.756919 0.271052 -0.600988
v -4.790524 0.271052 -0.200799
v -4.790524 0.271052 0.200798
v -4.756919 0.271052 0.600987
v -4.689946 0.271052 0.996960
v -4.590073 0.271052 1.385941
v -4.458000 0.271052 1.765200
v -4.294656 0.271052 2.132077
v -4.101185 0.271052 2.484000
v -3.878945 0.271052 2.818499
v -3.629494 0.271052 3.133228
v -3.354581 0.271052 3.425980
v -3.056137 0.271052 3.694701
v -2.736253 0.271052 3.937506
v -2.397173 0.271052 4.152693
v -2.041276 0.271052 4.338752
v -1.671058 0.271052 4.494377
v -1.289116 0.271052 4.618478
v -0.898129 0.271052 4.710182
v -0.500840 0.271052 4.768849
v -0.100035 0.271052 4.794066
v 0.301474 0.271052 4.785656
v 0.700872 0.271052 4.743678
v 1.095356 0.271052 4.668426
v 1.482159 0.271052 4.560428
v 1.858569 0.271052 4.420442
v 2.221945 0.271052 4.249450
v 2.569739 0.271052 4.048652
v 2.899510 0.271052 3.819455
v 3.208946 0.271052 3.563467
v 3.495877 0.271052 3.282484
v 3.758289 0.271052 2.978477
v 3.994342 0.271052 2.653577
v 4.202380 0.271052 2.310066
v 4.380945 0.271052 1.950350
v 4.528783 0.271052 1.576954
v 4.644857 0.271052 1.192497
v 4.728354 0.271052 0.799676
v 4.778687 0.271052 0.401245
v 4.795504 0.271052 0.000000
vt 0.655702 0.143175
vt 0.654062 0.130192
vt 0.651341 0.117392
vt 0.647559 0.104865
vt 0.642741 0.092697
vt 0.636923 0.080976
vt 0.630144 0.069783
vt 0.622452 0.059196
vt 0.613901 0.049290
vt 0.604552 0.040134
vt 0.594469 0.031792
vt 0.583723 0.024324
vt 0.572390 0.017781
vt 0.560549 0.012209
vt 0.548284 0.007647
vt 0.535680 0.004128
vt 0.522825 0.001676
vt 0.509811 0.000308
vt 0.496728 0.000034
vt 0.483667 0.000856
vt 0.470722 0.002768
vt 0.457981 0.005756
vt 0.445536 0.009800
vt 0.433472 0.014871
vt 0.421875 0.020934
vt 0.410826 0.027945
vt 0.400403 0.035857
vt 0.390678 0.044614
vt 0.381720 0.054153
vt 0.373591 0.064409
vt 0.366349 0.075308
vt 0.360045 0.086776
vt 0.354722 0.098731
vt 0.350419 0.111089
vt 0.347164 0.123764
vt 0.344982 0.136667
vt 0.343887 0.149707
vt 0.343887 0.162793
vt 0.344982 0.175833
vt 0.347164 0.188736
vt 0.350419 0.201411
vt 0.354722 0.213769
vt 0.360045 0.225724
vt 0.366349 0.237192
vt 0.373591 0.248091
vt 0.381720 0.258347
vt 0.390678 0.267886
vt 0.400402 0.276643
vt 0.410826 0.284555
vt 0.421875 0.291566
vt 0.433472 0.297629
vt 0.445536 0.302700
vt 0.457981 0.306744
vt 0.470722 0.309732
vt 0.483667 0.311644
vt 0.496728 0.312466
vt 0.509811 0.312192
vt 0.522825 0.310824
vt 0.535680 0.308372
vt 0.548284 0.304853
vt 0.560549 0.300291
vt 0.572390 0.294719
vt 0.583723 0.288176
vt 0.594469 0.280708
vt 0.604552 0.272366
vt 0.613901 0.263210
vt 0.622452 0.253304
vt 0.630144 0.242717
vt 0.636923 0.231524
vt 0.642741 0.219803
vt 0.647559 0.207635
vt 0.651341 0.195108
vt 0.654062 0.182308
vt 0.655702 0.169325
vt 0.656250 0.156250
vt 0.375000 0.312500
vt 0.378333 0.312500
vt 0.381667 0.312500
vt 0.385000 0.312500
vt 0.388333 0.312500
vt 0.391667 0.312500
vt 0.395000 0.312500
vt 0.398333 0.312500
vt 0.401667 0.312500
vt 0.405000 0.312500
vt 0.408333 0.312500
vt 0.411667 0.312500
vt 0.415000 0.312500
vt 0.418333 0.312500
vt 0.421667 0.312500
vt 0.425000 0.312500
vt 0.428333 0.312500
vt 0.431667 0.312500
vt 0.435000 0.312500
vt 0.438333 0.312500
vt 0.441667 0.312500
vt 0.445000 0.312500
vt 0.448333 0.312500
vt 0.451667 0.312500
vt 0.455000 0.312500
vt 0.458333 0.312500
vt 0.461667 0.312500
vt 0.465000 0.312500
vt 0.468333 0.312500
vt 0.471667 0.312500
vt 0.475000 0.312500
vt 0.478333 0.312500
vt 0.481667 0.312500
vt 0.485000 0.312500
vt 0.488333 0.312500
vt 0.491667 0.312500
vt 0.495000 0.312500
vt 0.498333 0.312500
vt 0.501667 0.312500
vt 0.505000 0.312500
vt 0.508333 0.312500
vt 0.511667 0.312500
vt 0.515000 0.312500
vt 0.518333 0.312500
vt 0.521667 0.312500
vt 0.525000 0.312500
vt 0.528333 0.312500
vt 0.531667 0.312500
vt 0.535000 0.312500
vt 0.538333 0.312500
vt 0.541667 0.312500
vt 0.545000 0.312500
vt 0.548333 0.312500
vt 0.551666 0.312500
vt 0.555000 0.312500
vt 0.558333 0.312500
vt 0.561666 0.312500
vt 0.565000 0.312500
vt 0.568333 0.312500
vt 0.571666 0.312500
vt 0.575000 0.312500
vt 0.578333 0.312500
vt 0.581666 0.312500
vt 0.585000 0.312500
vt 0.588333 0.312500
vt 0.591666 0.312500
vt 0.595000 0.312500
vt 0.598333 0.312500
vt 0.601666 0.312500
vt 0.605000 0.312500
vt 0.608333 0.312500
vt 0.611666 0.312500
vt 0.615000 0.312500
vt 0.618333 0.312500
vt 0.621666 0.312500
vt 0.625000 0.312500
vt 0.375000 0.687500
vt 0.378333 0.687500
vt 0.381667 0.687500
vt 0.385000 0.687500
vt 0.388333 0.687500
vt 0.391667 0.687500
vt 0.395000 0.687500
vt 0.398333 0.687500
vt 0.401667 0.687500
vt 0.405000 0.687500
vt 0.408333 0.687500
vt 0.411667 0.687500
vt 0.415000 0.687500
vt 0.418333 0.687500
vt 0.421667 0.687500
vt 0.425000 0.687500
vt 0.428333 0.687500
vt 0.431667 0.687500
vt 0.435000 0.687500
vt 0.438333 0.687500
vt 0.441667 0.687500
vt 0.445000 0.687500
vt 0.448333 0.687500
vt 0.451667 0.687500
vt 0.455000 0.687500
vt 0.458333 0.687500
vt 0.461667 0.687500
vt 0.465000 0.687500
vt 0.468333 0.687500
vt 0.471667 0.687500
vt 0.475000 0.687500
vt 0.478333 0.687500
vt 0.481667 0.687500
vt 0.485000 0.687500
vt 0.488333 0.687500
vt 0.491667 0.687500
vt 0.495000 0.687500
vt 0.498333 0.687500
vt 0.501667 0.687500
vt 0.505000 0.687500
vt 0.508333 0.687500
vt 0.511667 0.687500
vt 0.515000 0.687500
vt 0.518333 0.687500
vt 0.521667 0.687500
vt 0.525000 0.687500
vt 0.528333 0.687500
vt 0.531667 0.687500
vt 0.535000 0.687500
vt 0.538333 0.687500
vt 0.541667 0.687500
vt 0.545000 0.687500
vt 0.548333 0.687500
vt 0.551666 0.687500
vt 0.555000 0.687500
vt 0.558333 0.687500
vt 0.561666 0.687500
vt 0.565000 0.687500
vt 0.568333 0.687500
vt 0.571666 0.687500
vt 0.575000 0.687500
vt 0.578333 0.687500
vt 0.581666 0.687500
vt 0.585000 0.687500
vt 0.588333 0.687500
vt 0.591666 0.687500
vt 0.595000 0.687500
vt 0.598333 0.687500
vt 0.601666 0.687500
vt 0.605000 0.687500
vt 0.608333 0.687500
vt 0.611666 0.687500
vt 0.615000 0.687500
vt 0.618333 0.687500
vt 0.621666 0.687500
vt 0.625000 0.687500
vt 0.655702 0.830675
vt 0.654062 0.817692
vt 0.651341 0.804892
vt 0.647559 0.792365
vt 0.642741 0.780197
vt 0.636923 0.768476
vt 0.630144 0.757283
vt 0.622452 0.746696
vt 0.613901 0.736790
vt 0.604552 0.727634
vt 0.594469 0.719292
vt 0.583723 0.711824
vt 0.572390 0.705281
vt 0.560549 0.699709
vt 0.548284 0.695147
vt 0.535680 0.691628
vt 0.522825 0.689176
vt 0.509811 0.687808
vt 0.496728 0.687534
vt 0.483667 0.688356
vt 0.470722 0.690268
vt 0.457981 0.693256
vt 0.445536 0.697300
vt 0.433472 0.702371
vt 0.421875 0.708434
vt 0.410826 0.715445
vt 0.400403 0.723357
vt 0.390678 0.732114
vt 0.381720 0.741653
vt 0.373591 0.751909
vt 0.366349 0.762808
vt 0.360045 0.774276
vt 0.354722 0.786231
vt 0.350419 0.798589
vt 0.347164 0.811264
vt 0.344982 0.824167
vt 0.343887 0.837207
vt 0.343887 0.850293
vt 0.344982 0.863333
vt 0.347164 0.876236
vt 0.350419 0.888911
vt 0.354722 0.901269
vt 0.360045 0.913224
vt 0.366349 0.924692
vt 0.373591 0.935591
vt 0.381720 0.945847
vt 0.390678 0.955386
vt 0.400402 0.964143
vt 0.410826 0.972055
vt 0.421875 0.979066
vt 0.433472 0.985129
vt 0.445536 0.990200
vt 0.457981 0.994244
vt 0.470722 0.997232
vt 0.483667 0.999144
vt 0.496728 0.999966
vt 0.509811 0.999692
vt 0.522825 0.998324
vt 0.535680 0.995872
vt 0.548284 0.992353
vt 0.560549 0.987791
vt 0.572390 0.982219
vt 0.583723 0.975676
vt 0.594469 0.968208
vt 0.604552 0.959866
vt 0.613901 0.950710
vt 0.622452 0.940804
vt 0.630144 0.930217
vt 0.636923 0.919024
vt 0.642741 0.907303
vt 0.647559 0.895135
vt 0.651341 0.882608
vt 0.654062 0.869808
vt 0.655702 0.856825
vt 0.656250 0.843750
vt 0.500000 0.156250
vt 0.500000 0.843750
vt 0.654062 0.130192
vt 0.655702 0.143175
vt 0.651341 0.117392
vt 0.647559 0.104865
vt 0.642741 0.092697
vt 0.636923 0.080976
vt 0.630144 0.069783
vt 0.622452 0.059196
vt 0.613901 0.049290
vt 0.604552 0.040134
vt 0.594469 0.031792
vt 0.583723 0.024324
vt 0.572390 0.017781
vt 0.560549 0.012209
vt 0.548284 0.007647
vt 0.535680 0.004128
vt 0.522825 0.001676
vt 0.509811 0.000308
vt 0.496728 0.000034
vt 0.483667 0.000856
vt 0.470722 0.002768
vt 0.457981 0.005756
vt 0.445536 0.009800
vt 0.433472 0.014871
vt 0.421875 0.020934
vt 0.410826 0.027945
vt 0.400403 0.035857
vt 0.390678 0.044614
vt 0.381720 0.054153
vt 0.373591 0.064409
vt 0.366349 0.075308
vt 0.360045 0.086776
vt 0.354722 0.098731
vt 0.350419 0.111089
vt 0.347164 0.123764
vt 0.344982 0.136667
vt 0.343887 0.149707
vt 0.343887 0.162793
vt 0.344982 0.175833
vt 0.347164 0.188736
vt 0.350419 0.201411
vt 0.354722 0.213769
vt 0.360045 0.225724
vt 0.366349 0.237192
vt 0.373591 0.248091
vt 0.381720 0.258347
vt 0.390678 0.267886
vt 0.400402 0.276643
vt 0.410826 0.284555
vt 0.421875 0.291566
vt 0.433472 0.297629
vt 0.445536 0.302700
vt 0.457981 0.306744
vt 0.470722 0.309732
vt 0.483667 0.311644
vt 0.496728 0.312466
vt 0.509811 0.312192
vt 0.522825 0.310824
vt 0.535680 0.308372
vt 0.548284 0.304853
vt 0.560549 0.300291
vt 0.572390 0.294719
vt 0.583723 0.288176
vt 0.594469 0.280708
vt 0.604552 0.272366
vt 0.613901 0.263210
vt 0.622452 0.253304
vt 0.630144 0.242717
vt 0.636923 0.231524
vt 0.642741 0.219803
vt 0.647559 0.207635
vt 0.651341 0.195108
vt 0.654062 0.182308
vt 0.655702 0.169325
vt 0.656250 0.156250
vt 0.655702 0.856825
vt 0.654062 0.869808
vt 0.651341 0.882608
vt 0.647559 0.895135
vt 0.642741 0.907303
vt 0.636923 0.919024
vt 0.630144 0.930217
vt 0.622452 0.940804
vt 0.613901 0.950710
vt 0.604552 0.959866
vt 0.594469 0.968208
vt 0.583723 0.975676
vt 0.572390 0.982219
vt 0.560549 0.987791
vt 0.548284 0.992353
vt 0.535680 0.995872
vt 0.522825 0.998324
vt 0.509811 0.999692
vt 0.496728 0.999966
vt 0.483667 0.999144
vt 0.470722 0.997232
vt 0.457981 0.994244
vt 0.445536 0.990200
vt 0.433472 0.985129
vt 0.421875 0.979066
vt 0.410826 0.972055
vt 0.400402 0.964143
vt 0.390678 0.955386
vt 0.381720 0.945847
vt 0.373591 0.935591
vt 0.366349 0.924692
vt 0.360045 0.913224
vt 0.354722 0.901269
vt 0.350419 0.888911
vt 0.347164 0.876236
vt 0.344982 0.863333
vt 0.343887 0.850293
vt 0.343887 0.837207
vt 0.344982 0.824167
vt 0.347164 0.811264
vt 0.350419 0.798589
vt 0.354722 0.786231
vt 0.360045 0.774276
vt 0.366349 0.762808
vt 0.373591 0.751909
vt 0.381720 0.741653
vt 0.390678 0.732114
vt 0.400403 0.723357
vt 0.410826 0.715445
vt 0.421875 0.708434
vt 0.433472 0.702371
vt 0.445536 0.697300
vt 0.457981 0.693256
vt 0.470722 0.690268
vt 0.483667 0.688356
vt 0.496728 0.687534
vt 0.509811 0.687808
vt 0.522825 0.689176
vt 0.535680 0.691628
vt 0.548284 0.695147
vt 0.560549 0.699709
vt 0.572390 0.705281
vt 0.583723 0.711824
vt 0.594469 0.719292
vt 0.604552 0.727634
vt 0.613901 0.736790
vt 0.622452 0.746696
vt 0.630144 0.757283
vt 0.636923 0.768476
vt 0.642741 0.780197
vt 0.647559 0.792365
vt 0.651341 0.804892
vt 0.654062 0.817692
vt 0.655702 0.830675
vt 0.656250 0.843750
vt 0.655702 0.856825
vt 0.654062 0.869808
vt 0.651341 0.882608
vt 0.647559 0.895135
vt 0.642741 0.907303
vt 0.636923 0.919024
vt 0.630144 0.930217
vt 0.622452 0.940804
vt 0.613901 0.950710
vt 0.604552 0.959866
vt 0.594469 0.968208
vt 0.583723 0.975676
vt 0.572390 0.982219
vt 0.560549 0.987791
vt 0.548284 0.992353
vt 0.535680 0.995872
vt 0.522825 0.998324
vt 0.509811 0.999692
vt 0.496728 0.999966
vt 0.483667 0.999144
vt 0.470722 0.997232
vt 0.457981 0.994244
vt 0.445536 0.990200
vt 0.433472 0.985129
vt 0.421875 0.979066
vt 0.410826 0.972055
vt 0.400402 0.964143
vt 0.390678 0.955386
vt 0.381720 0.945847
vt 0.373591 0.935591
vt 0.366349 0.924692
vt 0.360045 0.913224
vt 0.354722 0.901269
vt 0.350419 0.888911
vt 0.347164 0.876236
vt 0.344982 0.863333
vt 0.343887 0.850293
vt 0.343887 0.837207
vt 0.344982 0.824167
vt 0.347164 0.811264
vt 0.350419 0.798589
vt 0.354722 0.786231
vt 0.360045 0.774276
vt 0.366349 0.762808
vt 0.373591 0.751909
vt 0.381720 0.741653
vt 0.390678 0.732114
vt 0.400403 0.723357
vt 0.410826 0.715445
vt 0.421875 0.708434
vt 0.433472 0.702371
vt 0.445536 0.697300
vt 0.457981 0.693256
vt 0.470722 0.690268
vt 0.483667 0.688356
vt 0.496728 0.687534
vt 0.509811 0.687808
vt 0.522825 0.689176
vt 0.535680 0.691628
vt 0.548284 0.695147
vt 0.560549 0.699709
vt 0.572390 0.705281
vt 0.583723 0.711824
vt 0.594469 0.719292
vt 0.604552 0.727634
vt 0.613901 0.736790
vt 0.622452 0.746696
vt 0.630144 0.757283
vt 0.636923 0.768476
vt 0.642741 0.780197
vt 0.647559 0.792365
vt 0.651341 0.804892
vt 0.654062 0.817692
vt 0.655702 0.830675
vt 0.656250 0.843750
vt 0.655702 0.856825
vt 0.654062 0.869808
vt 0.651341 0.882608
vt 0.647559 0.895135
vt 0.642741 0.907303
vt 0.636923 0.919024
vt 0.630144 0.930217
vt 0.622452 0.940804
vt 0.613901 0.950710
vt 0.604552 0.959866
vt 0.594469 0.968208
vt 0.583723 0.975676
vt 0.572390 0.982219
vt 0.560549 0.987791
vt 0.548284 0.992353
vt 0.535680 0.995872
vt 0.522825 0.998324
vt 0.509811 0.999692
vt 0.496728 0.999966
vt 0.483667 0.999144
vt 0.470722 0.997232
vt 0.457981 0.994244
vt 0.445536 0.990200
vt 0.433472 0.985129
vt 0.421875 0.979066
vt 0.410826 0.972055
vt 0.400402 0.964143
vt 0.390678 0.955386
vt 0.381720 0.945847
vt 0.373591 0.935591
vt 0.366349 0.924692
vt 0.360045 0.913224
vt 0.354722 0.901269
vt 0.350419 0.888911
vt 0.347164 0.876236
vt 0.344982 0.863333
vt 0.343887 0.850293
vt 0.343887 0.837207
vt 0.344982 0.824167
vt 0.347164 0.811264
vt 0.350419 0.798589
vt 0.354722 0.786231
vt 0.360045 0.774276
vt 0.366349 0.762808
vt 0.373591 0.751909
vt 0.381720 0.741653
vt 0.390678 0.732114
vt 0.400403 0.723357
vt 0.410826 0.715445
vt 0.421875 0.708434
vt 0.433472 0.702371
vt 0.445536 0.697300
vt 0.457981 0.693256
vt 0.470722 0.690268
vt 0.483667 0.688356
vt 0.496728 0.687534
vt 0.509811 0.687808
vt 0.522825 0.689176
vt 0.535680 0.691628
vt 0.548284 0.695147
vt 0.560549 0.699709
vt 0.572390 0.705281
vt 0.583723 0.711824
vt 0.594469 0.719292
vt 0.604552 0.727634
vt 0.613901 0.736790
vt 0.622452 0.746696
vt 0.630144 0.757283
vt 0.636923 0.768476
vt 0.642741 0.780197
vt 0.647559 0.792365
vt 0.651341 0.804892
vt 0.654062 0.817692
vt 0.655702 0.830675
vt 0.656250 0.843750
vn 0.141227 0.989906 -0.011859
vn 0.139738 0.989906 -0.023635
vn 0.139738 0.989906 -0.023635
vn 0.141227 0.989906 -0.011859
vn 0.137269 0.989906 -0.035245
vn 0.137270 0.989907 -0.035245
vn 0.133837 0.989907 -0.046608
vn 0.133838 0.989907 -0.046607
vn 0.129466 0.989907 -0.057643
vn 0.129467 0.989907 -0.057642
vn 0.124187 0.989907 -0.068273
vn 0.124187 0.989907 -0.068272
vn 0.118036 0.989908 -0.078424
vn 0.118037 0.989908 -0.078423
vn 0.111057 0.989908 -0.088024
vn 0.111058 0.989908 -0.088023
vn 0.103300 0.989909 -0.097006
vn 0.103301 0.989909 -0.097005
vn 0.094818 0.989909 -0.105307
vn 0.094819 0.989909 -0.105306
vn 0.085671 0.989910 -0.112869
vn 0.085672 0.989910 -0.112867
vn 0.075923 0.989910 -0.119638
vn 0.075925 0.989910 -0.119637
vn 0.065644 0.989911 -0.125568
vn 0.065646 0.989911 -0.125567
vn 0.054905 0.989911 -0.130616
vn 0.054907 0.989911 -0.130615
vn 0.043781 0.989912 -0.134748
vn 0.043783 0.989912 -0.134747
vn 0.032351 0.989913 -0.137934
vn 0.032353 0.989913 -0.137933
vn 0.020695 0.989914 -0.140152
vn 0.020697 0.989914 -0.140152
vn 0.008894 0.989914 -0.141387
vn 0.008897 0.989914 -0.141387
vn -0.002968 0.989915 -0.141631
vn -0.002965 0.989915 -0.141631
vn -0.014808 0.989916 -0.140880
vn -0.014806 0.989916 -0.140881
vn -0.026544 0.989917 -0.139142
vn -0.026542 0.989917 -0.139143
vn -0.038093 0.989917 -0.136428
vn -0.038090 0.989917 -0.136429
vn -0.049374 0.989918 -0.132758
vn -0.049371 0.989918 -0.132759
vn -0.060307 0.989919 -0.128157
vn -0.060305 0.989919 -0.128158
vn -0.070817 0.989919 -0.122657
vn -0.070815 0.989919 -0.122658
vn -0.080830 0.989920 -0.116297
vn -0.080828 0.989920 -0.116298
vn -0.090275 0.989921 -0.109123
vn -0.090274 0.989920 -0.109124
vn -0.099087 0.989921 -0.101183
vn -0.099086 0.989921 -0.101185
vn -0.107204 0.989921 -0.092535
vn -0.107203 0.989922 -0.092536
vn -0.114568 0.989922 -0.083238
vn -0.114568 0.989922 -0.083239
vn -0.121129 0.989922 -0.073358
vn -0.121129 0.989922 -0.073359
vn -0.126841 0.989923 -0.062964
vn -0.126840 0.989923 -0.062965
vn -0.131662 0.989923 -0.052128
vn -0.131662 0.989923 -0.052129
vn -0.135561 0.989923 -0.040928
vn -0.135561 0.989923 -0.040929
vn -0.138509 0.989924 -0.029441
vn -0.138509 0.989923 -0.029441
vn -0.140486 0.989924 -0.017747
vn -0.140486 0.989924 -0.017748
vn -0.141478 0.989924 -0.005930
vn -0.141478 0.989924 -0.005930
vn -0.141478 0.989924 0.005930
vn -0.141478 0.989924 0.005930
vn -0.140486 0.989923 0.017747
vn -0.140486 0.989924 0.017748
vn -0.138509 0.989923 0.029441
vn -0.138509 0.989923 0.029441
vn -0.135561 0.989923 0.040928
vn -0.135561 0.989923 0.040929
vn -0.131662 0.989923 0.052128
vn -0.131662 0.989923 0.052129
vn -0.126841 0.989923 0.062964
vn -0.126840 0.989923 0.062965
vn -0.121129 0.989922 0.073358
vn -0.121129 0.989922 0.073359
vn -0.114568 0.989922 0.083238
vn -0.114568 0.989922 0.083239
vn -0.107204 0.989922 0.092535
vn -0.107203 0.989922 0.092536
vn -0.099087 0.989921 0.101183
vn -0.099086 0.989921 0.101185
vn -0.090275 0.989921 0.109123
vn -0.090274 0.989920 0.109124
vn -0.080830 0.989920 0.116297
vn -0.080828 0.989920 0.116299
vn -0.070817 0.989919 0.122657
vn -0.070815 0.989919 0.122658
vn -0.060307 0.989919 0.128157
vn -0.060305 0.989919 0.128158
vn -0.049374 0.989918 0.132758
vn -0.049371 0.989918 0.132759
vn -0.038093 0.989917 0.136428
vn -0.038090 0.989917 0.136429
vn -0.026544 0.989917 0.139142
vn -0.026542 0.989917 0.139143
vn -0.014808 0.989916 0.140881
vn -0.014806 0.989916 0.140881
vn -0.002968 0.989915 0.141631
vn -0.002966 0.989915 0.141631
vn 0.008894 0.989914 0.141387
vn 0.008897 0.989914 0.141387
vn 0.020695 0.989914 0.140152
vn 0.020697 0.989914 0.140152
vn 0.032351 0.989913 0.137934
vn 0.032353 0.989913 0.137933
vn 0.043781 0.989912 0.134748
vn 0.043783 0.989912 0.134747
vn 0.054905 0.989912 0.130616
vn 0.054907 0.989912 0.130615
vn 0.065644 0.989911 0.125568
vn 0.065646 0.989911 0.125567
vn 0.075923 0.989910 0.119638
vn 0.075925 0.989910 0.119637
vn 0.085671 0.989910 0.112869
vn 0.085672 0.989910 0.112868
vn 0.094817 0.989909 0.105307
vn 0.094819 0.989909 0.105306
vn 0.103300 0.989909 0.097006
vn 0.103301 0.989909 0.097005
vn 0.111057 0.989908 0.088024
vn 0.111058 0.989908 0.088023
vn 0.118036 0.989908 0.078424
vn 0.118037 0.989908 0.078423
vn 0.124187 0.989907 0.068273
vn 0.124187 0.989907 0.068272
vn 0.129466 0.989907 0.057643
vn 0.129467 0.989907 0.057642
vn 0.133837 0.989907 0.046608
vn 0.133838 0.989907 0.046607
vn 0.137270 0.989906 0.035245
vn 0.137270 0.989907 0.035244
vn 0.139738 0.989906 0.023635
vn 0.139738 0.989906 0.023635
vn 0.141227 0.989906 0.011859
vn 0.141227 0.989906 0.011859
vn 0.141724 0.989906 -0.000000
vn 0.141724 0.989906 -0.000000
vn 0.000000 -1.000000 0.000000
vn 0.000000 -1.000000 0.000000
vn 0.000000 -1.000000 0.000000
vn 0.000000 -1.000000 0.000000
vn 0.000000 -1.000000 0.000000
vn 0.000000 -1.000000 0.000000
vn 0.000000 -1.000000 0.000000
vn 0.000000 -1.000000 -0.000000
vn 0.000000 -1.000000 -0.000000
vn 0.000000 -1.000000 0.000000
vn 0.000000 -1.000000 -0.000000
vn 0.000000 -1.000000 -0.000000
vn 0.000000 -1.000000 0.000000
vn 0.000000 -1.000000 -0.000000
vn 0.000000 -1.000000 0.000000
vn 0.000000 -1.000000 0.000000
vn 0.000000 -1.000000 0.000000
vn 0.000000 -1.000000 -0.000000
vn 0.000000 -1.000000 -0.000000
vn 0.000000 -1.000000 -0.000000
vn 0.000000 -1.000000 -0.000000
vn 0.000000 -1.000000 0.000000
vn 0.000000 -1.000000 0.000000
vn 0.000000 -1.000000 0.000000
vn 0.000000 -1.000000 0.000000
vn 0.000000 -1.000000 -0.000000
vn 0.000000 -1.000000 -0.000000
vn 0.000000 -1.000000 0.000000
vn 0.000000 -1.000000 -0.000000
vn 0.000000 -1.000000 -0.000000
vn 0.000000 -1.000000 0.000000
vn 0.000000 -1.000000 0.000000
vn 0.000000 -1.000000 0.000000
vn 0.000000 -1.000000 0.000000
vn 0.000000 -1.000000 0.000000
vn 0.000000 -1.000000 0.000000
vn 0.000000 -1.000000 -0.000000
vn 0.000000 -1.000000 -0.000000
vn 0.000000 -1.000000 0.000000
vn 0.000000 -1.000000 0.000000
vn 0.000000 -1.000000 0.000000
vn 0.000000 -1.000000 0.000000
vn 0.000000 -1.000000 0.000000
vn 0.000000 -1.000000 0.000000
vn 0.000000 -1.000000 0.000000
vn 0.000000 -1.000000 0.000000
vn 0.000000 -1.000000 0.000000
vn 0.000000 -1.000000 -0.000000
vn 0.000000 -1.000000 -0.000000
vn 0.000000 -1.000000 0.000000
vn 0.000000 -1.000000 0.000000
vn 0.000000 -1.000000 -0.000000
vn 0.000000 -1.000000 -0.000000
vn 0.000000 -1.000000 0.000000
vn 0.000000 -1.000000 0.000000
vn 0.000000 -1.000000 -0.000000
vn 0.000000 -1.000000 -0.000000
vn 0.000000 -1.000000 0.000000
vn 0.000000 -1.000000 0.000000
vn 0.000000 -1.000000 -0.000000
vn 0.000000 -1.000000 -0.000000
vn 0.000000 -1.000000 0.000000
vn 0.000000 -1.000000 0.000000
vn 0.000000 -1.000000 0.000000
vn 0.000000 -1.000000 0.000000
vn 0.000000 -1.000000 0.000000
vn 0.000000 -1.000000 0.000000
vn 0.000000 -1.000000 -0.000000
vn 0.000000 -1.000000 0.000000
vn 0.000000 -1.000000 -0.000000
vn 0.000000 -1.000000 -0.000000
vn 0.000000 -1.000000 0.000000
vn 0.000000 -1.000000 0.000000
vn 0.000000 -1.000000 0.000000
vn 0.000000 -1.000000 0.000000
vn 0.000000 -1.000000 0.000000
vn 0.000000 1.000000 0.000000
vn 0.000000 1.000000 0.000000
vn 0.000000 1.000000 0.000000
vn 0.000000 1.000000 0.000000
vn 0.000000 1.000000 0.000000
vn 0.000000 1.000000 0.000000
vn 0.000000 1.000000 0.000000
vn 0.000000 1.000000 0.000000
vn 0.000000 1.000000 0.000000
vn 0.000000 1.000000 0.000000
vn 0.000000 1.000000 0.000000
vn 0.000000 1.000000 0.000000
vn 0.000000 1.000000 0.000000
vn 0.000000 1.000000 0.000000
vn 0.000000 1.000000 0.000000
vn 0.000000 1.000000 0.000000
vn 0.000000 1.000000 0.000000
vn 0.000000 1.000000 -0.000000
vn 0.000000 1.000000 -0.000000
vn 0.000000 1.000000 0.000000
vn 0.000000 1.000000 0.000000
vn 0.000000 1.000000 0.000000
vn 0.000000 1.000000 -0.000000
vn 0.000000 1.000000 0.000000
vn 0.000000 1.000000 0.000000
vn 0.000000 1.000000 0.000000
vn 0.000000 1.000000 0.000000
vn 0.000000 1.000000 0.000000
vn 0.000000 1.000000 -0.000000
vn 0.000000 1.000000 -0.000000
vn 0.000000 1.000000 0.000000
vn 0.000000 1.000000 0.000000
vn 0.000000 1.000000 -0.000000
vn 0.000000 1.000000 0.000000
vn 0.000000 1.000000 -0.000000
vn 0.000000 1.000000 0.000000
vn 0.000000 1.000000 0.000000
vn 0.000000 1.000000 0.000000
vn 0.000000 1.000000 0.000000
vn 0.000000 1.000000 -0.000000
vn 0.000000 1.000000 -0.000000
vn 0.000000 1.000000 0.000000
vn 0.000000 1.000000 -0.000000
vn 0.000000 1.000000 0.000000
vn 0.000000 1.000000 -0.000000
vn 0.000000 1.000000 -0.000000
vn 0.000000 1.000000 0.000000
vn 0.000000 1.000000 0.000000
vn 0.000000 1.000000 0.000000
vn 0.000000 1.000000 -0.000000
vn 0.000000 1.000000 0.000000
vn 0.000000 1.000000 0.000000
vn 0.000000 1.000000 0.000000
vn 0.000000 1.000000 0.000000
vn 0.000000 1.000000 -0.000000
vn 0.000000 1.000000 -0.000000
vn 0.000000 1.000000 0.000000
vn 0.000000 1.000000 -0.000000
vn 0.000000 1.000000 -0.000000
vn 0.000000 1.000000 -0.000000
vn 0.000000 1.000000 -0.000000
vn 0.000000 1.000000 -0.000000
vn 0.000000 1.000000 -0.000000
vn 0.000000 1.000000 0.000000
vn 0.000000 1.000000 0.000000
vn 0.000000 1.000000 0.000000
vn 0.000000 1.000000 -0.000000
vn 0.000000 1.000000 -0.000000
vn 0.000000 1.000000 0.000000
vn 0.000000 1.000000 0.000000
vn 0.000000 1.000000 0.000000
vn 0.000000 1.000000 -0.000000
vn 0.000000 1.000000 0.000000
vn 0.000000 1.000000 0.000000
vn 0.000000 1.000000 0.000000
vn 0.000000 1.000000 0.000000
vn 0.825607 0.554523 -0.104297
vn 0.825607 0.554523 -0.104297
vn 0.825607 0.554523 -0.104297
vn 0.825607 0.554523 -0.104297
vn 0.813981 0.554527 -0.173018
vn 0.813981 0.554527 -0.173018
vn 0.813981 0.554527 -0.173018
vn 0.813981 0.554527 -0.173018
vn 0.796645 0.554532 -0.240520
vn 0.796645 0.554532 -0.240520
vn 0.796646 0.554532 -0.240520
vn 0.796646 0.554532 -0.240520
vn 0.773722 0.554536 -0.306340
vn 0.773722 0.554536 -0.306340
vn 0.773722 0.554536 -0.306340
vn 0.773722 0.554536 -0.306340
vn 0.745372 0.554541 -0.370006
vn 0.745372 0.554541 -0.370006
vn 0.745372 0.554541 -0.370006
vn 0.745372 0.554541 -0.370006
vn 0.711793 0.554548 -0.431076
vn 0.711793 0.554548 -0.431076
vn 0.711793 0.554548 -0.431076
vn 0.711793 0.554548 -0.431076
vn 0.673220 0.554557 -0.489124
vn 0.673220 0.554557 -0.489124
vn 0.673220 0.554557 -0.489124
vn 0.673220 0.554557 -0.489124
vn 0.629927 0.554564 -0.543737
vn 0.629927 0.554564 -0.543737
vn 0.629927 0.554564 -0.543737
vn 0.629927 0.554564 -0.543737
vn 0.582214 0.554574 -0.594537
vn 0.582214 0.554574 -0.594537
vn 0.582214 0.554574 -0.594537
vn 0.582214 0.554574 -0.594537
vn 0.530418 0.554583 -0.641166
vn 0.530418 0.554583 -0.641166
vn 0.530418 0.554583 -0.641166
vn 0.530418 0.554583 -0.641166
vn 0.474903 0.554594 -0.683295
vn 0.474903 0.554594 -0.683295
vn 0.474903 0.554594 -0.683295
vn 0.474903 0.554594 -0.683295
vn 0.416057 0.554607 -0.720631
vn 0.416057 0.554607 -0.720631
vn 0.416057 0.554607 -0.720631
vn 0.416057 0.554607 -0.720631
vn 0.354293 0.554620 -0.752910
vn 0.354293 0.554620 -0.752910
vn 0.354293 0.554620 -0.752910
vn 0.354293 0.554620 -0.752910
vn 0.290045 0.554632 -0.779908
vn 0.290045 0.554633 -0.779908
vn 0.290045 0.554632 -0.779908
vn 0.290045 0.554633 -0.779908
vn 0.223764 0.554647 -0.801434
vn 0.223764 0.554647 -0.801434
vn 0.223764 0.554647 -0.801434
vn 0.223764 0.554647 -0.801434
vn 0.155915 0.554660 -0.817339
vn 0.155915 0.554660 -0.817339
vn 0.155915 0.554660 -0.817339
vn 0.155915 0.554660 -0.817339
vn 0.086976 0.554672 -0.827511
vn 0.086976 0.554672 -0.827511
vn 0.086976 0.554672 -0.827511
vn 0.086976 0.554672 -0.827511
vn 0.017425 0.554686 -0.831877
vn 0.017425 0.554686 -0.831877
vn 0.017425 0.554686 -0.831877
vn 0.017425 0.554686 -0.831877
vn -0.052244 0.554701 -0.830408
vn -0.052244 0.554701 -0.830408
vn -0.052244 0.554701 -0.830408
vn -0.052244 0.554701 -0.830408
vn -0.121548 0.554718 -0.823113
vn -0.121548 0.554718 -0.823113
vn -0.121548 0.554718 -0.823113
vn -0.121548 0.554718 -0.823113
vn -0.189993 0.554731 -0.810047
vn -0.189993 0.554731 -0.810047
vn -0.189993 0.554731 -0.810047
vn -0.189993 0.554731 -0.810047
vn -0.257109 0.554744 -0.791299
vn -0.257109 0.554744 -0.791299
vn -0.257109 0.554744 -0.791299
vn -0.257109 0.554744 -0.791299
vn -0.322418 0.554756 -0.767002
vn -0.322418 0.554756 -0.767002
vn -0.322418 0.554756 -0.767002
vn -0.322418 0.554756 -0.767002
vn -0.385464 0.554769 -0.737326
vn -0.385464 0.554769 -0.737326
vn -0.385464 0.554769 -0.737326
vn -0.385464 0.554769 -0.737326
vn -0.445805 0.554781 -0.702478
vn -0.445805 0.554781 -0.702478
vn -0.445805 0.554781 -0.702478
vn -0.445805 0.554781 -0.702478
vn -0.503021 0.554792 -0.662703
vn -0.503021 0.554792 -0.662703
vn -0.503021 0.554792 -0.662703
vn -0.503021 0.554792 -0.662703
vn -0.556703 0.554804 -0.618284
vn -0.556703 0.554804 -0.618284
vn -0.556703 0.554804 -0.618284
vn -0.556703 0.554804 -0.618284
vn -0.606484 0.554814 -0.569525
vn -0.606484 0.554814 -0.569525
vn -0.606484 0.554814 -0.569525
vn -0.606484 0.554814 -0.569525
vn -0.652008 0.554823 -0.516775
vn -0.652008 0.554823 -0.516775
vn -0.652008 0.554823 -0.516775
vn -0.652008 0.554823 -0.516775
vn -0.692959 0.554832 -0.460402
vn -0.692959 0.554832 -0.460402
vn -0.692959 0.554832 -0.460402
vn -0.692959 0.554832 -0.460402
vn -0.729049 0.554841 -0.400799
vn -0.729049 0.554841 -0.400799
vn -0.729049 0.554841 -0.400799
vn -0.729048 0.554841 -0.400799
vn -0.760026 0.554848 -0.338385
vn -0.760026 0.554848 -0.338385
vn -0.760026 0.554848 -0.338385
vn -0.760026 0.554848 -0.338385
vn -0.785674 0.554850 -0.273601
vn -0.785674 0.554850 -0.273601
vn -0.785674 0.554850 -0.273601
vn -0.785674 0.554850 -0.273601
vn -0.805811 0.554854 -0.206895
vn -0.805811 0.554854 -0.206895
vn -0.805811 0.554854 -0.206895
vn -0.805811 0.554854 -0.206895
vn -0.820295 0.554857 -0.138743
vn -0.820295 0.554857 -0.138743
vn -0.820295 0.554857 -0.138743
vn -0.820295 0.554857 -0.138743
vn -0.829027 0.554858 -0.069615
vn -0.829027 0.554858 -0.069615
vn -0.829027 0.554858 -0.069615
vn -0.829027 0.554858 -0.069615
vn -0.831942 0.554862 0.000000
vn -0.831942 0.554862 0.000000
vn -0.831943 0.554862 0.000000
vn -0.831943 0.554862 0.000000
vn -0.829027 0.554859 0.069615
vn -0.829027 0.554859 0.069615
vn -0.829027 0.554859 0.069615
vn -0.829027 0.554859 0.069615
vn -0.820294 0.554858 0.138743
vn -0.820294 0.554858 0.138743
vn -0.820294 0.554858 0.138743
vn -0.820294 0.554858 0.138743
vn -0.805810 0.554855 0.206895
vn -0.805810 0.554855 0.206895
vn -0.805810 0.554855 0.206895
vn -0.805810 0.554855 0.206895
vn -0.785674 0.554850 0.273602
vn -0.785674 0.554850 0.273602
vn -0.785674 0.554850 0.273602
vn -0.785674 0.554850 0.273602
vn -0.760027 0.554846 0.338385
vn -0.760027 0.554846 0.338385
vn -0.760027 0.554846 0.338385
vn -0.760027 0.554846 0.338385
vn -0.729049 0.554840 0.400799
vn -0.729049 0.554841 0.400799
vn -0.729049 0.554840 0.400799
vn -0.729049 0.554841 0.400799
vn -0.692960 0.554831 0.460401
vn -0.692960 0.554831 0.460401
vn -0.692960 0.554831 0.460401
vn -0.692960 0.554831 0.460401
vn -0.652009 0.554823 0.516774
vn -0.652009 0.554823 0.516774
vn -0.652009 0.554823 0.516774
vn -0.652009 0.554823 0.516774
vn -0.606485 0.554812 0.569526
vn -0.606485 0.554812 0.569525
vn -0.606485 0.554812 0.569526
vn -0.606485 0.554812 0.569526
vn -0.556704 0.554803 0.618283
vn -0.556704 0.554803 0.618283
vn -0.556704 0.554803 0.618283
vn -0.556704 0.554803 0.618283
vn -0.503018 0.554792 0.662705
vn -0.503018 0.554792 0.662705
vn -0.503018 0.554792 0.662705
vn -0.503018 0.554792 0.662705
vn -0.445807 0.554782 0.702477
vn -0.445807 0.554782 0.702477
vn -0.445807 0.554782 0.702477
vn -0.445807 0.554782 0.702477
vn -0.385465 0.554771 0.737324
vn -0.385465 0.554771 0.737324
vn -0.385465 0.554771 0.737324
vn -0.385465 0.554771 0.737324
vn -0.322418 0.554758 0.767001
vn -0.322418 0.554758 0.767001
vn -0.322418 0.554758 0.767001
vn -0.322418 0.554758 0.767001
vn -0.257109 0.554745 0.791299
vn -0.257109 0.554744 0.791299
vn -0.257109 0.554744 0.791299
vn -0.257109 0.554744 0.791299
vn -0.189995 0.554732 0.810046
vn -0.189995 0.554732 0.810046
vn -0.189995 0.554732 0.810046
vn -0.189995 0.554732 0.810046
vn -0.121546 0.554717 0.823113
vn -0.121546 0.554717 0.823113
vn -0.121546 0.554717 0.823113
vn -0.121546 0.554717 0.823113
vn -0.052245 0.554701 0.830408
vn -0.052245 0.554701 0.830408
vn -0.052245 0.554701 0.830408
vn -0.052245 0.554701 0.830408
vn 0.017424 0.554686 0.831877
vn 0.017424 0.554686 0.831877
vn 0.017424 0.554686 0.831877
vn 0.017424 0.554686 0.831877
vn 0.086977 0.554673 0.827510
vn 0.086977 0.554673 0.827510
vn 0.086977 0.554673 0.827510
vn 0.086977 0.554673 0.827510
vn 0.155913 0.554659 0.817340
vn 0.155913 0.554659 0.817340
vn 0.155913 0.554659 0.817340
vn 0.155913 0.554659 0.817340
vn 0.223764 0.554647 0.801434
vn 0.223764 0.554647 0.801434
vn 0.223764 0.554647 0.801434
vn 0.223764 0.554647 0.801434
vn 0.290046 0.554634 0.779907
vn 0.290046 0.554634 0.779907
vn 0.290046 0.554634 0.779907
vn 0.290046 0.554634 0.779907
vn 0.354293 0.554620 0.752910
vn 0.354293 0.554620 0.752910
vn 0.354293 0.554620 0.752910
vn 0.354293 0.554620 0.752910
vn 0.416055 0.554608 0.720630
vn 0.416055 0.554608 0.720630
vn 0.416055 0.554608 0.720630
vn 0.416055 0.554608 0.720630
vn 0.474903 0.554597 0.683293
vn 0.474903 0.554597 0.683293
vn 0.474903 0.554597 0.683293
vn 0.474903 0.554597 0.683293
vn 0.530417 0.554584 0.641166
vn 0.530417 0.554584 0.641166
vn 0.530417 0.554584 0.641166
vn 0.530417 0.554584 0.641166
vn 0.582213 0.554574 0.594537
vn 0.582213 0.554574 0.594537
vn 0.582213 0.554574 0.594537
vn 0.582213 0.554574 0.594537
vn 0.629927 0.554564 0.543737
vn 0.629927 0.554564 0.543737
vn 0.629927 0.554564 0.543737
vn 0.629927 0.554564 0.543738
vn 0.673221 0.554556 0.489124
vn 0.673221 0.554556 0.489124
vn 0.673221 0.554556 0.489124
vn 0.673221 0.554556 0.489124
vn 0.711794 0.554546 0.431078
vn 0.711794 0.554546 0.431078
vn 0.711794 0.554546 0.431078
vn 0.711794 0.554546 0.431078
vn 0.745371 0.554543 0.370005
vn 0.745371 0.554543 0.370005
vn 0.745372 0.554543 0.370005
vn 0.745371 0.554543 0.370005
vn 0.773722 0.554535 0.306340
vn 0.773722 0.554535 0.306340
vn 0.773722 0.554535 0.306340
vn 0.773722 0.554535 0.306340
vn 0.796647 0.554530 0.240520
vn 0.796647 0.554530 0.240520
vn 0.796647 0.554530 0.240520
vn 0.796647 0.554530 0.240520
vn 0.813980 0.554528 0.173017
vn 0.813980 0.554528 0.173017
vn 0.813980 0.554528 0.173017
vn 0.813980 0.554528 0.173018
vn 0.825605 0.554525 0.104301
vn 0.825605 0.554525 0.104301
vn 0.825605 0.554525 0.104301
vn 0.825605 0.554525 0.104301
vn 0.831436 0.554526 0.034845
vn 0.831436 0.554526 0.034845
vn 0.831436 0.554526 0.034845
vn 0.831436 0.554526 0.034845
vn 0.831439 0.554522 -0.034850
vn 0.831439 0.554522 -0.034850
vn 0.831439 0.554522 -0.034850
vn 0.831439 0.554522 -0.034850
vn 0.992115 0.000000 -0.125332
vn 0.992115 0.000000 -0.125332
vn 0.992115 0.000000 -0.125332
vn 0.992115 0.000000 -0.125332
vn 0.978147 0.000000 -0.207913
vn 0.978147 0.000000 -0.207913
vn 0.978147 0.000000 -0.207913
vn 0.978147 0.000000 -0.207913
vn 0.957319 0.000000 -0.289032
vn 0.957319 0.000000 -0.289032
vn 0.957319 0.000000 -0.289032
vn 0.957319 0.000000 -0.289032
vn 0.929776 0.000000 -0.368125
vn 0.929776 0.000000 -0.368125
vn 0.929776 0.000000 -0.368125
vn 0.929776 0.000000 -0.368125
vn 0.895712 0.000000 -0.444635
vn 0.895712 0.000000 -0.444635
vn 0.895712 0.000000 -0.444635
vn 0.895712 0.000000 -0.444635
vn 0.855364 0.000000 -0.518027
vn 0.855364 0.000000 -0.518027
vn 0.855364 0.000000 -0.518027
vn 0.855364 0.000000 -0.518027
vn 0.809017 0.000000 -0.587785
vn 0.809017 0.000000 -0.587785
vn 0.809017 0.000000 -0.587785
vn 0.809017 0.000000 -0.587785
vn 0.756995 0.000000 -0.653420
vn 0.756995 0.000000 -0.653420
vn 0.756995 0.000000 -0.653420
vn 0.756995 0.000000 -0.653420
vn 0.699663 0.000000 -0.714473
vn 0.699663 0.000000 -0.714473
vn 0.699663 0.000000 -0.714473
vn 0.699663 0.000000 -0.714473
vn 0.637425 0.000000 -0.770513
vn 0.637425 0.000000 -0.770513
vn 0.637425 0.000000 -0.770513
vn 0.637425 0.000000 -0.770513
vn 0.570713 0.000000 -0.821150
vn 0.570713 0.000000 -0.821150
vn 0.570713 0.000000 -0.821150
vn 0.570713 0.000000 -0.821150
vn 0.500000 0.000000 -0.866025
vn 0.500000 0.000000 -0.866025
vn 0.500000 0.000000 -0.866025
vn 0.500000 0.000000 -0.866025
vn 0.425779 0.000000 -0.904827
vn 0.425779 0.000000 -0.904827
vn 0.425779 0.000000 -0.904827
vn 0.425779 0.000000 -0.904827
vn 0.348572 0.000000 -0.937282
vn 0.348572 0.000000 -0.937282
vn 0.348572 0.000000 -0.937282
vn 0.348572 0.000000 -0.937282
vn 0.268920 0.000000 -0.963162
vn 0.268920 0.000000 -0.963162
vn 0.268920 0.000000 -0.963162
vn 0.268920 0.000000 -0.963162
vn 0.187381 0.000000 -0.982287
vn 0.187381 0.000000 -0.982287
vn 0.187381 0.000000 -0.982287
vn 0.187381 0.000000 -0.982287
vn 0.104529 0.000000 -0.994522
vn 0.104529 0.000000 -0.994522
vn 0.104529 0.000000 -0.994522
vn 0.104529 0.000000 -0.994522
vn 0.020942 0.000000 -0.999781
vn 0.020942 0.000000 -0.999781
vn 0.020942 0.000000 -0.999781
vn 0.020942 0.000000 -0.999781
vn -0.062789 0.000000 -0.998027
vn -0.062789 0.000000 -0.998027
vn -0.062789 0.000000 -0.998027
vn -0.062789 0.000000 -0.998027
vn -0.146084 0.000000 -0.989272
vn -0.146084 0.000000 -0.989272
vn -0.146084 0.000000 -0.989272
vn -0.146084 0.000000 -0.989272
vn -0.228351 0.000000 -0.973579
vn -0.228351 0.000000 -0.973579
vn -0.228351 0.000000 -0.973579
vn -0.228351 0.000000 -0.973579
vn -0.309016 0.000000 -0.951057
vn -0.309016 0.000000 -0.951057
vn -0.309016 0.000000 -0.951057
vn -0.309016 0.000000 -0.951057
vn -0.387515 0.000000 -0.921863
vn -0.387515 0.000000 -0.921863
vn -0.387515 0.000000 -0.921863
vn -0.387515 0.000000 -0.921863
vn -0.463296 0.000000 -0.886204
vn -0.463296 0.000000 -0.886204
vn -0.463296 0.000000 -0.886204
vn -0.463296 0.000000 -0.886204
vn -0.535827 0.000000 -0.844328
vn -0.535827 0.000000 -0.844328
vn -0.535827 0.000000 -0.844328
vn -0.535827 0.000000 -0.844328
vn -0.604599 0.000000 -0.796530
vn -0.604599 0.000000 -0.796530
vn -0.604599 0.000000 -0.796530
vn -0.604599 0.000000 -0.796530
vn -0.669130 0.000000 -0.743145
vn -0.669130 0.000000 -0.743145
vn -0.669130 0.000000 -0.743145
vn -0.669130 0.000000 -0.743145
vn -0.728969 0.000000 -0.684547
vn -0.728969 0.000000 -0.684547
vn -0.728969 0.000000 -0.684547
vn -0.728969 0.000000 -0.684547
vn -0.783693 0.000000 -0.621148
vn -0.783693 0.000000 -0.621148
vn -0.783693 0.000000 -0.621148
vn -0.783693 0.000000 -0.621148
vn -0.832921 0.000000 -0.553391
vn -0.832921 0.000000 -0.553391
vn -0.832921 0.000000 -0.553391
vn -0.832921 0.000000 -0.553391
vn -0.876307 0.000000 -0.481754
vn -0.876307 0.000000 -0.481754
vn -0.876307 0.000000 -0.481754
vn -0.876307 0.000000 -0.481754
vn -0.913545 0.000000 -0.406737
vn -0.913545 0.000000 -0.406737
vn -0.913545 0.000000 -0.406737
vn -0.913545 0.000000 -0.406737
vn -0.944376 0.000000 -0.328867
vn -0.944376 0.000000 -0.328867
vn -0.944376 0.000000 -0.328867
vn -0.944376 0.000000 -0.328867
vn -0.968583 0.000000 -0.248689
vn -0.968583 0.000000 -0.248689
vn -0.968583 0.000000 -0.248689
vn -0.968583 0.000000 -0.248689
vn -0.985996 0.000000 -0.166769
vn -0.985996 0.000000 -0.166769
vn -0.985996 0.000000 -0.166769
vn -0.985996 0.000000 -0.166769
vn -0.996493 0.000000 -0.083678
vn -0.996493 0.000000 -0.083678
vn -0.996493 0.000000 -0.083678
vn -0.996493 0.000000 -0.083678
vn -1.000000 0.000000 0.000000
vn -1.000000 0.000000 0.000000
vn -1.000000 0.000000 0.000000
vn -1.000000 0.000000 0.000000
vn -0.996493 0.000000 0.083678
vn -0.996493 0.000000 0.083678
vn -0.996493 0.000000 0.083678
vn -0.996493 0.000000 0.083678
vn -0.985996 0.000000 0.166769
vn -0.985996 0.000000 0.166769
vn -0.985996 0.000000 0.166769
vn -0.985996 0.000000 0.166769
vn -0.968583 0.000000 0.248689
vn -0.968583 0.000000 0.248689
vn -0.968583 0.000000 0.248689
vn -0.968583 0.000000 0.248689
vn -0.944376 0.000000 0.328867
vn -0.944376 0.000000 0.328867
vn -0.944376 0.000000 0.328867
vn -0.944376 0.000000 0.328867
vn -0.913546 0.000000 0.406736
vn -0.913546 0.000000 0.406736
vn -0.913546 0.000000 0.406736
vn -0.913546 0.000000 0.406736
vn -0.876307 0.000000 0.481753
vn -0.876307 0.000000 0.481753
vn -0.876307 0.000000 0.481753
vn -0.876307 0.000000 0.481753
vn -0.832922 0.000000 0.553391
vn -0.832922 0.000000 0.553391
vn -0.832922 0.000000 0.553391
vn -0.832922 0.000000 0.553391
vn -0.783693 0.000000 0.621148
vn -0.783693 0.000000 0.621148
vn -0.783693 0.000000 0.621148
vn -0.783693 0.000000 0.621148
vn -0.728969 0.000000 0.684547
vn -0.728969 0.000000 0.684547
vn -0.728969 0.000000 0.684547
vn -0.728969 0.000000 0.684547
vn -0.669131 0.000000 0.743145
vn -0.669131 0.000000 0.743145
vn -0.669131 0.000000 0.743145
vn -0.669131 0.000000 0.743145
vn -0.604599 0.000000 0.796530
vn -0.604599 0.000000 0.796530
vn -0.604599 0.000000 0.796530
vn -0.604599 0.000000 0.796530
vn -0.535828 0.000000 0.844327
vn -0.535828 0.000000 0.844327
vn -0.535828 0.000000 0.844327
vn -0.535828 0.000000 0.844327
vn -0.463296 0.000000 0.886204
vn -0.463296 0.000000 0.886204
vn -0.463296 0.000000 0.886204
vn -0.463296 0.000000 0.886204
vn -0.387516 0.000000 0.921863
vn -0.387516 0.000000 0.921863
vn -0.387516 0.000000 0.921863
vn -0.387516 0.000000 0.921863
vn -0.309017 0.000000 0.951056
vn -0.309017 0.000000 0.951056
vn -0.309017 0.000000 0.951056
vn -0.309017 0.000000 0.951056
vn -0.228351 0.000000 0.973579
vn -0.228351 0.000000 0.973579
vn -0.228351 0.000000 0.973579
vn -0.228351 0.000000 0.973579
vn -0.146084 0.000000 0.989272
vn -0.146084 0.000000 0.989272
vn -0.146084 0.000000 0.989272
vn -0.146084 0.000000 0.989272
vn -0.062790 0.000000 0.998027
vn -0.062790 0.000000 0.998027
vn -0.062790 0.000000 0.998027
vn -0.062790 0.000000 0.998027
vn 0.020942 0.000000 0.999781
vn 0.020942 0.000000 0.999781
vn 0.020942 0.000000 0.999781
vn 0.020942 0.000000 0.999781
vn 0.104528 0.000000 0.994522
vn 0.104528 0.000000 0.994522
vn 0.104528 0.000000 0.994522
vn 0.104528 0.000000 0.994522
vn 0.187382 0.000000 0.982287
vn 0.187382 0.000000 0.982287
vn 0.187382 0.000000 0.982287
vn 0.187382 0.000000 0.982287
vn 0.268919 0.000000 0.963163
vn 0.268919 0.000000 0.963163
vn 0.268919 0.000000 0.963163
vn 0.268919 0.000000 0.963163
vn 0.348573 0.000000 0.937282
vn 0.348573 0.000000 0.937282
vn 0.348573 0.000000 0.937282
vn 0.348573 0.000000 0.937282
vn 0.425778 0.000000 0.904828
vn 0.425778 0.000000 0.904828
vn 0.425778 0.000000 0.904828
vn 0.425778 0.000000 0.904828
vn 0.500001 0.000000 0.866025
vn 0.500001 0.000000 0.866025
vn 0.500001 0.000000 0.866025
vn 0.500001 0.000000 0.866025
vn 0.570714 0.000000 0.821149
vn 0.570714 0.000000 0.821149
vn 0.570714 0.000000 0.821149
vn 0.570714 0.000000 0.821149
vn 0.637424 0.000000 0.770514
vn 0.637424 0.000000 0.770514
vn 0.637424 0.000000 0.770514
vn 0.637424 0.000000 0.770514
vn 0.699663 0.000000 0.714473
vn 0.699663 0.000000 0.714473
vn 0.699663 0.000000 0.714473
vn 0.699663 0.000000 0.714473
vn 0.756995 0.000000 0.653421
vn 0.756995 0.000000 0.653421
vn 0.756995 0.000000 0.653421
vn 0.756995 0.000000 0.653421
vn 0.809017 0.000000 0.587785
vn 0.809017 0.000000 0.587785
vn 0.809017 0.000000 0.587785
vn 0.809017 0.000000 0.587785
vn 0.855364 0.000000 0.518027
vn 0.855364 0.000000 0.518027
vn 0.855364 0.000000 0.518027
vn 0.855364 0.000000 0.518027
vn 0.895712 0.000000 0.444636
vn 0.895712 0.000000 0.444636
vn 0.895712 0.000000 0.444636
vn 0.895712 0.000000 0.444636
vn 0.929776 0.000000 0.368125
vn 0.929776 0.000000 0.368125
vn 0.929776 0.000000 0.368125
vn 0.929776 0.000000 0.368125
vn 0.957320 0.000000 0.289031
vn 0.957320 0.000000 0.289031
vn 0.957320 0.000000 0.289031
vn 0.957320 0.000000 0.289031
vn 0.978148 0.000000 0.207912
vn 0.978148 0.000000 0.207912
vn 0.978148 0.000000 0.207912
vn 0.978148 0.000000 0.207912
vn 0.992115 0.000000 0.125334
vn 0.992115 0.000000 0.125334
vn 0.992115 0.000000 0.125334
vn 0.992115 0.000000 0.125334
vn 0.999123 0.000000 0.041876
vn 0.999123 0.000000 0.041876
vn 0.999123 0.000000 0.041876
vn 0.999123 0.000000 0.041876
vn 0.999123 0.000000 -0.041878
vn 0.999123 0.000000 -0.041878
vn 0.999123 0.000000 -0.041878
vn 0.999123 0.000000 -0.041878
vn 0.000000 1.000000 0.000007
vn 0.000000 1.000000 0.000007
vn 0.000000 1.000000 0.000007
vn 0.000000 1.000000 0.000007
vn 0.000000 1.000000 -0.000007
vn 0.000000 1.000000 -0.000007
vn 0.000000 1.000000 -0.000007
vn 0.000000 1.000000 -0.000007
vn 0.000000 1.000000 0.000007
vn 0.000000 1.000000 0.000007
vn 0.000000 1.000000 0.000007
vn 0.000000 1.000000 0.000007
vn 0.000000 1.000000 -0.000007
vn 0.000000 1.000000 -0.000007
vn 0.000000 1.000000 -0.000007
vn 0.000000 1.000000 -0.000007
vn 0.000000 1.000000 0.000000
vn 0.000000 1.000000 0.000000
vn 0.000000 1.000000 0.000000
vn 0.000000 1.000000 0.000000
vn 0.000000 1.000000 0.000000
vn 0.000000 1.000000 0.000000
vn 0.000000 1.000000 0.000000
vn 0.000000 1.000000 0.000000
vn 0.000000 1.000000 0.000007
vn 0.000000 1.000000 0.000007
vn 0.000000 1.000000 0.000007
vn 0.000000 1.000000 0.000007
vn 0.000000 1.000000 0.000007
vn 0.000000 1.000000 0.000007
vn 0.000000 1.000000 0.000007
vn 0.000000 1.000000 0.000007
vn 0.000000 1.000000 0.000007
vn 0.000000 1.000000 0.000007
vn 0.000000 1.000000 0.000007
vn 0.000000 1.000000 0.000007
vn 0.000000 1.000000 0.000000
vn 0.000000 1.000000 0.000000
vn 0.000000 1.000000 0.000000
vn 0.000000 1.000000 0.000000
vn 0.000000 1.000000 0.000004
vn 0.000000 1.000000 0.000004
vn 0.000000 1.000000 0.000004
vn 0.000000 1.000000 0.000004
vn 0.000000 1.000000 -0.000007
vn 0.000000 1.000000 -0.000007
vn 0.000000 1.000000 -0.000007
vn 0.000000 1.000000 -0.000007
vn 0.000000 1.000000 0.000000
vn 0.000000 1.000000 0.000000
vn 0.000000 1.000000 0.000000
vn 0.000000 1.000000 0.000000
vn 0.000000 1.000000 0.000000
vn 0.000000 1.000000 0.000000
vn 0.000000 1.000000 0.000000
vn 0.000000 1.000000 0.000000
vn 0.000000 1.000000 -0.000004
vn 0.000000 1.000000 -0.000004
vn 0.000000 1.000000 -0.000004
vn 0.000000 1.000000 -0.000004
vn 0.000000 1.000000 0.000000
vn 0.000000 1.000000 0.000000
vn 0.000000 1.000000 0.000000
vn 0.000000 1.000000 0.000000
vn 0.000000 1.000000 0.000003
vn 0.000000 1.000000 0.000003
vn 0.000000 1.000000 0.000003
vn 0.000000 1.000000 0.000003
vn 0.000000 1.000000 0.000001
vn 0.000000 1.000000 0.000001
vn 0.000000 1.000000 0.000001
vn 0.000000 1.000000 0.000001
vn 0.000000 1.000000 -0.000001
vn 0.000000 1.000000 -0.000001
vn 0.000000 1.000000 -0.000001
vn 0.000000 1.000000 -0.000001
vn 0.000000 1.000000 0.000002
vn 0.000000 1.000000 0.000002
vn 0.000000 1.000000 0.000002
vn 0.000000 1.000000 0.000002
vn 0.000000 1.000000 0.000002
vn 0.000000 1.000000 0.000002
vn 0.000000 1.000000 0.000002
vn 0.000000 1.000000 0.000002
vn 0.000000 1.000000 0.000002
vn 0.000000 1.000000 0.000002
vn 0.000000 1.000000 0.000002
vn 0.000000 1.000000 0.000002
vn 0.000000 1.000000 0.000000
vn 0.000000 1.000000 0.000000
vn 0.000000 1.000000 0.000000
vn 0.000000 1.000000 0.000000
vn 0.000000 1.000000 0.000000
vn 0.000000 1.000000 0.000000
vn 0.000000 1.000000 0.000000
vn 0.000000 1.000000 0.000000
vn 0.000000 1.000000 0.000000
vn 0.000000 1.000000 0.000000
vn 0.000000 1.000000 0.000000
vn 0.000000 1.000000 0.000000
vn 0.000000 1.000000 -0.000004
vn 0.000000 1.000000 -0.000004
vn 0.000000 1.000000 -0.000004
vn 0.000000 1.000000 -0.000004
vn 0.000000 1.000000 0.000000
vn 0.000000 1.000000 0.000000
vn 0.000000 1.000000 0.000000
vn 0.000000 1.000000 0.000000
vn 0.000000 1.000000 0.000000
vn 0.000000 1.000000 0.000000
vn 0.000000 1.000000 0.000000
vn 0.000000 1.000000 0.000000
vn 0.000000 1.000000 -0.000007
vn 0.000000 1.000000 -0.000007
vn 0.000000 1.000000 -0.000007
vn 0.000000 1.000000 -0.000007
vn 0.000000 1.000000 0.000000
vn 0.000000 1.000000 0.000000
vn 0.000000 1.000000 0.000000
vn 0.000000 1.000000 0.000000
vn 0.000000 1.000000 0.000007
vn 0.000000 1.000000 0.000007
vn 0.000000 1.000000 0.000007
vn 0.000000 1.000000 0.000007
vn 0.000000 1.000000 -0.000007
vn 0.000000 1.000000 -0.000007
vn 0.000000 1.000000 -0.000007
vn 0.000000 1.000000 -0.000007
vn 0.000000 1.000000 0.000000
vn 0.000000 1.000000 0.000000
vn 0.000000 1.000000 0.000000
vn 0.000000 1.000000 0.000000
vn 0.000000 1.000000 0.000007
vn 0.000000 1.000000 0.000007
vn 0.000000 1.000000 0.000007
vn 0.000000 1.000000 0.000007
vn 0.000000 1.000000 0.000000
vn 0.000000 1.000000 0.000000
vn 0.000000 1.000000 0.000000
vn 0.000000 1.000000 0.000000
vn 0.000000 1.000000 0.000007
vn 0.000000 1.000000 0.000007
vn 0.000000 1.000000 0.000007
vn 0.000000 1.000000 0.000007
vn 0.000000 1.000000 0.000000
vn 0.000000 1.000000 0.000000
vn 0.000000 1.000000 0.000000
vn 0.000000 1.000000 0.000000
vn 0.000000 1.000000 -0.000007
vn 0.000000 1.000000 -0.000007
vn 0.000000 1.000000 -0.000007
vn 0.000000 1.000000 -0.000007
vn 0.000000 1.000000 0.000000
vn 0.000000 1.000000 0.000000
vn 0.000000 1.000000 0.000000
vn 0.000000 1.000000 0.000000
vn 0.000000 1.000000 -0.000007
vn 0.000000 1.000000 -0.000007
vn 0.000000 1.000000 -0.000007
vn 0.000000 1.000000 -0.000007
vn 0.000000 1.000000 0.000000
vn 0.000000 1.000000 0.000000
vn 0.000000 1.000000 0.000000
vn 0.000000 1.000000 0.000000
vn 0.000000 1.000000 0.000000
vn 0.000000 1.000000 0.000000
vn 0.000000 1.000000 0.000000
vn 0.000000 1.000000 0.000000
vn 0.000000 1.000000 0.000000
vn 0.000000 1.000000 0.000000
vn 0.000000 1.000000 0.000000
vn 0.000000 1.000000 0.000000
vn 0.000000 1.000000 0.000007
vn 0.000000 1.000000 0.000007
vn 0.000000 1.000000 0.000007
vn 0.000000 1.000000 0.000007
vn 0.000000 1.000000 0.000000
vn 0.000000 1.000000 0.000000
vn 0.000000 1.000000 0.000000
vn 0.000000 1.000000 0.000000
vn 0.000000 1.000000 -0.000007
vn 0.000000 1.000000 -0.000007
vn 0.000000 1.000000 -0.000007
vn 0.000000 1.000000 -0.000007
vn 0.000000 1.000000 0.000000
vn 0.000000 1.000000 0.000000
vn 0.000000 1.000000 0.000000
vn 0.000000 1.000000 0.000000
vn 0.000000 1.000000 0.000000
vn 0.000000 1.000000 0.000000
vn 0.000000 1.000000 0.000000
vn 0.000000 1.000000 0.000000
vn 0.000000 1.000000 0.000000
vn 0.000000 1.000000 0.000000
vn 0.000000 1.000000 0.000000
vn 0.000000 1.000000 0.000000
vn 0.000000 1.000000 0.000000
vn 0.000000 1.000000 0.000000
vn 0.000000 1.000000 0.000000
vn 0.000000 1.000000 0.000000
vn 0.000000 1.000000 -0.000004
vn 0.000000 1.000000 -0.000004
vn 0.000000 1.000000 -0.000004
vn 0.000000 1.000000 -0.000004
vn 0.000000 1.000000 -0.000004
vn 0.000000 1.000000 -0.000004
vn 0.000000 1.000000 -0.000004
vn 0.000000 1.000000 -0.000004
vn 0.000000 1.000000 -0.000002
vn 0.000000 1.000000 -0.000002
vn 0.000000 1.000000 -0.000002
vn 0.000000 1.000000 -0.000002
vn 0.000000 1.000000 0.000005
vn 0.000000 1.000000 0.000005
vn 0.000000 1.000000 0.000005
vn 0.000000 1.000000 0.000005
vn 0.000000 1.000000 -0.000001
vn 0.000000 1.000000 -0.000001
vn 0.000000 1.000000 -0.000001
vn 0.000000 1.000000 -0.000001
vn 0.000000 1.000000 0.000000
vn 0.000000 1.000000 0.000000
vn 0.000000 1.000000 0.000000
vn 0.000000 1.000000 0.000000
vn 0.000000 1.000000 0.000000
vn 0.000000 1.000000 0.000000
vn 0.000000 1.000000 0.000000
vn 0.000000 1.000000 0.000000
vn 0.000000 1.000000 0.000001
vn 0.000000 1.000000 0.000001
vn 0.000000 1.000000 0.000001
vn 0.000000 1.000000 0.000001
vn 0.000000 1.000000 0.000002
vn 0.000000 1.000000 0.000002
vn 0.000000 1.000000 0.000002
vn 0.000000 1.000000 0.000002
vn 0.000000 1.000000 0.000000
vn 0.000000 1.000000 0.000000
vn 0.000000 1.000000 0.000000
vn 0.000000 1.000000 0.000000
vn 0.000000 1.000000 0.000000
vn 0.000000 1.000000 0.000000
vn 0.000000 1.000000 0.000000
vn 0.000000 1.000000 0.000000
vn 0.000000 1.000000 0.000000
vn 0.000000 1.000000 0.000000
vn 0.000000 1.000000 0.000000
vn 0.000000 1.000000 0.000000
vn 0.000000 1.000000 0.000000
vn 0.000000 1.000000 0.000000
vn 0.000000 1.000000 0.000000
vn 0.000000 1.000000 0.000000
vn 0.000000 1.000000 0.000004
vn 0.000000 1.000000 0.000004
vn 0.000000 1.000000 0.000004
vn 0.000000 1.000000 0.000004
vn 0.000000 1.000000 0.000000
vn 0.000000 1.000000 0.000000
vn 0.000000 1.000000 0.000000
vn 0.000000 1.000000 0.000000
vn 0.000000 1.000000 0.000000
vn 0.000000 1.000000 0.000000
vn 0.000000 1.000000 0.000000
vn 0.000000 1.000000 0.000000
vn 0.000000 1.000000 0.000000
vn 0.000000 1.000000 0.000000
vn 0.000000 1.000000 0.000000
vn 0.000000 1.000000 0.000000
vn 0.000000 1.000000 0.000000
vn 0.000000 1.000000 0.000000
vn 0.000000 1.000000 0.000000
vn 0.000000 1.000000 0.000000
vn 0.000000 1.000000 0.000000
vn 0.000000 1.000000 0.000000
vn 0.000000 1.000000 0.000000
vn 0.000000 1.000000 0.000000
vn 0.000000 1.000000 0.000000
vn 0.000000 1.000000 0.000000
vn 0.000000 1.000000 0.000000
vn 0.000000 1.000000 0.000000
vn 0.000000 1.000000 -0.000007
vn 0.000000 1.000000 -0.000007
vn 0.000000 1.000000 -0.000007
vn 0.000000 1.000000 -0.000007
vn 0.000000 1.000000 0.000007
vn 0.000000 1.000000 0.000007
vn 0.000000 1.000000 0.000007
vn 0.000000 1.000000 0.000007
vn 0.000000 1.000000 0.000000
vn 0.000000 1.000000 0.000000
vn 0.000000 1.000000 0.000000
vn 0.000000 1.000000 0.000000
vn 0.000000 1.000000 -0.000007
vn 0.000000 1.000000 -0.000007
vn 0.000000 1.000000 -0.000007
vn 0.000000 1.000000 -0.000007
vn 0.000000 1.000000 0.000000
vn 0.000000 1.000000 0.000000
vn 0.000000 1.000000 0.000000
vn 0.000000 1.000000 0.000000
vn -0.992115 0.000000 0.125332
vn -0.992115 0.000000 0.125332
vn -0.992115 0.000000 0.125332
vn -0.992115 0.000000 0.125332
vn -0.978148 0.000000 0.207912
vn -0.978148 0.000000 0.207912
vn -0.978148 0.000000 0.207912
vn -0.978148 0.000000 0.207912
vn -0.957319 0.000000 0.289033
vn -0.957319 0.000000 0.289033
vn -0.957319 0.000000 0.289033
vn -0.957319 0.000000 0.289033
vn -0.929776 0.000000 0.368125
vn -0.929776 0.000000 0.368125
vn -0.929776 0.000000 0.368125
vn -0.929776 0.000000 0.368125
vn -0.895712 0.000000 0.444635
vn -0.895712 0.000000 0.444635
vn -0.895712 0.000000 0.444635
vn -0.895712 0.000000 0.444635
vn -0.855364 0.000000 0.518027
vn -0.855364 0.000000 0.518027
vn -0.855364 0.000000 0.518027
vn -0.855364 0.000000 0.518027
vn -0.809017 0.000000 0.587785
vn -0.809017 0.000000 0.587785
vn -0.809017 0.000000 0.587785
vn -0.809017 0.000000 0.587785
vn -0.756995 0.000000 0.653421
vn -0.756995 0.000000 0.653421
vn -0.756995 0.000000 0.653421
vn -0.756995 0.000000 0.653421
vn -0.699664 0.000000 0.714472
vn -0.699664 0.000000 0.714472
vn -0.699664 0.000000 0.714472
vn -0.699664 0.000000 0.714472
vn -0.637425 0.000000 0.770512
vn -0.637425 0.000000 0.770512
vn -0.637425 0.000000 0.770512
vn -0.637425 0.000000 0.770512
vn -0.570712 0.000000 0.821150
vn -0.570712 0.000000 0.821150
vn -0.570712 0.000000 0.821150
vn -0.570712 0.000000 0.821150
vn -0.500000 -0.000000 0.866025
vn -0.500000 -0.000000 0.866025
vn -0.500000 -0.000000 0.866025
vn -0.500000 -0.000000 0.866025
vn -0.425779 0.000000 0.904827
vn -0.425779 0.000000 0.904827
vn -0.425779 0.000000 0.904827
vn -0.425779 0.000000 0.904827
vn -0.348574 0.000000 0.937281
vn -0.348574 0.000000 0.937281
vn -0.348574 0.000000 0.937281
vn -0.348574 0.000000 0.937281
vn -0.268920 0.000000 0.963163
vn -0.268920 0.000000 0.963163
vn -0.268920 0.000000 0.963163
vn -0.268920 0.000000 0.963163
vn -0.187378 0.000000 0.982288
vn -0.187378 0.000000 0.982288
vn -0.187378 0.000000 0.982288
vn -0.187378 0.000000 0.982288
vn -0.104532 0.000000 0.994521
vn -0.104532 0.000000 0.994521
vn -0.104532 0.000000 0.994521
vn -0.104532 0.000000 0.994521
vn -0.020940 0.000000 0.999781
vn -0.020940 0.000000 0.999781
vn -0.020940 0.000000 0.999781
vn -0.020940 0.000000 0.999781
vn 0.062789 0.000000 0.998027
vn 0.062789 0.000000 0.998027
vn 0.062789 0.000000 0.998027
vn 0.062789 0.000000 0.998027
vn 0.146084 0.000000 0.989272
vn 0.146084 0.000000 0.989272
vn 0.146084 0.000000 0.989272
vn 0.146084 0.000000 0.989272
vn 0.228352 0.000000 0.973579
vn 0.228352 0.000000 0.973579
vn 0.228352 0.000000 0.973579
vn 0.228352 0.000000 0.973579
vn 0.309016 0.000000 0.951057
vn 0.309016 0.000000 0.951057
vn 0.309016 0.000000 0.951057
vn 0.309016 0.000000 0.951057
vn 0.387516 0.000000 0.921863
vn 0.387516 0.000000 0.921863
vn 0.387516 0.000000 0.921863
vn 0.387516 0.000000 0.921863
vn 0.463295 0.000000 0.886204
vn 0.463295 0.000000 0.886204
vn 0.463295 0.000000 0.886204
vn 0.463295 0.000000 0.886204
vn 0.535827 0.000000 0.844328
vn 0.535827 0.000000 0.844328
vn 0.535827 0.000000 0.844328
vn 0.535827 0.000000 0.844328
vn 0.604599 0.000000 0.796530
vn 0.604599 0.000000 0.796530
vn 0.604599 0.000000 0.796530
vn 0.604599 0.000000 0.796530
vn 0.669130 0.000000 0.743145
vn 0.669130 0.000000 0.743145
vn 0.669130 0.000000 0.743145
vn 0.669130 0.000000 0.743145
vn 0.728969 0.000000 0.684547
vn 0.728969 0.000000 0.684547
vn 0.728969 0.000000 0.684547
vn 0.728969 0.000000 0.684547
vn 0.783694 0.000000 0.621148
vn 0.783694 0.000000 0.621148
vn 0.783694 0.000000 0.621148
vn 0.783694 0.000000 0.621148
vn 0.832921 0.000000 0.553392
vn 0.832921 0.000000 0.553392
vn 0.832921 0.000000 0.553392
vn 0.832921 0.000000 0.553392
vn 0.876307 0.000000 0.481753
vn 0.876307 0.000000 0.481753
vn 0.876307 0.000000 0.481753
vn 0.876307 0.000000 0.481753
vn 0.913545 0.000000 0.406737
vn 0.913545 0.000000 0.406737
vn 0.913545 0.000000 0.406737
vn 0.913545 0.000000 0.406737
vn 0.944376 0.000000 0.328868
vn 0.944376 0.000000 0.328868
vn 0.944376 0.000000 0.328868
vn 0.944376 0.000000 0.328868
vn 0.968583 0.000000 0.248689
vn 0.968583 0.000000 0.248689
vn 0.968583 0.000000 0.248689
vn 0.968583 0.000000 0.248689
vn 0.985996 0.000000 0.166769
vn 0.985996 0.000000 0.166769
vn 0.985996 0.000000 0.166769
vn 0.985996 0.000000 0.166769
vn 0.996493 0.000000 0.083678
vn 0.996493 0.000000 0.083678
vn 0.996493 0.000000 0.083678
vn 0.996493 0.000000 0.083678
vn 1.000000 0.000000 0.000000
vn 1.000000 0.000000 0.000000
vn 1.000000 0.000000 0.000000
vn 1.000000 0.000000 0.000000
vn 0.996493 0.000000 -0.083678
vn 0.996493 0.000000 -0.083678
vn 0.996493 0.000000 -0.083678
vn 0.996493 0.000000 -0.083678
vn 0.985996 0.000000 -0.166769
vn 0.985996 0.000000 -0.166769
vn 0.985996 0.000000 -0.166769
vn 0.985996 0.000000 -0.166769
vn 0.968583 0.000000 -0.248689
vn 0.968583 0.000000 -0.248689
vn 0.968583 0.000000 -0.248689
vn 0.968583 0.000000 -0.248689
vn 0.944376 0.000000 -0.328868
vn 0.944376 0.000000 -0.328868
vn 0.944376 0.000000 -0.328868
vn 0.944376 0.000000 -0.328868
vn 0.913546 0.000000 -0.406736
vn 0.913546 0.000000 -0.406736
vn 0.913546 0.000000 -0.406736
vn 0.913546 0.000000 -0.406736
vn 0.876307 0.000000 -0.481753
vn 0.876307 0.000000 -0.481753
vn 0.876307 0.000000 -0.481753
vn 0.876307 0.000000 -0.481753
vn 0.832921 0.000000 -0.553391
vn 0.832921 0.000000 -0.553391
vn 0.832921 0.000000 -0.553391
vn 0.832921 0.000000 -0.553391
vn 0.783694 0.000000 -0.621147
vn 0.783694 0.000000 -0.621147
vn 0.783694 0.000000 -0.621147
vn 0.783694 0.000000 -0.621147
vn 0.728969 0.000000 -0.684547
vn 0.728969 0.000000 -0.684547
vn 0.728969 0.000000 -0.684547
vn 0.728969 0.000000 -0.684547
vn 0.669131 -0.000000 -0.743145
vn 0.669131 -0.000000 -0.743145
vn 0.669131 -0.000000 -0.743145
vn 0.669131 -0.000000 -0.743145
vn 0.604600 0.000000 -0.796530
vn 0.604600 0.000000 -0.796530
vn 0.604600 0.000000 -0.796530
vn 0.604600 0.000000 -0.796530
vn 0.535827 0.000000 -0.844328
vn 0.535827 0.000000 -0.844328
vn 0.535827 0.000000 -0.844328
vn 0.535827 0.000000 -0.844328
vn 0.463297 0.000000 -0.886203
vn 0.463297 0.000000 -0.886203
vn 0.463297 0.000000 -0.886203
vn 0.463297 0.000000 -0.886203
vn 0.387515 0.000000 -0.921863
vn 0.387515 0.000000 -0.921863
vn 0.387515 0.000000 -0.921863
vn 0.387515 0.000000 -0.921863
vn 0.309018 0.000000 -0.951056
vn 0.309018 0.000000 -0.951056
vn 0.309018 0.000000 -0.951056
vn 0.309018 0.000000 -0.951056
vn 0.228349 0.000000 -0.973579
vn 0.228349 0.000000 -0.973579
vn 0.228349 0.000000 -0.973579
vn 0.228349 0.000000 -0.973579
vn 0.146084 0.000000 -0.989272
vn 0.146084 0.000000 -0.989272
vn 0.146084 0.000000 -0.989272
vn 0.146084 0.000000 -0.989272
vn 0.062792 0.000000 -0.998027
vn 0.062792 0.000000 -0.998027
vn 0.062792 0.000000 -0.998027
vn 0.062792 0.000000 -0.998027
vn -0.020942 0.000000 -0.999781
vn -0.020942 0.000000 -0.999781
vn -0.020942 0.000000 -0.999781
vn -0.020942 0.000000 -0.999781
vn -0.104528 0.000000 -0.994522
vn -0.104528 0.000000 -0.994522
vn -0.104528 0.000000 -0.994522
vn -0.104528 0.000000 -0.994522
vn -0.187380 0.000000 -0.982287
vn -0.187380 0.000000 -0.982287
vn -0.187380 0.000000 -0.982287
vn -0.187380 0.000000 -0.982287
vn -0.268921 0.000000 -0.963162
vn -0.268921 0.000000 -0.963162
vn -0.268921 0.000000 -0.963162
vn -0.268921 0.000000 -0.963162
vn -0.348574 0.000000 -0.937281
vn -0.348574 0.000000 -0.937281
vn -0.348574 0.000000 -0.937281
vn -0.348574 0.000000 -0.937281
vn -0.425779 0.000000 -0.904827
vn -0.425779 0.000000 -0.904827
vn -0.425779 0.000000 -0.904827
vn -0.425779 0.000000 -0.904827
vn -0.500000 0.000000 -0.866026
vn -0.500000 0.000000 -0.866026
vn -0.500000 0.000000 -0.866026
vn -0.500000 0.000000 -0.866026
vn -0.570713 0.000000 -0.821149
vn -0.570713 0.000000 -0.821149
vn -0.570713 0.000000 -0.821149
vn -0.570713 0.000000 -0.821149
vn -0.637424 0.000000 -0.770513
vn -0.637424 0.000000 -0.770513
vn -0.637424 0.000000 -0.770513
vn -0.637424 0.000000 -0.770513
vn -0.699663 0.000000 -0.714473
vn -0.699663 0.000000 -0.714473
vn -0.699663 0.000000 -0.714473
vn -0.699663 0.000000 -0.714473
vn -0.756995 0.000000 -0.653421
vn -0.756995 0.000000 -0.653421
vn -0.756995 0.000000 -0.653421
vn -0.756995 0.000000 -0.653421
vn -0.809017 0.000000 -0.587785
vn -0.809017 0.000000 -0.587785
vn -0.809017 0.000000 -0.587785
vn -0.809017 0.000000 -0.587785
vn -0.855364 0.000000 -0.518027
vn -0.855364 0.000000 -0.518027
vn -0.855364 0.000000 -0.518027
vn -0.855364 0.000000 -0.518027
vn -0.895712 0.000000 -0.444635
vn -0.895712 0.000000 -0.444635
vn -0.895712 0.000000 -0.444635
vn -0.895712 0.000000 -0.444635
vn -0.929777 0.000000 -0.368124
vn -0.929777 0.000000 -0.368124
vn -0.929777 0.000000 -0.368124
vn -0.929777 0.000000 -0.368124
vn -0.957320 0.000000 -0.289031
vn -0.957320 0.000000 -0.289031
vn -0.957320 0.000000 -0.289031
vn -0.957320 0.000000 -0.289031
vn -0.978147 0.000000 -0.207912
vn -0.978147 0.000000 -0.207912
vn -0.978147 0.000000 -0.207912
vn -0.978147 0.000000 -0.207912
vn -0.992115 0.000000 -0.125332
vn -0.992115 0.000000 -0.125332
vn -0.992115 0.000000 -0.125332
vn -0.992115 0.000000 -0.125332
vn -0.999123 0.000000 -0.041876
vn -0.999123 0.000000 -0.041876
vn -0.999123 0.000000 -0.041876
vn -0.999123 0.000000 -0.041876
vn -0.999123 0.000000 0.041877
vn -0.999123 0.000000 0.041877
vn -0.999123 0.000000 0.041877
vn -0.999123 0.000000 0.041877
s 1
g pCylinder1
usemtl initialShadingGroup
f 1/76/1 2/77/2 77/153/3 76/152/4
f 2/77/2 3/78/5 78/154/6 77/153/3
f 3/78/5 4/79/7 79/155/8 78/154/6
f 4/79/7 5/80/9 80/156/10 79/155/8
f 5/80/9 6/81/11 81/157/12 80/156/10
f 6/81/11 7/82/13 82/158/14 81/157/12
f 7/82/13 8/83/15 83/159/16 82/158/14
f 8/83/15 9/84/17 84/160/18 83/159/16
f 9/84/17 10/85/19 85/161/20 84/160/18
f 10/85/19 11/86/21 86/162/22 85/161/20
f 11/86/21 12/87/23 87/163/24 86/162/22
f 12/87/23 13/88/25 88/164/26 87/163/24
f 13/88/25 14/89/27 89/165/28 88/164/26
f 14/89/27 15/90/29 90/166/30 89/165/28
f 15/90/29 16/91/31 91/167/32 90/166/30
f 16/91/31 17/92/33 92/168/34 91/167/32
f 17/92/33 18/93/35 93/169/36 92/168/34
f 18/93/35 19/94/37 94/170/38 93/169/36
f 19/94/37 20/95/39 95/171/40 94/170/38
f 20/95/39 21/96/41 96/172/42 95/171/40
f 21/96/41 22/97/43 97/173/44 96/172/42
f 22/97/43 23/98/45 98/174/46 97/173/44
f 23/98/45 24/99/47 99/175/48 98/174/46
f 24/99/47 25/100/49 100/176/50 99/175/48
f 25/100/49 26/101/51 101/177/52 100/176/50
f 26/101/51 27/102/53 102/178/54 101/177/52
f 27/102/53 28/103/55 103/179/56 102/178/54
f 28/103/55 29/104/57 104/180/58 103/179/56
f 29/104/57 30/105/59 105/181/60 104/180/58
f 30/105/59 31/106/61 106/182/62 105/181/60
f 31/106/61 32/107/63 107/183/64 106/182/62
f 32/107/63 33/108/65 108/184/66 107/183/64
f 33/108/65 34/109/67 109/185/68 108/184/66
f 34/109/67 35/110/69 110/186/70 109/185/68
f 35/110/69 36/111/71 111/187/72 110/186/70
f 36/111/71 37/112/73 112/188/74 111/187/72
f 37/112/73 38/113/75 113/189/76 112/188/74
f 38/113/75 39/114/77 114/190/78 113/189/76
f 39/114/77 40/115/79 115/191/80 114/190/78
f 40/115/79 41/116/81 116/192/82 115/191/80
f 41/116/81 42/117/83 117/193/84 116/192/82
f 42/117/83 43/118/85 118/194/86 117/193/84
f 43/118/85 44/119/87 119/195/88 118/194/86
f 44/119/87 45/120/89 120/196/90 119/195/88
f 45/120/89 46/121/91 121/197/92 120/196/90
f 46/121/91 47/122/93 122/198/94 121/197/92
f 47/122/93 48/123/95 123/199/96 122/198/94
f 48/123/95 49/124/97 124/200/98 123/199/96
f 49/124/97 50/125/99 125/201/100 124/200/98
f 50/125/99 51/126/101 126/202/102 125/201/100
f 51/126/101 52/127/103 127/203/104 126/202/102
f 52/127/103 53/128/105 128/204/106 127/203/104
f 53/128/105 54/129/107 129/205/108 128/204/106
f 54/129/107 55/130/109 130/206/110 129/205/108
f 55/130/109 56/131/111 131/207/112 130/206/110
f 56/131/111 57/132/113 132/208/114 131/207/112
f 57/132/113 58/133/115 133/209/116 132/208/114
f 58/133/115 59/134/117 134/210/118 133/209/116
f 59/134/117 60/135/119 135/211/120 134/210/118
f 60/135/119 61/136/121 136/212/122 135/211/120
f 61/136/121 62/137/123 137/213/124 136/212/122
f 62/137/123 63/138/125 138/214/126 137/213/124
f 63/138/125 64/139/127 139/215/128 138/214/126
f 64/139/127 65/140/129 140/216/130 139/215/128
f 65/140/129 66/141/131 141/217/132 140/216/130
f 66/141/131 67/142/133 142/218/134 141/217/132
f 67/142/133 68/143/135 143/219/136 142/218/134
f 68/143/135 69/144/137 144/220/138 143/219/136
f 69/144/137 70/145/139 145/221/140 144/220/138
f 70/145/139 71/146/141 146/222/142 145/221/140
f 71/146/141 72/147/143 147/223/144 146/222/142
f 72/147/143 73/148/145 148/224/146 147/223/144
f 73/148/145 74/149/147 149/225/148 148/224/146
f 74/149/147 75/150/149 150/226/150 149/225/148
f 75/150/149 1/151/1 76/227/4 150/226/150
s 2
f 152/305/151 151/306/152 153/303/153
f 154/307/154 152/305/151 153/303/153
f 155/308/155 154/307/154 153/303/153
f 156/309/156 155/308/155 153/303/153
f 157/310/157 156/309/156 153/303/153
f 158/311/158 157/310/157 153/303/153
f 159/312/159 158/311/158 153/303/153
f 160/313/160 159/312/159 153/303/153
f 161/314/161 160/313/160 153/303/153
f 162/315/162 161/314/161 153/303/153
f 163/316/163 162/315/162 153/303/153
f 164/317/164 163/316/163 153/303/153
f 165/318/165 164/317/164 153/303/153
f 166/319/166 165/318/165 153/303/153
f 167/320/167 166/319/166 153/303/153
f 168/321/168 167/320/167 153/303/153
f 169/322/169 168/321/168 153/303/153
f 170/323/170 169/322/169 153/303/153
f 171/324/171 170/323/170 153/303/153
f 172/325/172 171/324/171 153/303/153
f 173/326/173 172/325/172 153/303/153
f 174/327/174 173/326/173 153/303/153
f 175/328/175 174/327/174 153/303/153
f 176/329/176 175/328/175 153/303/153
f 177/330/177 176/329/176 153/303/153
f 178/331/178 177/330/177 153/303/153
f 179/332/179 178/331/178 153/303/153
f 180/333/180 179/332/179 153/303/153
f 181/334/181 180/333/180 153/303/153
f 182/335/182 181/334/181 153/303/153
f 183/336/183 182/335/182 153/303/153
f 184/337/184 183/336/183 153/303/153
f 185/338/185 184/337/184 153/303/153
f 186/339/186 185/338/185 153/303/153
f 187/340/187 186/339/186 153/303/153
f 188/341/188 187/340/187 153/303/153
f 189/342/189 188/341/188 153/303/153
f 190/343/190 189/342/189 153/303/153
f 191/344/191 190/343/190 153/303/153
f 192/345/192 191/344/191 153/303/153
f 193/346/193 192/345/192 153/303/153
f 194/347/194 193/346/193 153/303/153
f 195/348/195 194/347/194 153/303/153
f 196/349/196 195/348/195 153/303/153
f 197/350/197 196/349/196 153/303/153
f 198/351/198 197/350/197 153/303/153
f 199/352/199 198/351/198 153/303/153
f 200/353/200 199/352/199 153/303/153
f 201/354/201 200/353/200 153/303/153
f 202/355/202 201/354/201 153/303/153
f 203/356/203 202/355/202 153/303/153
f 204/357/204 203/356/203 153/303/153
f 205/358/205 204/357/204 153/303/153
f 206/359/206 205/358/205 153/303/153
f 207/360/207 206/359/206 153/303/153
f 208/361/208 207/360/207 153/303/153
f 209/362/209 208/361/208 153/303/153
f 210/363/210 209/362/209 153/303/153
f 211/364/211 210/363/210 153/303/153
f 212/365/212 211/364/211 153/303/153
f 213/366/213 212/365/212 153/303/153
f 214/367/214 213/366/213 153/303/153
f 215/368/215 214/367/214 153/303/153
f 216/369/216 215/368/215 153/303/153
f 217/370/217 216/369/216 153/303/153
f 218/371/218 217/370/217 153/303/153
f 219/372/219 218/371/218 153/303/153
f 220/373/220 219/372/219 153/303/153
f 221/374/221 220/373/220 153/303/153
f 222/375/222 221/374/221 153/303/153
f 223/376/223 222/375/222 153/303/153
f 224/377/224 223/376/223 153/303/153
f 225/378/225 224/377/224 153/303/153
f 226/379/226 225/378/225 153/303/153
f 151/306/152 226/379/226 153/303/153
s 3
f 377/530/227 378/531/228 379/304/229
f 378/531/228 380/532/230 379/304/229
f 380/532/230 381/533/231 379/304/229
f 381/533/231 382/534/232 379/304/229
f 382/534/232 383/535/233 379/304/229
f 383/535/233 384/536/234 379/304/229
f 384/536/234 385/537/235 379/304/229
f 385/537/235 386/538/236 379/304/229
f 386/538/236 387/539/237 379/304/229
f 387/539/237 388/540/238 379/304/229
f 388/540/238 389/541/239 379/304/229
f 389/541/239 390/542/240 379/304/229
f 390/542/240 391/543/241 379/304/229
f 391/543/241 392/544/242 379/304/229
f 392/544/242 393/545/243 379/304/229
f 393/545/243 394/546/244 379/304/229
f 394/546/244 395/547/245 379/304/229
f 395/547/245 396/548/246 379/304/229
f 396/548/246 397/549/247 379/304/229
f 397/549/247 398/550/248 379/304/229
f 398/550/248 399/551/249 379/304/229
f 399/551/249 400/552/250 379/304/229
f 400/552/250 401/553/251 379/304/229
f 401/553/251 402/554/252 379/304/229
f 402/554/252 403/555/253 379/304/229
f 403/555/253 404/556/254 379/304/229
f 404/556/254 405/557/255 379/304/229
f 405/557/255 406/558/256 379/304/229
f 406/558/256 407/559/257 379/304/229
f 407/559/257 408/560/258 379/304/229
f 408/560/258 409/561/259 379/304/229
f 409/561/259 410/562/260 379/304/229
f 410/562/260 411/563/261 379/304/229
f 411/563/261 412/564/262 379/304/229
f 412/564/262 413/565/263 379/304/229
f 413/565/263 414/566/264 379/304/229
f 414/566/264 415/567/265 379/304/229
f 415/567/265 416/568/266 379/304/229
f 416/568/266 417/569/267 379/304/229
f 417/569/267 418/570/268 379/304/229
f 418/570/268 419/571/269 379/304/229
f 419/571/269 420/572/270 379/304/229
f 420/572/270 421/573/271 379/304/229
f 421/573/271 422/574/272 379/304/229
f 422/574/272 423/575/273 379/304/229
f 423/575/273 424/576/274 379/304/229
f 424/576/274 425/577/275 379/304/229
f 425/577/275 426/578/276 379/304/229
f 426/578/276 427/579/277 379/304/229
f 427/579/277 428/580/278 379/304/229
f 428/580/278 429/581/279 379/304/229
f 429/581/279 430/582/280 379/304/229
f 430/582/280 431/583/281 379/304/229
f 431/583/281 432/584/282 379/304/229
f 432/584/282 433/585/283 379/304/229
f 433/585/283 434/586/284 379/304/229
f 434/586/284 435/587/285 379/304/229
f 435/587/285 436/588/286 379/304/229
f 436/588/286 437/589/287 379/304/229
f 437/589/287 438/590/288 379/304/229
f 438/590/288 439/591/289 379/304/229
f 439/591/289 440/592/290 379/304/229
f 440/592/290 441/593/291 379/304/229
f 441/593/291 442/594/292 379/304/229
f 442/594/292 443/595/293 379/304/229
f 443/595/293 444/596/294 379/304/229
f 444/596/294 445/597/295 379/304/229
f 445/597/295 446/598/296 379/304/229
f 446/598/296 447/599/297 379/304/229
f 447/599/297 448/600/298 379/304/229
f 448/600/298 449/601/299 379/304/229
f 449/601/299 450/602/300 379/304/229
f 450/602/300 451/603/301 379/304/229
f 451/603/301 452/604/302 379/304/229
f 452/604/302 377/530/227 379/304/229
s off
f 2/2/303 1/1/304 151/306/305 152/305/306
f 3/3/307 2/2/308 152/305/309 154/307/310
f 4/4/311 3/3/312 154/307/313 155/308/314
f 5/5/315 4/4/316 155/308/317 156/309/318
f 6/6/319 5/5/320 156/309/321 157/310/322
f 7/7/323 6/6/324 157/310/325 158/311/326
f 8/8/327 7/7/328 158/311/329 159/312/330
f 9/9/331 8/8/332 159/312/333 160/313/334
f 10/10/335 9/9/336 160/313/337 161/314/338
f 11/11/339 10/10/340 161/314/341 162/315/342
f 12/12/343 11/11/344 162/315/345 163/316/346
f 13/13/347 12/12/348 163/316/349 164/317/350
f 14/14/351 13/13/352 164/317/353 165/318/354
f 15/15/355 14/14/356 165/318/357 166/319/358
f 16/16/359 15/15/360 166/319/361 167/320/362
f 17/17/363 16/16/364 167/320/365 168/321/366
f 18/18/367 17/17/368 168/321/369 169/322/370
f 19/19/371 18/18/372 169/322/373 170/323/374
f 20/20/375 19/19/376 170/323/377 171/324/378
f 21/21/379 20/20/380 171/324/381 172/325/382
f 22/22/383 21/21/384 172/325/385 173/326/386
f 23/23/387 22/22/388 173/326/389 174/327/390
f 24/24/391 23/23/392 174/327/393 175/328/394
f 25/25/395 24/24/396 175/328/397 176/329/398
f 26/26/399 25/25/400 176/329/401 177/330/402
f 27/27/403 26/26/404 177/330/405 178/331/406
f 28/28/407 27/27/408 178/331/409 179/332/410
f 29/29/411 28/28/412 179/332/413 180/333/414
f 30/30/415 29/29/416 180/333/417 181/334/418
f 31/31/419 30/30/420 181/334/421 182/335/422
f 32/32/423 31/31/424 182/335/425 183/336/426
f 33/33/427 32/32/428 183/336/429 184/337/430
f 34/34/431 33/33/432 184/337/433 185/338/434
f 35/35/435 34/34/436 185/338/437 186/339/438
f 36/36/439 35/35/440 186/339/441 187/340/442
f 37/37/443 36/36/444 187/340/445 188/341/446
f 38/38/447 37/37/448 188/341/449 189/342/450
f 39/39/451 38/38/452 189/342/453 190/343/454
f 40/40/455 39/39/456 190/343/457 191/344/458
f 41/41/459 40/40/460 191/344/461 192/345/462
f 42/42/463 41/41/464 192/345/465 193/346/466
f 43/43/467 42/42/468 193/346/469 194/347/470
f 44/44/471 43/43/472 194/347/473 195/348/474
f 45/45/475 44/44/476 195/348/477 196/349/478
f 46/46/479 45/45/480 196/349/481 197/350/482
f 47/47/483 46/46/484 197/350/485 198/351/486
f 48/48/487 47/47/488 198/351/489 199/352/490
f 49/49/491 48/48/492 199/352/493 200/353/494
f 50/50/495 49/49/496 200/353/497 201/354/498
f 51/51/499 50/50/500 201/354/501 202/355/502
f 52/52/503 51/51/504 202/355/505 203/356/506
f 53/53/507 52/52/508 203/356/509 204/357/510
f 54/54/511 53/53/512 204/357/513 205/358/514
f 55/55/515 54/54/516 205/358/517 206/359/518
f 56/56/519 55/55/520 206/359/521 207/360/522
f 57/57/523 56/56/524 207/360/525 208/361/526
f 58/58/527 57/57/528 208/361/529 209/362/530
f 59/59/531 58/58/532 209/362/533 210/363/534
f 60/60/535 59/59/536 210/363/537 211/364/538
f 61/61/539 60/60/540 211/364/541 212/365/542
f 62/62/543 61/61/544 212/365/545 213/366/546
f 63/63/547 62/62/548 213/366/549 214/367/550
f 64/64/551 63/63/552 214/367/553 215/368/554
f 65/65/555 64/64/556 215/368/557 216/369/558
f 66/66/559 65/65/560 216/369/561 217/370/562
f 67/67/563 66/66/564 217/370/565 218/371/566
f 68/68/567 67/67/568 218/371/569 219/372/570
f 69/69/571 68/68/572 219/372/573 220/373/574
f 70/70/575 69/69/576 220/373/577 221/374/578
f 71/71/579 70/70/580 221/374/581 222/375/582
f 72/72/583 71/71/584 222/375/585 223/376/586
f 73/73/587 72/72/588 223/376/589 224/377/590
f 74/74/591 73/73/592 224/377/593 225/378/594
f 75/75/595 74/74/596 225/378/597 226/379/598
f 1/1/599 75/75/600 226/379/601 151/306/602
f 76/301/603 77/300/604 228/381/605 227/380/606
f 77/300/607 78/299/608 229/382/609 228/381/610
f 78/299/611 79/298/612 230/383/613 229/382/614
f 79/298/615 80/297/616 231/384/617 230/383/618
f 80/297/619 81/296/620 232/385/621 231/384/622
f 81/296/623 82/295/624 233/386/625 232/385/626
f 82/295/627 83/294/628 234/387/629 233/386/630
f 83/294/631 84/293/632 235/388/633 234/387/634
f 84/293/635 85/292/636 236/389/637 235/388/638
f 85/292/639 86/291/640 237/390/641 236/389/642
f 86/291/643 87/290/644 238/391/645 237/390/646
f 87/290/647 88/289/648 239/392/649 238/391/650
f 88/289/651 89/288/652 240/393/653 239/392/654
f 89/288/655 90/287/656 241/394/657 240/393/658
f 90/287/659 91/286/660 242/395/661 241/394/662
f 91/286/663 92/285/664 243/396/665 242/395/666
f 92/285/667 93/284/668 244/397/669 243/396/670
f 93/284/671 94/283/672 245/398/673 244/397/674
f 94/283/675 95/282/676 246/399/677 245/398/678
f 95/282/679 96/281/680 247/400/681 246/399/682
f 96/281/683 97/280/684 248/401/685 247/400/686
f 97/280/687 98/279/688 249/402/689 248/401/690
f 98/279/691 99/278/692 250/403/693 249/402/694
f 99/278/695 100/277/696 251/404/697 250/403/698
f 100/277/699 101/276/700 252/405/701 251/404/702
f 101/276/703 102/275/704 253/406/705 252/405/706
f 102/275/707 103/274/708 254/407/709 253/406/710
f 103/274/711 104/273/712 255/408/713 254/407/714
f 104/273/715 105/272/716 256/409/717 255/408/718
f 105/272/719 106/271/720 257/410/721 256/409/722
f 106/271/723 107/270/724 258/411/725 257/410/726
f 107/270/727 108/269/728 259/412/729 258/411/730
f 108/269/731 109/268/732 260/413/733 259/412/734
f 109/268/735 110/267/736 261/414/737 260/413/738
f 110/267/739 111/266/740 262/415/741 261/414/742
f 111/266/743 112/265/744 263/416/745 262/415/746
f 112/265/747 113/264/748 264/417/749 263/416/750
f 113/264/751 114/263/752 265/418/753 264/417/754
f 114/263/755 115/262/756 266/419/757 265/418/758
f 115/262/759 116/261/760 267/420/761 266/419/762
f 116/261/763 117/260/764 268/421/765 267/420/766
f 117/260/767 118/259/768 269/422/769 268/421/770
f 118/259/771 119/258/772 270/423/773 269/422/774
f 119/258/775 120/257/776 271/424/777 270/423/778
f 120/257/779 121/256/780 272/425/781 271/424/782
f 121/256/783 122/255/784 273/426/785 272/425/786
f 122/255/787 123/254/788 274/427/789 273/426/790
f 123/254/791 124/253/792 275/428/793 274/427/794
f 124/253/795 125/252/796 276/429/797 275/428/798
f 125/252/799 126/251/800 277/430/801 276/429/802
f 126/251/803 127/250/804 278/431/805 277/430/806
f 127/250/807 128/249/808 279/432/809 278/431/810
f 128/249/811 129/248/812 280/433/813 279/432/814
f 129/248/815 130/247/816 281/434/817 280/433/818
f 130/247/819 131/246/820 282/435/821 281/434/822
f 131/246/823 132/245/824 283/436/825 282/435/826
f 132/245/827 133/244/828 284/437/829 283/436/830
f 133/244/831 134/243/832 285/438/833 284/437/834
f 134/243/835 135/242/836 286/439/837 285/438/838
f 135/242/839 136/241/840 287/440/841 286/439/842
f 136/241/843 137/240/844 288/441/845 287/440/846
f 137/240/847 138/239/848 289/442/849 288/441/850
f 138/239/851 139/238/852 290/443/853 289/442/854
f 139/238/855 140/237/856 291/444/857 290/443/858
f 140/237/859 141/236/860 292/445/861 291/444/862
f 141/236/863 142/235/864 293/446/865 292/445/866
f 142/235/867 143/234/868 294/447/869 293/446/870
f 143/234/871 144/233/872 295/448/873 294/447/874
f 144/233/875 145/232/876 296/449/877 295/448/878
f 145/232/879 146/231/880 297/450/881 296/449/882
f 146/231/883 147/230/884 298/451/885 297/450/886
f 147/230/887 148/229/888 299/452/889 298/451/890
f 148/229/891 149/228/892 300/453/893 299/452/894
f 149/228/895 150/302/896 301/454/897 300/453/898
f 150/302/899 76/301/900 227/380/901 301/454/902
f 227/380/903 228/381/904 303/456/905 302/455/906
f 228/381/907 229/382/908 304/457/909 303/456/910
f 229/382/911 230/383/912 305/458/913 304/457/914
f 230/383/915 231/384/916 306/459/917 305/458/918
f 231/384/919 232/385/920 307/460/921 306/459/922
f 232/385/923 233/386/924 308/461/925 307/460/926
f 233/386/927 234/387/928 309/462/929 308/461/930
f 234/387/931 235/388/932 310/463/933 309/462/934
f 235/388/935 236/389/936 311/464/937 310/463/938
f 236/389/939 237/390/940 312/465/941 311/464/942
f 237/390/943 238/391/944 313/466/945 312/465/946
f 238/391/947 239/392/948 314/467/949 313/466/950
f 239/392/951 240/393/952 315/468/953 314/467/954
f 240/393/955 241/394/956 316/469/957 315/468/958
f 241/394/959 242/395/960 317/470/961 316/469/962
f 242/395/963 243/396/964 318/471/965 317/470/966
f 243/396/967 244/397/968 319/472/969 318/471/970
f 244/397/971 245/398/972 320/473/973 319/472/974
f 245/398/975 246/399/976 321/474/977 320/473/978
f 246/399/979 247/400/980 322/475/981 321/474/982
f 247/400/983 248/401/984 323/476/985 322/475/986
f 248/401/987 249/402/988 324/477/989 323/476/990
f 249/402/991 250/403/992 325/478/993 324/477/994
f 250/403/995 251/404/996 326/479/997 325/478/998
f 251/404/999 252/405/1000 327/480/1001 326/479/1002
f 252/405/1003 253/406/1004 328/481/1005 327/480/1006
f 253/406/1007 254/407/1008 329/482/1009 328/481/1010
f 254/407/1011 255/408/1012 330/483/1013 329/482/1014
f 255/408/1015 256/409/1016 331/484/1017 330/483/1018
f 256/409/1019 257/410/1020 332/485/1021 331/484/1022
f 257/410/1023 258/411/1024 333/486/1025 332/485/1026
f 258/411/1027 259/412/1028 334/487/1029 333/486/1030
f 259/412/1031 260/413/1032 335/488/1033 334/487/1034
f 260/413/1035 261/414/1036 336/489/1037 335/488/1038
f 261/414/1039 262/415/1040 337/490/1041 336/489/1042
f 262/415/1043 263/416/1044 338/491/1045 337/490/1046
f 263/416/1047 264/417/1048 339/492/1049 338/491/1050
f 264/417/1051 265/418/1052 340/493/1053 339/492/1054
f 265/418/1055 266/419/1056 341/494/1057 340/493/1058
f 266/419/1059 267/420/1060 342/495/1061 341/494/1062
f 267/420/1063 268/421/1064 343/496/1065 342/495/1066
f 268/421/1067 269/422/1068 344/497/1069 343/496/1070
f 269/422/1071 270/423/1072 345/498/1073 344/497/1074
f 270/423/1075 271/424/1076 346/499/1077 345/498/1078
f 271/424/1079 272/425/1080 347/500/1081 346/499/1082
f 272/425/1083 273/426/1084 348/501/1085 347/500/1086
f 273/426/1087 274/427/1088 349/502/1089 348/501/1090
f 274/427/1091 275/428/1092 350/503/1093 349/502/1094
f 275/428/1095 276/429/1096 351/504/1097 350/503/1098
f 276/429/1099 277/430/1100 352/505/1101 351/504/1102
f 277/430/1103 278/431/1104 353/506/1105 352/505/1106
f 278/431/1107 279/432/1108 354/507/1109 353/506/1110
f 279/432/1111 280/433/1112 355/508/1113 354/507/1114
f 280/433/1115 281/434/1116 356/509/1117 355/508/1118
f 281/434/1119 282/435/1120 357/510/1121 356/509/1122
f 282/435/1123 283/436/1124 358/511/1125 357/510/1126
f 283/436/1127 284/437/1128 359/512/1129 358/511/1130
f 284/437/1131 285/438/1132 360/513/1133 359/512/1134
f 285/438/1135 286/439/1136 361/514/1137 360/513/1138
f 286/439/1139 287/440/1140 362/515/1141 361/514/1142
f 287/440/1143 288/441/1144 363/516/1145 362/515/1146
f 288/441/1147 289/442/1148 364/517/1149 363/516/1150
f 289/442/1151 290/443/1152 365/518/1153 364/517/1154
f 290/443/1155 291/444/1156 366/519/1157 365/518/1158
f 291/444/1159 292/445/1160 367/520/1161 366/519/1162
f 292/445/1163 293/446/1164 368/521/1165 367/520/1166
f 293/446/1167 294/447/1168 369/522/1169 368/521/1170
f 294/447/1171 295/448/1172 370/523/1173 369/522/1174
f 295/448/1175 296/449/1176 371/524/1177 370/523/1178
f 296/449/1179 297/450/1180 372/525/1181 371/524/1182
f 297/450/1183 298/451/1184 373/526/1185 372/525/1186
f 298/451/1187 299/452/1188 374/527/1189 373/526/1190
f 299/452/1191 300/453/1192 375/528/1193 374/527/1194
f 300/453/1195 301/454/1196 376/529/1197 375/528/1198
f 301/454/1199 227/380/1200 302/455/1201 376/529/1202
f 302/455/1203 303/456/1204 378/531/1205 377/530/1206
f 303/456/1207 304/457/1208 380/532/1209 378/531/1210
f 304/457/1211 305/458/1212 381/533/1213 380/532/1214
f 305/458/1215 306/459/1216 382/534/1217 381/533/1218
f 306/459/1219 307/460/1220 383/535/1221 382/534/1222
f 307/460/1223 308/461/1224 384/536/1225 383/535/1226
f 308/461/1227 309/462/1228 385/537/1229 384/536/1230
f 309/462/1231 310/463/1232 386/538/1233 385/537/1234
f 310/463/1235 311/464/1236 387/539/1237 386/538/1238
f 311/464/1239 312/465/1240 388/540/1241 387/539/1242
f 312/465/1243 313/466/1244 389/541/1245 388/540/1246
f 313/466/1247 314/467/1248 390/542/1249 389/541/1250
f 314/467/1251 315/468/1252 391/543/1253 390/542/1254
f 315/468/1255 316/469/1256 392/544/1257 391/543/1258
f 316/469/1259 317/470/1260 393/545/1261 392/544/1262
f 317/470/1263 318/471/1264 394/546/1265 393/545/1266
f 318/471/1267 319/472/1268 395/547/1269 394/546/1270
f 319/472/1271 320/473/1272 396/548/1273 395/547/1274
f 320/473/1275 321/474/1276 397/549/1277 396/548/1278
f 321/474/1279 322/475/1280 398/550/1281 397/549/1282
f 322/475/1283 323/476/1284 399/551/1285 398/550/1286
f 323/476/1287 324/477/1288 400/552/1289 399/551/1290
f 324/477/1291 325/478/1292 401/553/1293 400/552/1294
f 325/478/1295 326/479/1296 402/554/1297 401/553/1298
f 326/479/1299 327/480/1300 403/555/1301 402/554/1302
f 327/480/1303 328/481/1304 404/556/1305 403/555/1306
f 328/481/1307 329/482/1308 405/557/1309 404/556/1310
f 329/482/1311 330/483/1312 406/558/1313 405/557/1314
f 330/483/1315 331/484/1316 407/559/1317 406/558/1318
f 331/484/1319 332/485/1320 408/560/1321 407/559/1322
f 332/485/1323 333/486/1324 409/561/1325 408/560/1326
f 333/486/1327 334/487/1328 410/562/1329 409/561/1330
f 334/487/1331 335/488/1332 411/563/1333 410/562/1334
f 335/488/1335 336/489/1336 412/564/1337 411/563/1338
f 336/489/1339 337/490/1340 413/565/1341 412/564/1342
f 337/490/1343 338/491/1344 414/566/1345 413/565/1346
f 338/491/1347 339/492/1348 415/567/1349 414/566/1350
f 339/492/1351 340/493/1352 416/568/1353 415/567/1354
f 340/493/1355 341/494/1356 417/569/1357 416/568/1358
f 341/494/1359 342/495/1360 418/570/1361 417/569/1362
f 342/495/1363 343/496/1364 419/571/1365 418/570/1366
f 343/496/1367 344/497/1368 420/572/1369 419/571/1370
f 344/497/1371 345/498/1372 421/573/1373 420/572/1374
f 345/498/1375 346/499/1376 422/574/1377 421/573/1378
f 346/499/1379 347/500/1380 423/575/1381 422/574/1382
f 347/500/1383 348/501/1384 424/576/1385 423/575/1386
f 348/501/1387 349/502/1388 425/577/1389 424/576/1390
f 349/502/1391 350/503/1392 426/578/1393 425/577/1394
f 350/503/1395 351/504/1396 427/579/1397 426/578/1398
f 351/504/1399 352/505/1400 428/580/1401 427/579/1402
f 352/505/1403 353/506/1404 429/581/1405 428/580/1406
f 353/506/1407 354/507/1408 430/582/1409 429/581/1410
f 354/507/1411 355/508/1412 431/583/1413 430/582/1414
f 355/508/1415 356/509/1416 432/584/1417 431/583/1418
f 356/509/1419 357/510/1420 433/585/1421 432/584/1422
f 357/510/1423 358/511/1424 434/586/1425 433/585/1426
f 358/511/1427 359/512/1428 435/587/1429 434/586/1430
f 359/512/1431 360/513/1432 436/588/1433 435/587/1434
f 360/513/1435 361/514/1436 437/589/1437 436/588/1438
f 361/514/1439 362/515/1440 438/590/1441 437/589/1442
f 362/515/1443 363/516/1444 439/591/1445 438/590/1446
f 363/516/1447 364/517/1448 440/592/1449 439/591/1450
f 364/517/1451 365/518/1452 441/593/1453 440/592/1454
f 365/518/1455 366/519/1456 442/594/1457 441/593/1458
f 366/519/1459 367/520/1460 443/595/1461 442/594/1462
f 367/520/1463 368/521/1464 444/596/1465 443/595/1466
f 368/521/1467 369/522/1468 445/597/1469 444/596/1470
f 369/522/1471 370/523/1472 446/598/1473 445/597/1474
f 370/523/1475 371/524/1476 447/599/1477 446/598/1478
f 371/524/1479 372/525/1480 448/600/1481 447/599/1482
f 372/525/1483 373/526/1484 449/601/1485 448/600/1486
f 373/526/1487 374/527/1488 450/602/1489 449/601/1490
f 374/527/1491 375/528/1492 451/603/1493 450/602/1494
f 375/528/1495 376/529/1496 452/604/1497 451/603/1498
f 376/529/1499 302/455/1500 377/530/1501 452/604/1502
