# This file uses centimeters as units for non-parametric coordinates.

mtllib Jumeleur-de-tuyau-externe.mtl
g default
v 0.992116 -1.000000 -0.125333
v 0.968584 -1.000000 -0.248690
v 0.929777 -1.000000 -0.368125
v 0.876307 -1.000000 -0.481754
v 0.809018 -1.000000 -0.587786
v 0.728969 -1.000000 -0.684548
v 0.637425 -1.000000 -0.770514
v 0.535827 -1.000000 -0.844329
v 0.425780 -1.000000 -0.904828
v 0.309017 -1.000000 -0.951057
v 0.187381 -1.000000 -0.982288
v 0.062790 -1.000000 -0.998028
v -0.062791 -1.000000 -0.998028
v -0.187382 -1.000000 -0.982288
v -0.309017 -1.000000 -0.951057
v -0.425780 -1.000000 -0.904828
v -0.535827 -1.000000 -0.844328
v -0.637424 -1.000000 -0.770514
v -0.728969 -1.000000 -0.684547
v -0.809018 -1.000000 -0.587786
v -0.876307 -1.000000 -0.481754
v -0.929777 -1.000000 -0.368125
v -0.968584 -1.000000 -0.248690
v -0.992115 -1.000000 -0.125333
v -1.000001 -1.000000 0.000000
v -0.992115 -1.000000 0.125333
v -0.968584 -1.000000 0.248690
v -0.929777 -1.000000 0.368125
v -0.876307 -1.000000 0.481754
v -0.809017 -1.000000 0.587786
v -0.728969 -1.000000 0.684547
v -0.637424 -1.000000 0.770514
v -0.535827 -1.000000 0.844328
v -0.425779 -1.000000 0.904827
v -0.309017 -1.000000 0.951057
v -0.187381 -1.000000 0.982288
v -0.062790 -1.000000 0.998027
v 0.062791 -1.000000 0.998027
v 0.187381 -1.000000 0.982287
v 0.309017 -1.000000 0.951057
v 0.425779 -1.000000 0.904827
v 0.535827 -1.000000 0.844328
v 0.637424 -1.000000 0.770513
v 0.728969 -1.000000 0.684547
v 0.809017 -1.000000 0.587785
v 0.876307 -1.000000 0.481754
v 0.929776 -1.000000 0.368125
v 0.968583 -1.000000 0.248690
v 0.992115 -1.000000 0.125333
v 1.000000 -1.000000 0.000000
v 0.992116 1.000000 -0.125333
v 0.968584 1.000000 -0.248690
v 0.929777 1.000000 -0.368125
v 0.876307 1.000000 -0.481754
v 0.809018 1.000000 -0.587786
v 0.728969 1.000000 -0.684548
v 0.637425 1.000000 -0.770514
v 0.535827 1.000000 -0.844329
v 0.425780 1.000000 -0.904828
v 0.309017 1.000000 -0.951057
v 0.187381 1.000000 -0.982288
v 0.062790 1.000000 -0.998028
v -0.062791 1.000000 -0.998028
v -0.187382 1.000000 -0.982288
v -0.309017 1.000000 -0.951057
v -0.425780 1.000000 -0.904828
v -0.535827 1.000000 -0.844328
v -0.637424 1.000000 -0.770514
v -0.728969 1.000000 -0.684547
v -0.809018 1.000000 -0.587786
v -0.876307 1.000000 -0.481754
v -0.929777 1.000000 -0.368125
v -0.968584 1.000000 -0.248690
v -0.992115 1.000000 -0.125333
v -1.000001 1.000000 0.000000
v -0.992115 1.000000 0.125333
v -0.968584 1.000000 0.248690
v -0.929777 1.000000 0.368125
v -0.876307 1.000000 0.481754
v -0.809017 1.000000 0.587786
v -0.728969 1.000000 0.684547
v -0.637424 1.000000 0.770514
v -0.535827 1.000000 0.844328
v -0.425779 1.000000 0.904827
v -0.309017 1.000000 0.951057
v -0.187381 1.000000 0.982288
v -0.062790 1.000000 0.998027
v 0.062791 1.000000 0.998027
v 0.187381 1.000000 0.982287
v 0.309017 1.000000 0.951057
v 0.425779 1.000000 0.904827
v 0.535827 1.000000 0.844328
v 0.637424 1.000000 0.770513
v 0.728969 1.000000 0.684547
v 0.809017 1.000000 0.587785
v 0.876307 1.000000 0.481754
v 0.929776 1.000000 0.368125
v 0.968583 1.000000 0.248690
v 0.992115 1.000000 0.125333
v 1.000000 1.000000 0.000000
v 0.879009 1.000000 -0.111045
v 0.858160 1.000000 -0.220338
v 0.823778 1.000000 -0.326157
v 0.776404 1.000000 -0.426832
v 0.716785 1.000000 -0.520775
v 0.645863 1.000000 -0.606506
v 0.564755 1.000000 -0.682671
v 0.474740 1.000000 -0.748071
v 0.377238 1.000000 -0.801673
v 0.273787 1.000000 -0.842632
v 0.166019 1.000000 -0.870302
v 0.055632 1.000000 -0.884247
v -0.055632 1.000000 -0.884247
v -0.166019 1.000000 -0.870302
v -0.273788 1.000000 -0.842632
v -0.377239 1.000000 -0.801672
v -0.474740 1.000000 -0.748070
v -0.564755 1.000000 -0.682671
v -0.645863 1.000000 -0.606505
v -0.716785 1.000000 -0.520775
v -0.776404 1.000000 -0.426831
v -0.823777 1.000000 -0.326156
v -0.858160 1.000000 -0.220338
v -0.879009 1.000000 -0.111045
v -0.885995 1.000000 0.000000
v -0.879009 1.000000 0.111045
v -0.858160 1.000000 0.220338
v -0.823777 1.000000 0.326157
v -0.776403 1.000000 0.426831
v -0.716785 1.000000 0.520775
v -0.645862 1.000000 0.606505
v -0.564754 1.000000 0.682671
v -0.474740 1.000000 0.748070
v -0.377238 1.000000 0.801672
v -0.273787 1.000000 0.842631
v -0.166019 1.000000 0.870301
v -0.055632 1.000000 0.884246
v 0.055632 1.000000 0.884246
v 0.166019 1.000000 0.870301
v 0.273787 1.000000 0.842631
v 0.377238 1.000000 0.801672
v 0.474740 1.000000 0.748070
v 0.564754 1.000000 0.682671
v 0.645862 1.000000 0.606505
v 0.716785 1.000000 0.520774
v 0.776403 1.000000 0.426831
v 0.823777 1.000000 0.326156
v 0.858159 1.000000 0.220338
v 0.879008 1.000000 0.111045
v 0.885995 1.000000 -0.000000
v 0.879009 -0.895195 -0.111045
v 0.858160 -0.895195 -0.220338
v -0.000000 -0.895195 -0.000000
v 0.823778 -0.895195 -0.326157
v 0.776404 -0.895195 -0.426832
v 0.716785 -0.895195 -0.520775
v 0.645863 -0.895195 -0.606506
v 0.564755 -0.895195 -0.682671
v 0.474740 -0.895195 -0.748071
v 0.377238 -0.895195 -0.801673
v 0.273787 -0.895195 -0.842632
v 0.166019 -0.895195 -0.870302
v 0.055632 -0.895195 -0.884247
v -0.055632 -0.895195 -0.884247
v -0.166019 -0.895195 -0.870302
v -0.273788 -0.895195 -0.842632
v -0.377239 -0.895195 -0.801672
v -0.474740 -0.895195 -0.748070
v -0.564755 -0.895195 -0.682671
v -0.645863 -0.895195 -0.606505
v -0.716785 -0.895195 -0.520775
v -0.776404 -0.895195 -0.426831
v -0.823777 -0.895195 -0.326156
v -0.858160 -0.895195 -0.220338
v -0.879009 -0.895195 -0.111045
v -0.885995 -0.895195 0.000000
v -0.879009 -0.895195 0.111045
v -0.858160 -0.895195 0.220338
v -0.823777 -0.895195 0.326157
v -0.776403 -0.895195 0.426831
v -0.716785 -0.895195 0.520775
v -0.645862 -0.895195 0.606505
v -0.564754 -0.895195 0.682671
v -0.474740 -0.895195 0.748070
v -0.377238 -0.895195 0.801672
v -0.273787 -0.895195 0.842631
v -0.166019 -0.895195 0.870301
v -0.055632 -0.895195 0.884246
v 0.055632 -0.895195 0.884246
v 0.166019 -0.895195 0.870301
v 0.273787 -0.895195 0.842631
v 0.377238 -0.895195 0.801672
v 0.474740 -0.895195 0.748070
v 0.564754 -0.895195 0.682671
v 0.645862 -0.895195 0.606505
v 0.716785 -0.895195 0.520774
v 0.776403 -0.895195 0.426831
v 0.823777 -0.895195 0.326156
v 0.858159 -0.895195 0.220338
v 0.879008 -0.895195 0.111045
v 0.885995 -0.895195 -0.000000
v 0.992116 -2.158969 -0.125333
v 0.968584 -2.158969 -0.248690
v 0.929777 -2.158969 -0.368125
v 0.876307 -2.158969 -0.481754
v 0.809018 -2.158969 -0.587786
v 0.728969 -2.158969 -0.684548
v 0.637425 -2.158969 -0.770514
v 0.535827 -2.158969 -0.844329
v 0.425780 -2.158969 -0.904828
v 0.309017 -2.158969 -0.951057
v 0.187381 -2.158969 -0.982288
v 0.062790 -2.158969 -0.998028
v -0.062791 -2.158969 -0.998028
v -0.187382 -2.158969 -0.982288
v -0.309017 -2.158969 -0.951057
v -0.425780 -2.158969 -0.904828
v -0.535827 -2.158969 -0.844328
v -0.637424 -2.158969 -0.770514
v -0.728969 -2.158969 -0.684547
v -0.809018 -2.158969 -0.587786
v -0.876307 -2.158969 -0.481754
v -0.929777 -2.158969 -0.368125
v -0.968584 -2.158969 -0.248690
v -0.992115 -2.158969 -0.125333
v -1.000001 -2.158969 0.000000
v -0.992115 -2.158969 0.125333
v -0.968584 -2.158969 0.248690
v -0.929777 -2.158969 0.368125
v -0.876307 -2.158969 0.481754
v -0.809017 -2.158969 0.587786
v -0.728969 -2.158969 0.684547
v -0.637424 -2.158969 0.770514
v -0.535827 -2.158969 0.844328
v -0.425779 -2.158969 0.904827
v -0.309017 -2.158969 0.951057
v -0.187381 -2.158969 0.982288
v -0.062790 -2.158969 0.998027
v 0.062791 -2.158969 0.998027
v 0.187381 -2.158969 0.982287
v 0.309017 -2.158969 0.951057
v 0.425779 -2.158969 0.904827
v 0.535827 -2.158969 0.844328
v 0.637424 -2.158969 0.770513
v 0.728969 -2.158969 0.684547
v 0.809017 -2.158969 0.587785
v 0.876307 -2.158969 0.481754
v 0.929776 -2.158969 0.368125
v 0.968583 -2.158969 0.248690
v 0.992115 -2.158969 0.125333
v 1.000000 -2.158969 0.000000
v 0.869523 -2.158969 -0.109846
v 0.848900 -2.158969 -0.217960
v 0.814888 -2.158969 -0.322637
v 0.768025 -2.158969 -0.422226
v 0.709050 -2.158969 -0.515155
v 0.638893 -2.158969 -0.599961
v 0.558660 -2.158969 -0.675304
v 0.469617 -2.158969 -0.739998
v 0.373167 -2.158969 -0.793022
v 0.270833 -2.158969 -0.833539
v 0.164227 -2.158969 -0.860910
v 0.055032 -2.158969 -0.874705
v -0.055032 -2.158969 -0.874705
v -0.164228 -2.158969 -0.860910
v -0.270833 -2.158969 -0.833538
v -0.373168 -2.158969 -0.793021
v -0.469617 -2.158969 -0.739998
v -0.558660 -2.158969 -0.675304
v -0.638893 -2.158969 -0.599960
v -0.709050 -2.158969 -0.515155
v -0.768025 -2.158969 -0.422225
v -0.814888 -2.158969 -0.322637
v -0.848899 -2.158969 -0.217960
v -0.869523 -2.158969 -0.109846
v -0.876434 -2.158969 0.000000
v -0.869523 -2.158969 0.109846
v -0.848899 -2.158969 0.217960
v -0.814888 -2.158969 0.322637
v -0.768025 -2.158969 0.422225
v -0.709050 -2.158969 0.515155
v -0.638893 -2.158969 0.599960
v -0.558660 -2.158969 0.675304
v -0.469617 -2.158969 0.739998
v -0.373167 -2.158969 0.793021
v -0.270833 -2.158969 0.833538
v -0.164227 -2.158969 0.860910
v -0.055032 -2.158969 0.874704
v 0.055032 -2.158969 0.874704
v 0.164227 -2.158969 0.860910
v 0.270833 -2.158969 0.833538
v 0.373167 -2.158969 0.793021
v 0.469617 -2.158969 0.739997
v 0.558660 -2.158969 0.675304
v 0.638893 -2.158969 0.599960
v 0.709050 -2.158969 0.515155
v 0.768025 -2.158969 0.422225
v 0.814887 -2.158969 0.322637
v 0.848899 -2.158969 0.217960
v 0.869523 -2.158969 0.109846
v 0.876434 -2.158969 -0.000000
v 0.869523 -1.421378 -0.109846
v 0.848900 -1.421378 -0.217960
v -0.000000 -1.042134 -0.000000
v 0.814888 -1.421378 -0.322637
v 0.768025 -1.421378 -0.422226
v 0.709050 -1.421378 -0.515155
v 0.638893 -1.421378 -0.599961
v 0.558660 -1.421378 -0.675304
v 0.469617 -1.421378 -0.739998
v 0.373167 -1.421378 -0.793022
v 0.270833 -1.421378 -0.833539
v 0.164227 -1.421378 -0.860910
v 0.055032 -1.421378 -0.874705
v -0.055032 -1.421378 -0.874705
v -0.164228 -1.421378 -0.860910
v -0.270833 -1.421378 -0.833538
v -0.373168 -1.421378 -0.793021
v -0.469617 -1.421378 -0.739998
v -0.558660 -1.421378 -0.675304
v -0.638893 -1.421378 -0.599960
v -0.709050 -1.421378 -0.515155
v -0.768025 -1.421378 -0.422225
v -0.814888 -1.421378 -0.322637
v -0.848899 -1.421378 -0.217960
v -0.869523 -1.421378 -0.109846
v -0.876434 -1.421378 0.000000
v -0.869523 -1.421378 0.109846
v -0.848899 -1.421378 0.217960
v -0.814888 -1.421378 0.322637
v -0.768025 -1.421378 0.422225
v -0.709050 -1.421378 0.515155
v -0.638893 -1.421378 0.599960
v -0.558660 -1.421378 0.675304
v -0.469617 -1.421378 0.739998
v -0.373167 -1.421378 0.793021
v -0.270833 -1.421378 0.833538
v -0.164227 -1.421378 0.860910
v -0.055032 -1.421378 0.874704
v 0.055032 -1.421378 0.874704
v 0.164227 -1.421378 0.860910
v 0.270833 -1.421378 0.833538
v 0.373167 -1.421378 0.793021
v 0.469617 -1.421378 0.739997
v 0.558660 -1.421378 0.675304
v 0.638893 -1.421378 0.599960
v 0.709050 -1.421378 0.515155
v 0.768025 -1.421378 0.422225
v 0.814887 -1.421378 0.322637
v 0.848899 -1.421378 0.217960
v 0.869523 -1.421378 0.109846
v 0.876434 -1.421378 -0.000000
vt 0.655018 0.136667
vt 0.651341 0.117392
vt 0.645278 0.098730
vt 0.636923 0.080976
vt 0.626409 0.064408
vt 0.613901 0.049289
vt 0.599598 0.035857
vt 0.583723 0.024324
vt 0.566528 0.014871
vt 0.548284 0.007647
vt 0.529278 0.002767
vt 0.509811 0.000308
vt 0.490189 0.000308
vt 0.470722 0.002768
vt 0.451716 0.007647
vt 0.433472 0.014871
vt 0.416277 0.024324
vt 0.400402 0.035857
vt 0.386099 0.049289
vt 0.373591 0.064409
vt 0.363077 0.080976
vt 0.354722 0.098731
vt 0.348659 0.117392
vt 0.344982 0.136667
vt 0.343750 0.156250
vt 0.344982 0.175833
vt 0.348659 0.195108
vt 0.354722 0.213770
vt 0.363077 0.231524
vt 0.373591 0.248092
vt 0.386099 0.263211
vt 0.400402 0.276643
vt 0.416277 0.288176
vt 0.433472 0.297629
vt 0.451716 0.304853
vt 0.470722 0.309732
vt 0.490189 0.312192
vt 0.509811 0.312192
vt 0.529278 0.309732
vt 0.548284 0.304853
vt 0.566528 0.297629
vt 0.583723 0.288176
vt 0.599598 0.276643
vt 0.613901 0.263210
vt 0.626409 0.248091
vt 0.636923 0.231524
vt 0.645278 0.213769
vt 0.651341 0.195108
vt 0.655018 0.175833
vt 0.656250 0.156250
vt 0.375000 0.312500
vt 0.380000 0.312500
vt 0.385000 0.312500
vt 0.390000 0.312500
vt 0.395000 0.312500
vt 0.400000 0.312500
vt 0.405000 0.312500
vt 0.410000 0.312500
vt 0.415000 0.312500
vt 0.420000 0.312500
vt 0.425000 0.312500
vt 0.430000 0.312500
vt 0.435000 0.312500
vt 0.440000 0.312500
vt 0.445000 0.312500
vt 0.450000 0.312500
vt 0.455000 0.312500
vt 0.460000 0.312500
vt 0.465000 0.312500
vt 0.470000 0.312500
vt 0.475000 0.312500
vt 0.480000 0.312500
vt 0.485000 0.312500
vt 0.490000 0.312500
vt 0.495000 0.312500
vt 0.500000 0.312500
vt 0.505000 0.312500
vt 0.510000 0.312500
vt 0.515000 0.312500
vt 0.520000 0.312500
vt 0.525000 0.312500
vt 0.530000 0.312500
vt 0.535000 0.312500
vt 0.540000 0.312500
vt 0.545000 0.312500
vt 0.550000 0.312500
vt 0.555000 0.312500
vt 0.560000 0.312500
vt 0.565000 0.312500
vt 0.570000 0.312500
vt 0.575000 0.312500
vt 0.580000 0.312500
vt 0.585000 0.312500
vt 0.590000 0.312500
vt 0.595000 0.312500
vt 0.600000 0.312500
vt 0.605000 0.312500
vt 0.610000 0.312500
vt 0.615000 0.312500
vt 0.620000 0.312500
vt 0.625000 0.312500
vt 0.375000 0.687500
vt 0.380000 0.687500
vt 0.385000 0.687500
vt 0.390000 0.687500
vt 0.395000 0.687500
vt 0.400000 0.687500
vt 0.405000 0.687500
vt 0.410000 0.687500
vt 0.415000 0.687500
vt 0.420000 0.687500
vt 0.425000 0.687500
vt 0.430000 0.687500
vt 0.435000 0.687500
vt 0.440000 0.687500
vt 0.445000 0.687500
vt 0.450000 0.687500
vt 0.455000 0.687500
vt 0.460000 0.687500
vt 0.465000 0.687500
vt 0.470000 0.687500
vt 0.475000 0.687500
vt 0.480000 0.687500
vt 0.485000 0.687500
vt 0.490000 0.687500
vt 0.495000 0.687500
vt 0.500000 0.687500
vt 0.505000 0.687500
vt 0.510000 0.687500
vt 0.515000 0.687500
vt 0.520000 0.687500
vt 0.525000 0.687500
vt 0.530000 0.687500
vt 0.535000 0.687500
vt 0.540000 0.687500
vt 0.545000 0.687500
vt 0.550000 0.687500
vt 0.555000 0.687500
vt 0.560000 0.687500
vt 0.565000 0.687500
vt 0.570000 0.687500
vt 0.575000 0.687500
vt 0.580000 0.687500
vt 0.585000 0.687500
vt 0.590000 0.687500
vt 0.595000 0.687500
vt 0.600000 0.687500
vt 0.605000 0.687500
vt 0.610000 0.687500
vt 0.615000 0.687500
vt 0.620000 0.687500
vt 0.625000 0.687500
vt 0.655018 0.824167
vt 0.651341 0.804892
vt 0.645278 0.786230
vt 0.636923 0.768476
vt 0.626409 0.751908
vt 0.613901 0.736789
vt 0.599598 0.723357
vt 0.583723 0.711824
vt 0.566528 0.702371
vt 0.548284 0.695147
vt 0.529278 0.690267
vt 0.509811 0.687808
vt 0.490189 0.687808
vt 0.470722 0.690268
vt 0.451716 0.695147
vt 0.433472 0.702371
vt 0.416277 0.711824
vt 0.400402 0.723357
vt 0.386099 0.736789
vt 0.373591 0.751909
vt 0.363077 0.768476
vt 0.354722 0.786231
vt 0.348659 0.804892
vt 0.344982 0.824167
vt 0.343750 0.843750
vt 0.344982 0.863333
vt 0.348659 0.882608
vt 0.354722 0.901270
vt 0.363077 0.919024
vt 0.373591 0.935592
vt 0.386099 0.950711
vt 0.400402 0.964143
vt 0.416277 0.975676
vt 0.433472 0.985129
vt 0.451716 0.992353
vt 0.470722 0.997232
vt 0.490189 0.999692
vt 0.509811 0.999692
vt 0.529278 0.997232
vt 0.548284 0.992353
vt 0.566528 0.985129
vt 0.583723 0.975676
vt 0.599598 0.964143
vt 0.613901 0.950710
vt 0.626409 0.935591
vt 0.636923 0.919024
vt 0.645278 0.901269
vt 0.651341 0.882608
vt 0.655018 0.863333
vt 0.656250 0.843750
vt 0.500000 0.156250
vt 0.500000 0.843750
vt 0.655018 0.863333
vt 0.651341 0.882608
vt 0.645278 0.901269
vt 0.636923 0.919024
vt 0.626409 0.935591
vt 0.613901 0.950710
vt 0.599598 0.964143
vt 0.583723 0.975676
vt 0.566528 0.985129
vt 0.548284 0.992353
vt 0.529278 0.997232
vt 0.509811 0.999692
vt 0.490189 0.999692
vt 0.470722 0.997232
vt 0.451716 0.992353
vt 0.433472 0.985129
vt 0.416277 0.975676
vt 0.400402 0.964143
vt 0.386099 0.950711
vt 0.373591 0.935592
vt 0.363077 0.919024
vt 0.354722 0.901270
vt 0.348659 0.882608
vt 0.344982 0.863333
vt 0.343750 0.843750
vt 0.344982 0.824167
vt 0.348659 0.804892
vt 0.354722 0.786231
vt 0.363077 0.768476
vt 0.373591 0.751909
vt 0.386099 0.736789
vt 0.400402 0.723357
vt 0.416277 0.711824
vt 0.433472 0.702371
vt 0.451716 0.695147
vt 0.470722 0.690268
vt 0.490189 0.687808
vt 0.509811 0.687808
vt 0.529278 0.690267
vt 0.548284 0.695147
vt 0.566528 0.702371
vt 0.583723 0.711824
vt 0.599598 0.723357
vt 0.613901 0.736789
vt 0.626409 0.751908
vt 0.636923 0.768476
vt 0.645278 0.786230
vt 0.651341 0.804892
vt 0.655018 0.824167
vt 0.656250 0.843750
vt 0.655018 0.863333
vt 0.651341 0.882608
vt 0.645278 0.901269
vt 0.636923 0.919024
vt 0.626409 0.935591
vt 0.613901 0.950710
vt 0.599598 0.964143
vt 0.583723 0.975676
vt 0.566528 0.985129
vt 0.548284 0.992353
vt 0.529278 0.997232
vt 0.509811 0.999692
vt 0.490189 0.999692
vt 0.470722 0.997232
vt 0.451716 0.992353
vt 0.433472 0.985129
vt 0.416277 0.975676
vt 0.400402 0.964143
vt 0.386099 0.950711
vt 0.373591 0.935592
vt 0.363077 0.919024
vt 0.354722 0.901270
vt 0.348659 0.882608
vt 0.344982 0.863333
vt 0.343750 0.843750
vt 0.344982 0.824167
vt 0.348659 0.804892
vt 0.354722 0.786231
vt 0.363077 0.768476
vt 0.373591 0.751909
vt 0.386099 0.736789
vt 0.400402 0.723357
vt 0.416277 0.711824
vt 0.433472 0.702371
vt 0.451716 0.695147
vt 0.470722 0.690268
vt 0.490189 0.687808
vt 0.509811 0.687808
vt 0.529278 0.690267
vt 0.548284 0.695147
vt 0.566528 0.702371
vt 0.583723 0.711824
vt 0.599598 0.723357
vt 0.613901 0.736789
vt 0.626409 0.751908
vt 0.636923 0.768476
vt 0.645278 0.786230
vt 0.651341 0.804892
vt 0.655018 0.824167
vt 0.656250 0.843750
vt 0.651341 0.117392
vt 0.655018 0.136667
vt 0.645278 0.098730
vt 0.636923 0.080976
vt 0.626409 0.064408
vt 0.613901 0.049289
vt 0.599598 0.035857
vt 0.583723 0.024324
vt 0.566528 0.014871
vt 0.548284 0.007647
vt 0.529278 0.002767
vt 0.509811 0.000308
vt 0.490189 0.000308
vt 0.470722 0.002768
vt 0.451716 0.007647
vt 0.433472 0.014871
vt 0.416277 0.024324
vt 0.400402 0.035857
vt 0.386099 0.049289
vt 0.373591 0.064409
vt 0.363077 0.080976
vt 0.354722 0.098731
vt 0.348659 0.117392
vt 0.344982 0.136667
vt 0.343750 0.156250
vt 0.344982 0.175833
vt 0.348659 0.195108
vt 0.354722 0.213770
vt 0.363077 0.231524
vt 0.373591 0.248092
vt 0.386099 0.263211
vt 0.400402 0.276643
vt 0.416277 0.288176
vt 0.433472 0.297629
vt 0.451716 0.304853
vt 0.470722 0.309732
vt 0.490189 0.312192
vt 0.509811 0.312192
vt 0.529278 0.309732
vt 0.548284 0.304853
vt 0.566528 0.297629
vt 0.583723 0.288176
vt 0.599598 0.276643
vt 0.613901 0.263210
vt 0.626409 0.248091
vt 0.636923 0.231524
vt 0.645278 0.213769
vt 0.651341 0.195108
vt 0.655018 0.175833
vt 0.656250 0.156250
vt 0.651341 0.117392
vt 0.655018 0.136667
vt 0.645278 0.098730
vt 0.636923 0.080976
vt 0.626409 0.064408
vt 0.613901 0.049289
vt 0.599598 0.035857
vt 0.583723 0.024324
vt 0.566528 0.014871
vt 0.548284 0.007647
vt 0.529278 0.002767
vt 0.509811 0.000308
vt 0.490189 0.000308
vt 0.470722 0.002768
vt 0.451716 0.007647
vt 0.433472 0.014871
vt 0.416277 0.024324
vt 0.400402 0.035857
vt 0.386099 0.049289
vt 0.373591 0.064409
vt 0.363077 0.080976
vt 0.354722 0.098731
vt 0.348659 0.117392
vt 0.344982 0.136667
vt 0.343750 0.156250
vt 0.344982 0.175833
vt 0.348659 0.195108
vt 0.354722 0.213770
vt 0.363077 0.231524
vt 0.373591 0.248092
vt 0.386099 0.263211
vt 0.400402 0.276643
vt 0.416277 0.288176
vt 0.433472 0.297629
vt 0.451716 0.304853
vt 0.470722 0.309732
vt 0.490189 0.312192
vt 0.509811 0.312192
vt 0.529278 0.309732
vt 0.548284 0.304853
vt 0.566528 0.297629
vt 0.583723 0.288176
vt 0.599598 0.276643
vt 0.613901 0.263210
vt 0.626409 0.248091
vt 0.636923 0.231524
vt 0.645278 0.213769
vt 0.651341 0.195108
vt 0.655018 0.175833
vt 0.656250 0.156250
vt 0.651341 0.117392
vt 0.655018 0.136667
vt 0.645278 0.098730
vt 0.636923 0.080976
vt 0.626409 0.064408
vt 0.613901 0.049289
vt 0.599598 0.035857
vt 0.583723 0.024324
vt 0.566528 0.014871
vt 0.548284 0.007647
vt 0.529278 0.002767
vt 0.509811 0.000308
vt 0.490189 0.000308
vt 0.470722 0.002768
vt 0.451716 0.007647
vt 0.433472 0.014871
vt 0.416277 0.024324
vt 0.400402 0.035857
vt 0.386099 0.049289
vt 0.373591 0.064409
vt 0.363077 0.080976
vt 0.354722 0.098731
vt 0.348659 0.117392
vt 0.344982 0.136667
vt 0.343750 0.156250
vt 0.344982 0.175833
vt 0.348659 0.195108
vt 0.354722 0.213770
vt 0.363077 0.231524
vt 0.373591 0.248092
vt 0.386099 0.263211
vt 0.400402 0.276643
vt 0.416277 0.288176
vt 0.433472 0.297629
vt 0.451716 0.304853
vt 0.470722 0.309732
vt 0.490189 0.312192
vt 0.509811 0.312192
vt 0.529278 0.309732
vt 0.548284 0.304853
vt 0.566528 0.297629
vt 0.583723 0.288176
vt 0.599598 0.276643
vt 0.613901 0.263210
vt 0.626409 0.248091
vt 0.636923 0.231524
vt 0.645278 0.213769
vt 0.651341 0.195108
vt 0.655018 0.175833
vt 0.656250 0.156250
vn 0.992115 0.000000 -0.125329
vn 0.968583 0.000000 -0.248690
vn 0.968583 0.000000 -0.248690
vn 0.992115 0.000000 -0.125329
vn 0.929776 0.000000 -0.368125
vn 0.929776 0.000000 -0.368125
vn 0.876307 0.000000 -0.481754
vn 0.876306 0.000000 -0.481754
vn 0.809017 0.000000 -0.587785
vn 0.809017 0.000000 -0.587785
vn 0.728969 0.000000 -0.684547
vn 0.728969 0.000000 -0.684547
vn 0.637424 0.000000 -0.770513
vn 0.637424 0.000000 -0.770513
vn 0.535827 0.000000 -0.844328
vn 0.535827 0.000000 -0.844328
vn 0.425779 0.000000 -0.904827
vn 0.425779 0.000000 -0.904827
vn 0.309017 0.000000 -0.951057
vn 0.309017 0.000000 -0.951057
vn 0.187381 0.000000 -0.982287
vn 0.187381 0.000000 -0.982287
vn 0.062790 0.000000 -0.998027
vn 0.062790 0.000000 -0.998027
vn -0.062791 0.000000 -0.998027
vn -0.062791 0.000000 -0.998027
vn -0.187382 0.000000 -0.982287
vn -0.187382 0.000000 -0.982287
vn -0.309017 0.000000 -0.951056
vn -0.309017 0.000000 -0.951056
vn -0.425780 0.000000 -0.904827
vn -0.425780 0.000000 -0.904827
vn -0.535827 0.000000 -0.844328
vn -0.535827 0.000000 -0.844328
vn -0.637424 0.000000 -0.770513
vn -0.637424 0.000000 -0.770513
vn -0.728969 0.000000 -0.684547
vn -0.728969 0.000000 -0.684547
vn -0.809017 0.000000 -0.587785
vn -0.809017 0.000000 -0.587785
vn -0.876307 0.000000 -0.481754
vn -0.876307 0.000000 -0.481754
vn -0.929777 0.000000 -0.368124
vn -0.929777 0.000000 -0.368124
vn -0.968583 0.000000 -0.248690
vn -0.968583 0.000000 -0.248690
vn -0.992115 0.000000 -0.125333
vn -0.992115 0.000000 -0.125333
vn -1.000000 0.000000 0.000000
vn -1.000000 0.000000 0.000000
vn -0.992115 0.000000 0.125333
vn -0.992115 0.000000 0.125333
vn -0.968583 0.000000 0.248690
vn -0.968583 0.000000 0.248690
vn -0.929776 0.000000 0.368125
vn -0.929776 0.000000 0.368125
vn -0.876306 0.000000 0.481754
vn -0.876306 0.000000 0.481754
vn -0.809017 0.000000 0.587786
vn -0.809017 0.000000 0.587786
vn -0.728969 0.000000 0.684547
vn -0.728969 0.000000 0.684547
vn -0.637424 0.000000 0.770513
vn -0.637424 0.000000 0.770513
vn -0.535826 0.000000 0.844328
vn -0.535826 0.000000 0.844328
vn -0.425779 0.000000 0.904827
vn -0.425779 0.000000 0.904827
vn -0.309017 0.000000 0.951057
vn -0.309017 0.000000 0.951057
vn -0.187381 0.000000 0.982287
vn -0.187381 0.000000 0.982287
vn -0.062790 0.000000 0.998027
vn -0.062790 0.000000 0.998027
vn 0.062791 0.000000 0.998027
vn 0.062791 0.000000 0.998027
vn 0.187382 0.000000 0.982287
vn 0.187382 0.000000 0.982287
vn 0.309018 0.000000 0.951056
vn 0.309018 0.000000 0.951056
vn 0.425780 0.000000 0.904827
vn 0.425780 0.000000 0.904827
vn 0.535827 0.000000 0.844328
vn 0.535827 0.000000 0.844328
vn 0.637424 0.000000 0.770513
vn 0.637424 0.000000 0.770513
vn 0.728969 0.000000 0.684547
vn 0.728969 0.000000 0.684547
vn 0.809017 0.000000 0.587785
vn 0.809017 0.000000 0.587785
vn 0.876307 0.000000 0.481753
vn 0.876307 0.000000 0.481753
vn 0.929777 0.000000 0.368124
vn 0.929777 0.000000 0.368124
vn 0.968583 0.000000 0.248690
vn 0.968583 0.000000 0.248690
vn 0.992115 0.000000 0.125333
vn 0.992115 0.000000 0.125333
vn 1.000000 0.000000 0.000004
vn 1.000000 0.000000 0.000004
vn -0.384651 -0.917763 0.098762
vn -0.393997 -0.917763 0.049771
vn 0.000000 -1.000000 0.000000
vn -0.369240 -0.917763 0.146193
vn -0.348006 -0.917763 0.191317
vn -0.321283 -0.917763 0.233426
vn -0.289494 -0.917763 0.271853
vn -0.253139 -0.917763 0.305992
vn -0.212792 -0.917763 0.335306
vn -0.169089 -0.917763 0.359332
vn -0.122719 -0.917763 0.377691
vn -0.074414 -0.917763 0.390094
vn -0.024936 -0.917763 0.396344
vn 0.024936 -0.917763 0.396344
vn 0.074415 -0.917763 0.390094
vn 0.122719 -0.917763 0.377691
vn 0.169089 -0.917763 0.359332
vn 0.212792 -0.917763 0.335306
vn 0.253139 -0.917763 0.305992
vn 0.289494 -0.917763 0.271853
vn 0.321283 -0.917763 0.233426
vn 0.348006 -0.917763 0.191317
vn 0.369240 -0.917763 0.146192
vn 0.384651 -0.917763 0.098762
vn 0.393997 -0.917763 0.049774
vn 0.397128 -0.917763 0.000000
vn 0.393997 -0.917763 -0.049773
vn 0.384652 -0.917763 -0.098761
vn 0.369240 -0.917763 -0.146193
vn 0.348006 -0.917763 -0.191318
vn 0.321283 -0.917763 -0.233426
vn 0.289494 -0.917763 -0.271853
vn 0.253139 -0.917763 -0.305993
vn 0.212792 -0.917763 -0.335307
vn 0.169089 -0.917763 -0.359332
vn 0.122719 -0.917763 -0.377691
vn 0.074414 -0.917763 -0.390094
vn 0.024936 -0.917763 -0.396344
vn -0.024936 -0.917763 -0.396345
vn -0.074414 -0.917763 -0.390094
vn -0.122720 -0.917763 -0.377691
vn -0.169089 -0.917763 -0.359332
vn -0.212792 -0.917763 -0.335306
vn -0.253139 -0.917763 -0.305992
vn -0.289494 -0.917763 -0.271852
vn -0.321283 -0.917763 -0.233426
vn -0.348006 -0.917763 -0.191318
vn -0.369240 -0.917763 -0.146193
vn -0.384652 -0.917763 -0.098762
vn -0.393997 -0.917763 -0.049774
vn -0.397128 -0.917763 -0.000001
vn 0.000000 1.000000 0.000000
vn 0.000000 1.000000 0.000000
vn 0.000000 1.000000 0.000000
vn 0.000000 1.000000 0.000000
vn 0.000000 1.000000 -0.000001
vn 0.000000 1.000000 -0.000000
vn 0.000000 1.000000 0.000001
vn 0.000000 1.000000 0.000000
vn 0.000000 1.000000 0.000000
vn 0.000000 1.000000 0.000000
vn 0.000000 1.000000 0.000000
vn 0.000000 1.000000 0.000000
vn 0.000000 1.000000 0.000000
vn 0.000000 1.000000 0.000000
vn 0.000000 1.000000 0.000000
vn 0.000000 1.000000 0.000000
vn 0.000000 1.000000 0.000000
vn 0.000000 1.000000 0.000000
vn 0.000000 1.000000 -0.000001
vn 0.000000 1.000000 -0.000001
vn 0.000000 1.000000 0.000000
vn 0.000000 1.000000 -0.000001
vn 0.000000 1.000000 -0.000000
vn 0.000000 1.000000 -0.000000
vn 0.000000 1.000000 -0.000001
vn 0.000000 1.000000 0.000000
vn 0.000000 1.000000 0.000001
vn 0.000000 1.000000 0.000001
vn 0.000000 1.000000 0.000000
vn 0.000000 1.000000 0.000000
vn 0.000000 1.000000 0.000000
vn 0.000000 1.000000 0.000000
vn 0.000000 1.000000 0.000001
vn 0.000000 1.000000 0.000001
vn 0.000000 1.000000 0.000000
vn 0.000000 1.000000 0.000000
vn 0.000000 1.000000 0.000000
vn 0.000000 1.000000 -0.000000
vn 0.000000 1.000000 0.000000
vn 0.000000 1.000000 0.000000
vn 0.000000 1.000000 -0.000000
vn 0.000000 1.000000 -0.000000
vn 0.000000 1.000000 -0.000000
vn 0.000000 1.000000 -0.000000
vn 0.000000 1.000000 0.000000
vn 0.000000 1.000000 0.000000
vn 0.000000 1.000000 0.000001
vn 0.000000 1.000000 0.000001
vn 0.000000 1.000000 0.000000
vn 0.000000 1.000000 0.000000
vn 0.000000 1.000000 0.000000
vn 0.000000 1.000000 0.000000
vn 0.000000 1.000000 0.000000
vn 0.000000 1.000000 0.000000
vn 0.000000 1.000000 0.000000
vn 0.000000 1.000000 0.000000
vn 0.000000 1.000000 0.000000
vn 0.000000 1.000000 0.000000
vn 0.000000 1.000000 0.000000
vn 0.000000 1.000000 0.000000
vn 0.000000 1.000000 0.000000
vn 0.000000 1.000000 0.000000
vn 0.000000 1.000000 0.000000
vn 0.000000 1.000000 0.000000
vn 0.000000 1.000000 0.000000
vn 0.000000 1.000000 0.000000
vn 0.000000 1.000000 0.000000
vn 0.000000 1.000000 0.000000
vn 0.000000 1.000000 0.000000
vn 0.000000 1.000000 0.000000
vn 0.000000 1.000000 0.000000
vn 0.000000 1.000000 0.000000
vn 0.000000 1.000000 0.000000
vn 0.000000 1.000000 0.000000
vn 0.000000 1.000000 0.000000
vn 0.000000 1.000000 0.000000
vn 0.000000 1.000000 0.000000
vn 0.000000 1.000000 0.000000
vn 0.000000 1.000000 0.000000
vn 0.000000 1.000000 0.000000
vn 0.000000 1.000000 0.000000
vn 0.000000 1.000000 0.000000
vn 0.000000 1.000000 0.000000
vn 0.000000 1.000000 0.000000
vn 0.000000 1.000000 0.000000
vn 0.000000 1.000000 0.000000
vn 0.000000 1.000000 0.000000
vn 0.000000 1.000000 0.000000
vn 0.000000 1.000000 0.000000
vn 0.000000 1.000000 0.000000
vn 0.000000 1.000000 0.000000
vn 0.000000 1.000000 0.000000
vn 0.000000 1.000000 0.000000
vn 0.000000 1.000000 0.000000
vn 0.000000 1.000000 0.000000
vn 0.000000 1.000000 0.000000
vn 0.000000 1.000000 0.000000
vn 0.000000 1.000000 0.000000
vn 0.000000 1.000000 0.000000
vn 0.000000 1.000000 0.000000
vn 0.000000 1.000000 0.000000
vn 0.000000 1.000000 0.000000
vn 0.000000 1.000000 0.000000
vn 0.000000 1.000000 0.000000
vn 0.000000 1.000000 0.000000
vn 0.000000 1.000000 0.000000
vn 0.000000 1.000000 0.000000
vn 0.000000 1.000000 0.000000
vn 0.000000 1.000000 0.000000
vn 0.000000 1.000000 0.000000
vn 0.000000 1.000000 0.000000
vn 0.000000 1.000000 0.000000
vn 0.000000 1.000000 0.000000
vn 0.000000 1.000000 0.000000
vn 0.000000 1.000000 0.000000
vn 0.000000 1.000000 0.000000
vn 0.000000 1.000000 0.000000
vn 0.000000 1.000000 0.000000
vn 0.000000 1.000000 0.000000
vn 0.000000 1.000000 0.000000
vn 0.000000 1.000000 0.000000
vn 0.000000 1.000000 0.000000
vn 0.000000 1.000000 0.000000
vn 0.000000 1.000000 0.000000
vn 0.000000 1.000000 0.000000
vn 0.000000 1.000000 0.000000
vn 0.000000 1.000000 0.000000
vn 0.000000 1.000000 0.000000
vn 0.000000 1.000000 0.000000
vn 0.000000 1.000000 0.000000
vn 0.000000 1.000000 0.000000
vn 0.000000 1.000000 0.000000
vn 0.000000 1.000000 0.000000
vn 0.000000 1.000000 0.000000
vn 0.000000 1.000000 0.000000
vn 0.000000 1.000000 0.000000
vn 0.000000 1.000000 0.000000
vn 0.000000 1.000000 0.000000
vn 0.000000 1.000000 0.000000
vn 0.000000 1.000000 0.000000
vn 0.000000 1.000000 0.000000
vn 0.000000 1.000000 0.000000
vn 0.000000 1.000000 0.000000
vn 0.000000 1.000000 0.000000
vn 0.000000 1.000000 0.000000
vn 0.000000 1.000000 0.000000
vn 0.000000 1.000000 0.000000
vn 0.000000 1.000000 0.000000
vn 0.000000 1.000000 0.000000
vn 0.000000 1.000000 0.000000
vn 0.000000 1.000000 0.000000
vn 0.000000 1.000000 0.000000
vn 0.000000 1.000000 0.000000
vn 0.000000 1.000000 0.000000
vn 0.000000 1.000000 0.000000
vn 0.000000 1.000000 0.000000
vn 0.000000 1.000000 0.000000
vn 0.000000 1.000000 0.000000
vn 0.000000 1.000000 0.000000
vn 0.000000 1.000000 0.000000
vn 0.000000 1.000000 0.000000
vn 0.000000 1.000000 0.000000
vn 0.000000 1.000000 0.000000
vn 0.000000 1.000000 0.000000
vn 0.000000 1.000000 0.000000
vn 0.000000 1.000000 0.000000
vn 0.000000 1.000000 0.000000
vn 0.000000 1.000000 0.000000
vn 0.000000 1.000000 0.000000
vn 0.000000 1.000000 0.000000
vn 0.000000 1.000000 0.000000
vn 0.000000 1.000000 0.000000
vn 0.000000 1.000000 0.000000
vn 0.000000 1.000000 0.000000
vn 0.000000 1.000000 0.000000
vn 0.000000 1.000000 0.000000
vn 0.000000 1.000000 0.000000
vn 0.000000 1.000000 0.000000
vn 0.000000 1.000000 0.000000
vn 0.000000 1.000000 0.000000
vn 0.000000 1.000000 0.000000
vn 0.000000 1.000000 0.000000
vn 0.000000 1.000000 0.000000
vn 0.000000 1.000000 0.000000
vn 0.000000 1.000000 0.000000
vn 0.000000 1.000000 0.000000
vn 0.000000 1.000000 0.000000
vn 0.000000 1.000000 0.000000
vn 0.000000 1.000000 0.000000
vn 0.000000 1.000000 0.000000
vn 0.000000 1.000000 0.000000
vn 0.000000 1.000000 0.000000
vn 0.000000 1.000000 0.000000
vn 0.000000 1.000000 0.000000
vn 0.000000 1.000000 0.000000
vn 0.000000 1.000000 -0.000000
vn 0.000000 1.000000 -0.000000
vn 0.000000 1.000000 -0.000000
vn 0.000000 1.000000 -0.000000
vn 0.000000 1.000000 0.000000
vn 0.000000 1.000000 0.000000
vn 0.000000 1.000000 0.000000
vn 0.000000 1.000000 0.000000
vn 0.000000 1.000000 0.000000
vn 0.000000 1.000000 0.000000
vn 0.000000 1.000000 0.000000
vn 0.000000 1.000000 0.000000
vn 0.000000 1.000000 0.000000
vn 0.000000 1.000000 0.000000
vn 0.000000 1.000000 0.000000
vn 0.000000 1.000000 0.000000
vn 0.000000 1.000000 0.000000
vn 0.000000 1.000000 0.000000
vn 0.000000 1.000000 0.000000
vn 0.000000 1.000000 0.000000
vn 0.000000 1.000000 0.000000
vn 0.000000 1.000000 0.000000
vn 0.000000 1.000000 0.000000
vn 0.000000 1.000000 0.000000
vn 0.000000 1.000000 0.000000
vn 0.000000 1.000000 0.000000
vn 0.000000 1.000000 0.000000
vn 0.000000 1.000000 0.000000
vn 0.000000 1.000000 0.000000
vn 0.000000 1.000000 0.000000
vn 0.000000 1.000000 0.000000
vn 0.000000 1.000000 0.000000
vn 0.000000 1.000000 0.000000
vn 0.000000 1.000000 0.000000
vn 0.000000 1.000000 0.000000
vn 0.000000 1.000000 0.000000
vn 0.000000 1.000000 0.000000
vn 0.000000 1.000000 0.000000
vn 0.000000 1.000000 0.000000
vn 0.000000 1.000000 0.000000
vn 0.000000 1.000000 0.000000
vn 0.000000 1.000000 0.000000
vn 0.000000 1.000000 0.000000
vn 0.000000 1.000000 0.000000
vn 0.000000 1.000000 0.000000
vn 0.000000 1.000000 0.000000
vn 0.000000 1.000000 0.000000
vn 0.000000 1.000000 0.000000
vn 0.000000 1.000000 0.000000
vn 0.000000 1.000000 0.000000
vn 0.000000 1.000000 0.000000
vn 0.000000 1.000000 0.000000
vn 0.000000 1.000000 0.000000
vn 0.000000 1.000000 0.000000
vn 0.000000 1.000000 0.000000
vn 0.000000 1.000000 0.000000
vn -0.982287 0.000000 0.187382
vn -0.982287 0.000000 0.187382
vn -0.982287 0.000000 0.187382
vn -0.982287 0.000000 0.187382
vn -0.951056 0.000000 0.309017
vn -0.951056 0.000000 0.309017
vn -0.951056 0.000000 0.309017
vn -0.951056 0.000000 0.309017
vn -0.904827 0.000000 0.425779
vn -0.904827 0.000000 0.425779
vn -0.904827 0.000000 0.425779
vn -0.904827 0.000000 0.425779
vn -0.844328 0.000000 0.535827
vn -0.844328 0.000000 0.535827
vn -0.844328 0.000000 0.535827
vn -0.844328 0.000000 0.535827
vn -0.770513 0.000000 0.637424
vn -0.770513 0.000000 0.637424
vn -0.770513 0.000000 0.637424
vn -0.770513 0.000000 0.637424
vn -0.684547 0.000000 0.728969
vn -0.684547 0.000000 0.728969
vn -0.684547 0.000000 0.728969
vn -0.684547 0.000000 0.728969
vn -0.587785 0.000000 0.809017
vn -0.587785 0.000000 0.809017
vn -0.587785 0.000000 0.809017
vn -0.587785 0.000000 0.809017
vn -0.481753 0.000000 0.876307
vn -0.481753 0.000000 0.876307
vn -0.481753 0.000000 0.876307
vn -0.481753 0.000000 0.876307
vn -0.368124 0.000000 0.929777
vn -0.368124 0.000000 0.929777
vn -0.368124 0.000000 0.929777
vn -0.368124 0.000000 0.929777
vn -0.248690 0.000000 0.968583
vn -0.248690 0.000000 0.968583
vn -0.248690 0.000000 0.968583
vn -0.248690 0.000000 0.968583
vn -0.125333 0.000000 0.992115
vn -0.125333 0.000000 0.992115
vn -0.125333 0.000000 0.992115
vn -0.125333 0.000000 0.992115
vn 0.000000 0.000000 1.000000
vn 0.000000 0.000000 1.000000
vn 0.000000 0.000000 1.000000
vn 0.000000 0.000000 1.000000
vn 0.125334 0.000000 0.992115
vn 0.125334 0.000000 0.992115
vn 0.125334 0.000000 0.992115
vn 0.125334 0.000000 0.992115
vn 0.248690 0.000000 0.968583
vn 0.248690 0.000000 0.968583
vn 0.248690 0.000000 0.968583
vn 0.248690 0.000000 0.968583
vn 0.368125 0.000000 0.929776
vn 0.368125 0.000000 0.929776
vn 0.368125 0.000000 0.929776
vn 0.368125 0.000000 0.929776
vn 0.481754 0.000000 0.876307
vn 0.481754 0.000000 0.876307
vn 0.481754 0.000000 0.876307
vn 0.481754 0.000000 0.876307
vn 0.587785 0.000000 0.809017
vn 0.587785 0.000000 0.809017
vn 0.587785 0.000000 0.809017
vn 0.587785 0.000000 0.809017
vn 0.684547 0.000000 0.728969
vn 0.684547 0.000000 0.728969
vn 0.684547 0.000000 0.728969
vn 0.684547 0.000000 0.728969
vn 0.770513 0.000000 0.637424
vn 0.770513 0.000000 0.637424
vn 0.770513 0.000000 0.637424
vn 0.770513 0.000000 0.637424
vn 0.844328 0.000000 0.535827
vn 0.844328 0.000000 0.535827
vn 0.844328 0.000000 0.535827
vn 0.844328 0.000000 0.535827
vn 0.904827 0.000000 0.425779
vn 0.904827 0.000000 0.425779
vn 0.904827 0.000000 0.425779
vn 0.904827 0.000000 0.425779
vn 0.951057 0.000000 0.309017
vn 0.951057 0.000000 0.309017
vn 0.951057 0.000000 0.309017
vn 0.951057 0.000000 0.309017
vn 0.982287 0.000000 0.187382
vn 0.982287 0.000000 0.187382
vn 0.982287 0.000000 0.187382
vn 0.982287 0.000000 0.187382
vn 0.998027 0.000000 0.062790
vn 0.998027 0.000000 0.062790
vn 0.998027 0.000000 0.062790
vn 0.998027 0.000000 0.062790
vn 0.998027 0.000000 -0.062791
vn 0.998027 0.000000 -0.062791
vn 0.998027 0.000000 -0.062791
vn 0.998027 0.000000 -0.062791
vn 0.982287 0.000000 -0.187382
vn 0.982287 0.000000 -0.187382
vn 0.982287 0.000000 -0.187382
vn 0.982287 0.000000 -0.187382
vn 0.951057 0.000000 -0.309017
vn 0.951057 0.000000 -0.309017
vn 0.951057 0.000000 -0.309017
vn 0.951057 0.000000 -0.309017
vn 0.904827 0.000000 -0.425779
vn 0.904827 0.000000 -0.425779
vn 0.904827 0.000000 -0.425779
vn 0.904827 0.000000 -0.425779
vn 0.844328 0.000000 -0.535827
vn 0.844328 0.000000 -0.535827
vn 0.844328 0.000000 -0.535827
vn 0.844328 0.000000 -0.535827
vn 0.770513 0.000000 -0.637424
vn 0.770513 0.000000 -0.637424
vn 0.770513 0.000000 -0.637424
vn 0.770513 0.000000 -0.637424
vn 0.684547 0.000000 -0.728969
vn 0.684547 0.000000 -0.728969
vn 0.684547 0.000000 -0.728969
vn 0.684547 0.000000 -0.728969
vn 0.587785 0.000000 -0.809017
vn 0.587785 0.000000 -0.809017
vn 0.587785 0.000000 -0.809017
vn 0.587785 0.000000 -0.809017
vn 0.481753 0.000000 -0.876307
vn 0.481753 0.000000 -0.876307
vn 0.481753 0.000000 -0.876307
vn 0.481753 0.000000 -0.876307
vn 0.368125 0.000000 -0.929776
vn 0.368125 0.000000 -0.929776
vn 0.368125 0.000000 -0.929776
vn 0.368125 0.000000 -0.929776
vn 0.248689 0.000000 -0.968583
vn 0.248689 0.000000 -0.968583
vn 0.248689 0.000000 -0.968583
vn 0.248689 0.000000 -0.968583
vn 0.125333 0.000000 -0.992115
vn 0.125333 0.000000 -0.992115
vn 0.125333 0.000000 -0.992115
vn 0.125333 0.000000 -0.992115
vn 0.000000 0.000000 -1.000000
vn 0.000000 0.000000 -1.000000
vn 0.000000 0.000000 -1.000000
vn 0.000000 0.000000 -1.000000
vn -0.125334 0.000000 -0.992115
vn -0.125334 0.000000 -0.992115
vn -0.125334 0.000000 -0.992115
vn -0.125334 0.000000 -0.992115
vn -0.248690 0.000000 -0.968583
vn -0.248690 0.000000 -0.968583
vn -0.248690 0.000000 -0.968583
vn -0.248690 0.000000 -0.968583
vn -0.368125 0.000000 -0.929776
vn -0.368125 0.000000 -0.929776
vn -0.368125 0.000000 -0.929776
vn -0.368125 0.000000 -0.929776
vn -0.481753 0.000000 -0.876307
vn -0.481753 0.000000 -0.876307
vn -0.481753 0.000000 -0.876307
vn -0.481753 0.000000 -0.876307
vn -0.587785 0.000000 -0.809017
vn -0.587785 0.000000 -0.809017
vn -0.587785 0.000000 -0.809017
vn -0.587785 0.000000 -0.809017
vn -0.684547 0.000000 -0.728969
vn -0.684547 0.000000 -0.728969
vn -0.684547 0.000000 -0.728969
vn -0.684547 0.000000 -0.728969
vn -0.770514 0.000000 -0.637423
vn -0.770514 0.000000 -0.637423
vn -0.770514 0.000000 -0.637423
vn -0.770514 0.000000 -0.637423
vn -0.844328 0.000000 -0.535827
vn -0.844328 0.000000 -0.535827
vn -0.844328 0.000000 -0.535827
vn -0.844328 0.000000 -0.535827
vn -0.904827 0.000000 -0.425779
vn -0.904827 0.000000 -0.425779
vn -0.904827 0.000000 -0.425779
vn -0.904827 0.000000 -0.425779
vn -0.951057 0.000000 -0.309017
vn -0.951057 0.000000 -0.309017
vn -0.951057 0.000000 -0.309017
vn -0.951057 0.000000 -0.309017
vn -0.982287 0.000000 -0.187382
vn -0.982287 0.000000 -0.187382
vn -0.982287 0.000000 -0.187382
vn -0.982287 0.000000 -0.187382
vn -0.998027 0.000000 -0.062790
vn -0.998027 0.000000 -0.062790
vn -0.998027 0.000000 -0.062790
vn -0.998027 0.000000 -0.062790
vn -0.998027 0.000000 0.062782
vn -0.998027 0.000000 0.062782
vn -0.998027 0.000000 0.062782
vn -0.998027 0.000000 0.062782
vn 0.982287 0.000000 -0.187382
vn 0.982287 0.000000 -0.187382
vn 0.982287 0.000000 -0.187382
vn 0.982287 0.000000 -0.187382
vn 0.951056 0.000000 -0.309017
vn 0.951056 0.000000 -0.309017
vn 0.951056 0.000000 -0.309017
vn 0.951056 0.000000 -0.309017
vn 0.904827 0.000000 -0.425780
vn 0.904827 0.000000 -0.425780
vn 0.904827 0.000000 -0.425780
vn 0.904827 0.000000 -0.425780
vn 0.844328 0.000000 -0.535827
vn 0.844328 0.000000 -0.535827
vn 0.844328 0.000000 -0.535827
vn 0.844328 0.000000 -0.535827
vn 0.770513 0.000000 -0.637424
vn 0.770513 0.000000 -0.637424
vn 0.770513 0.000000 -0.637424
vn 0.770513 0.000000 -0.637424
vn 0.684547 0.000000 -0.728969
vn 0.684547 0.000000 -0.728969
vn 0.684547 0.000000 -0.728969
vn 0.684547 0.000000 -0.728969
vn 0.587785 0.000000 -0.809017
vn 0.587785 0.000000 -0.809017
vn 0.587785 0.000000 -0.809017
vn 0.587785 0.000000 -0.809017
vn 0.481754 0.000000 -0.876307
vn 0.481754 0.000000 -0.876307
vn 0.481754 0.000000 -0.876307
vn 0.481754 0.000000 -0.876307
vn 0.368124 0.000000 -0.929777
vn 0.368124 0.000000 -0.929777
vn 0.368124 0.000000 -0.929777
vn 0.368124 0.000000 -0.929777
vn 0.248690 0.000000 -0.968583
vn 0.248690 0.000000 -0.968583
vn 0.248690 0.000000 -0.968583
vn 0.248690 0.000000 -0.968583
vn 0.125333 0.000000 -0.992115
vn 0.125333 0.000000 -0.992115
vn 0.125333 0.000000 -0.992115
vn 0.125333 0.000000 -0.992115
vn -0.000001 0.000000 -1.000000
vn -0.000001 0.000000 -1.000000
vn -0.000001 0.000000 -1.000000
vn -0.000001 0.000000 -1.000000
vn -0.125333 0.000000 -0.992115
vn -0.125333 0.000000 -0.992115
vn -0.125333 0.000000 -0.992115
vn -0.125333 0.000000 -0.992115
vn -0.248691 0.000000 -0.968583
vn -0.248691 0.000000 -0.968583
vn -0.248691 0.000000 -0.968583
vn -0.248691 0.000000 -0.968583
vn -0.368125 0.000000 -0.929776
vn -0.368125 0.000000 -0.929776
vn -0.368125 0.000000 -0.929776
vn -0.368125 0.000000 -0.929776
vn -0.481754 0.000000 -0.876307
vn -0.481754 0.000000 -0.876307
vn -0.481754 0.000000 -0.876307
vn -0.481754 0.000000 -0.876307
vn -0.587786 0.000000 -0.809017
vn -0.587786 0.000000 -0.809017
vn -0.587786 0.000000 -0.809017
vn -0.587786 0.000000 -0.809017
vn -0.684547 0.000000 -0.728969
vn -0.684547 0.000000 -0.728969
vn -0.684547 0.000000 -0.728969
vn -0.684547 0.000000 -0.728969
vn -0.770514 0.000000 -0.637424
vn -0.770514 0.000000 -0.637424
vn -0.770514 0.000000 -0.637424
vn -0.770514 0.000000 -0.637424
vn -0.844328 0.000000 -0.535827
vn -0.844328 0.000000 -0.535827
vn -0.844328 0.000000 -0.535827
vn -0.844328 0.000000 -0.535827
vn -0.904827 0.000000 -0.425779
vn -0.904827 0.000000 -0.425779
vn -0.904827 0.000000 -0.425779
vn -0.904827 0.000000 -0.425779
vn -0.951057 0.000000 -0.309017
vn -0.951057 0.000000 -0.309017
vn -0.951057 0.000000 -0.309017
vn -0.951057 0.000000 -0.309017
vn -0.982287 0.000000 -0.187381
vn -0.982287 0.000000 -0.187381
vn -0.982287 0.000000 -0.187381
vn -0.982287 0.000000 -0.187381
vn -0.998027 0.000000 -0.062790
vn -0.998027 0.000000 -0.062790
vn -0.998027 0.000000 -0.062790
vn -0.998027 0.000000 -0.062790
vn -0.998027 0.000000 0.062791
vn -0.998027 0.000000 0.062791
vn -0.998027 0.000000 0.062791
vn -0.998027 0.000000 0.062791
vn -0.982287 0.000000 0.187381
vn -0.982287 0.000000 0.187381
vn -0.982287 0.000000 0.187381
vn -0.982287 0.000000 0.187381
vn -0.951056 0.000000 0.309017
vn -0.951056 0.000000 0.309017
vn -0.951056 0.000000 0.309017
vn -0.951056 0.000000 0.309017
vn -0.904827 0.000000 0.425780
vn -0.904827 0.000000 0.425780
vn -0.904827 0.000000 0.425780
vn -0.904827 0.000000 0.425780
vn -0.844328 0.000000 0.535827
vn -0.844328 0.000000 0.535827
vn -0.844328 0.000000 0.535827
vn -0.844328 0.000000 0.535827
vn -0.770513 0.000000 0.637424
vn -0.770513 0.000000 0.637424
vn -0.770513 0.000000 0.637424
vn -0.770513 0.000000 0.637424
vn -0.684547 0.000000 0.728969
vn -0.684547 0.000000 0.728969
vn -0.684547 0.000000 0.728969
vn -0.684547 0.000000 0.728969
vn -0.587785 0.000000 0.809017
vn -0.587785 0.000000 0.809017
vn -0.587785 0.000000 0.809017
vn -0.587785 0.000000 0.809017
vn -0.481753 0.000000 0.876307
vn -0.481753 0.000000 0.876307
vn -0.481753 0.000000 0.876307
vn -0.481753 0.000000 0.876307
vn -0.368124 0.000000 0.929777
vn -0.368124 0.000000 0.929777
vn -0.368124 0.000000 0.929777
vn -0.368124 0.000000 0.929777
vn -0.248689 0.000000 0.968583
vn -0.248689 0.000000 0.968583
vn -0.248689 0.000000 0.968583
vn -0.248689 0.000000 0.968583
vn -0.125333 0.000000 0.992115
vn -0.125333 0.000000 0.992115
vn -0.125333 0.000000 0.992115
vn -0.125333 0.000000 0.992115
vn 0.000000 0.000000 1.000000
vn 0.000000 0.000000 1.000000
vn 0.000000 0.000000 1.000000
vn 0.000000 0.000000 1.000000
vn 0.125334 0.000000 0.992115
vn 0.125334 0.000000 0.992115
vn 0.125334 0.000000 0.992115
vn 0.125334 0.000000 0.992115
vn 0.248690 0.000000 0.968583
vn 0.248690 0.000000 0.968583
vn 0.248690 0.000000 0.968583
vn 0.248690 0.000000 0.968583
vn 0.368125 0.000000 0.929776
vn 0.368125 0.000000 0.929776
vn 0.368125 0.000000 0.929776
vn 0.368125 0.000000 0.929776
vn 0.481754 0.000000 0.876307
vn 0.481754 0.000000 0.876307
vn 0.481754 0.000000 0.876307
vn 0.481754 0.000000 0.876307
vn 0.587785 0.000000 0.809017
vn 0.587785 0.000000 0.809017
vn 0.587785 0.000000 0.809017
vn 0.587785 0.000000 0.809017
vn 0.684547 0.000000 0.728968
vn 0.684547 0.000000 0.728968
vn 0.684547 0.000000 0.728968
vn 0.684547 0.000000 0.728968
vn 0.770513 0.000000 0.637424
vn 0.770513 0.000000 0.637424
vn 0.770513 0.000000 0.637424
vn 0.770513 0.000000 0.637424
vn 0.844328 0.000000 0.535826
vn 0.844328 0.000000 0.535826
vn 0.844328 0.000000 0.535826
vn 0.844328 0.000000 0.535826
vn 0.904827 0.000000 0.425779
vn 0.904827 0.000000 0.425779
vn 0.904827 0.000000 0.425779
vn 0.904827 0.000000 0.425779
vn 0.951057 0.000000 0.309017
vn 0.951057 0.000000 0.309017
vn 0.951057 0.000000 0.309017
vn 0.951057 0.000000 0.309017
vn 0.982287 0.000000 0.187381
vn 0.982287 0.000000 0.187381
vn 0.982287 0.000000 0.187381
vn 0.982287 0.000000 0.187381
vn 0.998027 0.000000 0.062790
vn 0.998027 0.000000 0.062790
vn 0.998027 0.000000 0.062790
vn 0.998027 0.000000 0.062790
vn 0.998027 0.000000 -0.062782
vn 0.998027 0.000000 -0.062782
vn 0.998027 0.000000 -0.062782
vn 0.998027 0.000000 -0.062782
vn 0.000000 -1.000000 0.000000
vn 0.000000 -1.000000 0.000000
vn 0.000000 -1.000000 0.000000
vn 0.000000 -1.000000 0.000000
vn 0.000000 -1.000000 -0.000001
vn 0.000000 -1.000000 -0.000001
vn 0.000000 -1.000000 -0.000001
vn 0.000000 -1.000000 -0.000001
vn 0.000000 -1.000000 -0.000001
vn 0.000000 -1.000000 -0.000001
vn 0.000000 -1.000000 -0.000001
vn 0.000000 -1.000000 -0.000001
vn 0.000000 -1.000000 -0.000001
vn 0.000000 -1.000000 -0.000001
vn 0.000000 -1.000000 -0.000001
vn 0.000000 -1.000000 -0.000001
vn 0.000000 -1.000000 0.000000
vn 0.000000 -1.000000 0.000000
vn 0.000000 -1.000000 0.000000
vn 0.000000 -1.000000 0.000000
vn 0.000000 -1.000000 0.000000
vn 0.000000 -1.000000 0.000000
vn 0.000000 -1.000000 0.000000
vn 0.000000 -1.000000 0.000000
vn 0.000000 -1.000000 -0.000001
vn 0.000000 -1.000000 -0.000001
vn 0.000000 -1.000000 -0.000001
vn 0.000000 -1.000000 -0.000001
vn 0.000000 -1.000000 0.000001
vn 0.000000 -1.000000 0.000001
vn 0.000000 -1.000000 0.000001
vn 0.000000 -1.000000 0.000001
vn 0.000000 -1.000000 0.000001
vn 0.000000 -1.000000 0.000001
vn 0.000000 -1.000000 0.000001
vn 0.000000 -1.000000 0.000001
vn 0.000000 -1.000000 0.000000
vn 0.000000 -1.000000 0.000000
vn 0.000000 -1.000000 0.000000
vn 0.000000 -1.000000 0.000000
vn 0.000000 -1.000000 0.000001
vn 0.000000 -1.000000 0.000001
vn 0.000000 -1.000000 0.000001
vn 0.000000 -1.000000 0.000001
vn 0.000000 -1.000000 0.000000
vn 0.000000 -1.000000 0.000000
vn 0.000000 -1.000000 0.000000
vn 0.000000 -1.000000 0.000000
vn 0.000000 -1.000000 0.000000
vn 0.000000 -1.000000 0.000000
vn 0.000000 -1.000000 0.000000
vn 0.000000 -1.000000 0.000000
vn 0.000000 -1.000000 -0.000001
vn 0.000000 -1.000000 -0.000001
vn 0.000000 -1.000000 -0.000001
vn 0.000000 -1.000000 -0.000001
vn 0.000000 -1.000000 -0.000001
vn 0.000000 -1.000000 -0.000001
vn 0.000000 -1.000000 -0.000001
vn 0.000000 -1.000000 -0.000001
vn 0.000000 -1.000000 0.000001
vn 0.000000 -1.000000 0.000001
vn 0.000000 -1.000000 0.000001
vn 0.000000 -1.000000 0.000001
vn 0.000000 -1.000000 0.000000
vn 0.000000 -1.000000 0.000000
vn 0.000000 -1.000000 0.000000
vn 0.000000 -1.000000 0.000000
vn 0.000000 -1.000000 0.000000
vn 0.000000 -1.000000 0.000000
vn 0.000000 -1.000000 0.000000
vn 0.000000 -1.000000 0.000000
vn 0.000000 -1.000000 -0.000001
vn 0.000000 -1.000000 -0.000001
vn 0.000000 -1.000000 -0.000001
vn 0.000000 -1.000000 -0.000001
vn 0.000000 -1.000000 0.000002
vn 0.000000 -1.000000 0.000002
vn 0.000000 -1.000000 0.000002
vn 0.000000 -1.000000 0.000002
vn 0.000000 -1.000000 -0.000001
vn 0.000000 -1.000000 -0.000001
vn 0.000000 -1.000000 -0.000001
vn 0.000000 -1.000000 -0.000001
vn 0.000000 -1.000000 0.000000
vn 0.000000 -1.000000 0.000000
vn 0.000000 -1.000000 0.000000
vn 0.000000 -1.000000 0.000000
vn 0.000000 -1.000000 0.000000
vn 0.000000 -1.000000 0.000000
vn 0.000000 -1.000000 0.000000
vn 0.000000 -1.000000 0.000000
vn 0.000000 -1.000000 0.000000
vn 0.000000 -1.000000 0.000000
vn 0.000000 -1.000000 0.000000
vn 0.000000 -1.000000 0.000000
vn 0.000000 -1.000000 -0.000002
vn 0.000000 -1.000000 -0.000002
vn 0.000000 -1.000000 -0.000002
vn 0.000000 -1.000000 -0.000002
vn 0.000000 -1.000000 0.000000
vn 0.000000 -1.000000 0.000000
vn 0.000000 -1.000000 0.000000
vn 0.000000 -1.000000 0.000000
vn 0.000000 -1.000000 -0.000001
vn 0.000000 -1.000000 -0.000001
vn 0.000000 -1.000000 -0.000001
vn 0.000000 -1.000000 -0.000001
vn 0.000000 -1.000000 0.000001
vn 0.000000 -1.000000 0.000001
vn 0.000000 -1.000000 0.000001
vn 0.000000 -1.000000 0.000001
vn 0.000000 -1.000000 0.000000
vn 0.000000 -1.000000 0.000000
vn 0.000000 -1.000000 0.000000
vn 0.000000 -1.000000 0.000000
vn 0.000000 -1.000000 0.000000
vn 0.000000 -1.000000 0.000000
vn 0.000000 -1.000000 0.000000
vn 0.000000 -1.000000 0.000000
vn 0.000000 -1.000000 0.000000
vn 0.000000 -1.000000 0.000000
vn 0.000000 -1.000000 0.000000
vn 0.000000 -1.000000 0.000000
vn 0.000000 -1.000000 -0.000001
vn 0.000000 -1.000000 -0.000001
vn 0.000000 -1.000000 -0.000001
vn 0.000000 -1.000000 -0.000001
vn 0.000000 -1.000000 0.000001
vn 0.000000 -1.000000 0.000001
vn 0.000000 -1.000000 0.000001
vn 0.000000 -1.000000 0.000001
vn 0.000000 -1.000000 0.000001
vn 0.000000 -1.000000 0.000001
vn 0.000000 -1.000000 0.000001
vn 0.000000 -1.000000 0.000001
vn 0.000000 -1.000000 -0.000000
vn 0.000000 -1.000000 -0.000000
vn 0.000000 -1.000000 -0.000000
vn 0.000000 -1.000000 -0.000000
vn 0.000000 -1.000000 -0.000000
vn 0.000000 -1.000000 -0.000000
vn 0.000000 -1.000000 -0.000000
vn 0.000000 -1.000000 -0.000000
vn 0.000000 -1.000000 -0.000001
vn 0.000000 -1.000000 -0.000001
vn 0.000000 -1.000000 -0.000001
vn 0.000000 -1.000000 -0.000001
vn 0.000000 -1.000000 0.000001
vn 0.000000 -1.000000 0.000001
vn 0.000000 -1.000000 0.000001
vn 0.000000 -1.000000 0.000001
vn 0.000000 -1.000000 0.000000
vn 0.000000 -1.000000 0.000000
vn 0.000000 -1.000000 0.000000
vn 0.000000 -1.000000 0.000000
vn 0.000000 -1.000000 0.000000
vn 0.000000 -1.000000 0.000000
vn 0.000000 -1.000000 0.000000
vn 0.000000 -1.000000 0.000000
vn 0.000000 -1.000000 -0.000001
vn 0.000000 -1.000000 -0.000001
vn 0.000000 -1.000000 -0.000001
vn 0.000000 -1.000000 -0.000001
vn 0.000000 -1.000000 0.000000
vn 0.000000 -1.000000 0.000000
vn 0.000000 -1.000000 0.000000
vn 0.000000 -1.000000 0.000000
vn 0.000000 -1.000000 0.000000
vn 0.000000 -1.000000 0.000000
vn 0.000000 -1.000000 0.000000
vn 0.000000 -1.000000 0.000000
vn 0.000000 -1.000000 0.000000
vn 0.000000 -1.000000 0.000000
vn 0.000000 -1.000000 0.000000
vn 0.000000 -1.000000 0.000000
vn 0.000000 -1.000000 0.000000
vn 0.000000 -1.000000 0.000000
vn 0.000000 -1.000000 0.000000
vn 0.000000 -1.000000 0.000000
vn 0.000000 -1.000000 0.000000
vn 0.000000 -1.000000 0.000000
vn 0.000000 -1.000000 0.000000
vn 0.000000 -1.000000 0.000000
vn 0.000000 -1.000000 0.000000
vn 0.000000 -1.000000 0.000000
vn 0.000000 -1.000000 0.000000
vn 0.000000 -1.000000 0.000000
vn 0.000000 -1.000000 0.000000
vn 0.000000 -1.000000 0.000000
vn 0.000000 -1.000000 0.000000
vn 0.000000 -1.000000 0.000000
vn 0.000000 -1.000000 0.000000
vn 0.000000 -1.000000 0.000000
vn 0.000000 -1.000000 0.000000
vn 0.000000 -1.000000 0.000000
vn 0.000000 -1.000000 0.000000
vn 0.000000 -1.000000 0.000000
vn 0.000000 -1.000000 0.000000
vn 0.000000 -1.000000 0.000000
vn -0.982287 0.000000 0.187381
vn -0.982287 0.000000 0.187381
vn -0.982287 0.000000 0.187381
vn -0.982287 0.000000 0.187381
vn -0.951056 0.000000 0.309017
vn -0.951056 0.000000 0.309017
vn -0.951056 0.000000 0.309017
vn -0.951056 0.000000 0.309017
vn -0.904827 0.000000 0.425779
vn -0.904827 0.000000 0.425779
vn -0.904827 0.000000 0.425779
vn -0.904827 0.000000 0.425779
vn -0.844328 0.000000 0.535827
vn -0.844328 0.000000 0.535827
vn -0.844328 0.000000 0.535827
vn -0.844328 0.000000 0.535827
vn -0.770513 0.000000 0.637424
vn -0.770513 0.000000 0.637424
vn -0.770513 0.000000 0.637424
vn -0.770513 0.000000 0.637424
vn -0.684547 0.000000 0.728969
vn -0.684547 0.000000 0.728969
vn -0.684547 0.000000 0.728969
vn -0.684547 0.000000 0.728969
vn -0.587785 0.000000 0.809017
vn -0.587785 0.000000 0.809017
vn -0.587785 0.000000 0.809017
vn -0.587785 0.000000 0.809017
vn -0.481754 0.000000 0.876307
vn -0.481754 0.000000 0.876307
vn -0.481754 0.000000 0.876307
vn -0.481754 0.000000 0.876307
vn -0.368124 0.000000 0.929777
vn -0.368124 0.000000 0.929777
vn -0.368124 0.000000 0.929777
vn -0.368124 0.000000 0.929777
vn -0.248690 0.000000 0.968583
vn -0.248690 0.000000 0.968583
vn -0.248690 0.000000 0.968583
vn -0.248690 0.000000 0.968583
vn -0.125332 0.000000 0.992115
vn -0.125332 0.000000 0.992115
vn -0.125332 0.000000 0.992115
vn -0.125332 0.000000 0.992115
vn 0.000000 0.000000 1.000000
vn 0.000000 0.000000 1.000000
vn 0.000000 0.000000 1.000000
vn 0.000000 0.000000 1.000000
vn 0.125334 0.000000 0.992115
vn 0.125334 0.000000 0.992115
vn 0.125334 0.000000 0.992115
vn 0.125334 0.000000 0.992115
vn 0.248690 0.000000 0.968583
vn 0.248690 0.000000 0.968583
vn 0.248690 0.000000 0.968583
vn 0.248690 0.000000 0.968583
vn 0.368125 0.000000 0.929776
vn 0.368125 0.000000 0.929776
vn 0.368125 0.000000 0.929776
vn 0.368125 0.000000 0.929776
vn 0.481754 0.000000 0.876307
vn 0.481754 0.000000 0.876307
vn 0.481754 0.000000 0.876307
vn 0.481754 0.000000 0.876307
vn 0.587786 0.000000 0.809017
vn 0.587786 0.000000 0.809017
vn 0.587786 0.000000 0.809017
vn 0.587786 0.000000 0.809017
vn 0.684547 0.000000 0.728969
vn 0.684547 0.000000 0.728969
vn 0.684547 0.000000 0.728969
vn 0.684547 0.000000 0.728969
vn 0.770514 0.000000 0.637424
vn 0.770514 0.000000 0.637424
vn 0.770514 0.000000 0.637424
vn 0.770514 0.000000 0.637424
vn 0.844328 0.000000 0.535827
vn 0.844328 0.000000 0.535827
vn 0.844328 0.000000 0.535827
vn 0.844328 0.000000 0.535827
vn 0.904827 0.000000 0.425779
vn 0.904827 0.000000 0.425779
vn 0.904827 0.000000 0.425779
vn 0.904827 0.000000 0.425779
vn 0.951057 0.000000 0.309017
vn 0.951057 0.000000 0.309017
vn 0.951057 0.000000 0.309017
vn 0.951057 0.000000 0.309017
vn 0.982287 0.000000 0.187381
vn 0.982287 0.000000 0.187381
vn 0.982287 0.000000 0.187381
vn 0.982287 0.000000 0.187381
vn 0.998027 0.000000 0.062790
vn 0.998027 0.000000 0.062790
vn 0.998027 0.000000 0.062790
vn 0.998027 0.000000 0.062790
vn 0.998027 0.000000 -0.062791
vn 0.998027 0.000000 -0.062791
vn 0.998027 0.000000 -0.062791
vn 0.998027 0.000000 -0.062791
vn 0.982287 0.000000 -0.187382
vn 0.982287 0.000000 -0.187382
vn 0.982287 0.000000 -0.187382
vn 0.982287 0.000000 -0.187382
vn 0.951057 0.000000 -0.309017
vn 0.951057 0.000000 -0.309017
vn 0.951057 0.000000 -0.309017
vn 0.951057 0.000000 -0.309017
vn 0.904827 0.000000 -0.425780
vn 0.904827 0.000000 -0.425780
vn 0.904827 0.000000 -0.425780
vn 0.904827 0.000000 -0.425780
vn 0.844328 0.000000 -0.535827
vn 0.844328 0.000000 -0.535827
vn 0.844328 0.000000 -0.535827
vn 0.844328 0.000000 -0.535827
vn 0.770513 0.000000 -0.637424
vn 0.770513 0.000000 -0.637424
vn 0.770513 0.000000 -0.637424
vn 0.770513 0.000000 -0.637424
vn 0.684547 0.000000 -0.728969
vn 0.684547 0.000000 -0.728969
vn 0.684547 0.000000 -0.728969
vn 0.684547 0.000000 -0.728969
vn 0.587786 0.000000 -0.809017
vn 0.587786 0.000000 -0.809017
vn 0.587786 0.000000 -0.809017
vn 0.587786 0.000000 -0.809017
vn 0.481753 0.000000 -0.876307
vn 0.481753 0.000000 -0.876307
vn 0.481753 0.000000 -0.876307
vn 0.481753 0.000000 -0.876307
vn 0.368124 0.000000 -0.929777
vn 0.368124 0.000000 -0.929777
vn 0.368124 0.000000 -0.929777
vn 0.368124 0.000000 -0.929777
vn 0.248690 0.000000 -0.968583
vn 0.248690 0.000000 -0.968583
vn 0.248690 0.000000 -0.968583
vn 0.248690 0.000000 -0.968583
vn 0.125333 0.000000 -0.992115
vn 0.125333 0.000000 -0.992115
vn 0.125333 0.000000 -0.992115
vn 0.125333 0.000000 -0.992115
vn -0.000001 0.000000 -1.000000
vn -0.000001 0.000000 -1.000000
vn -0.000001 0.000000 -1.000000
vn -0.000001 0.000000 -1.000000
vn -0.125333 0.000000 -0.992115
vn -0.125333 0.000000 -0.992115
vn -0.125333 0.000000 -0.992115
vn -0.125333 0.000000 -0.992115
vn -0.248691 0.000000 -0.968583
vn -0.248691 0.000000 -0.968583
vn -0.248691 0.000000 -0.968583
vn -0.248691 0.000000 -0.968583
vn -0.368125 0.000000 -0.929776
vn -0.368125 0.000000 -0.929776
vn -0.368125 0.000000 -0.929776
vn -0.368125 0.000000 -0.929776
vn -0.481754 0.000000 -0.876307
vn -0.481754 0.000000 -0.876307
vn -0.481754 0.000000 -0.876307
vn -0.481754 0.000000 -0.876307
vn -0.587785 0.000000 -0.809017
vn -0.587785 0.000000 -0.809017
vn -0.587785 0.000000 -0.809017
vn -0.587785 0.000000 -0.809017
vn -0.684547 0.000000 -0.728969
vn -0.684547 0.000000 -0.728969
vn -0.684547 0.000000 -0.728969
vn -0.684547 0.000000 -0.728969
vn -0.770514 0.000000 -0.637424
vn -0.770514 0.000000 -0.637424
vn -0.770514 0.000000 -0.637424
vn -0.770514 0.000000 -0.637424
vn -0.844328 0.000000 -0.535826
vn -0.844328 0.000000 -0.535826
vn -0.844328 0.000000 -0.535826
vn -0.844328 0.000000 -0.535826
vn -0.904827 0.000000 -0.425779
vn -0.904827 0.000000 -0.425779
vn -0.904827 0.000000 -0.425779
vn -0.904827 0.000000 -0.425779
vn -0.951057 0.000000 -0.309017
vn -0.951057 0.000000 -0.309017
vn -0.951057 0.000000 -0.309017
vn -0.951057 0.000000 -0.309017
vn -0.982287 0.000000 -0.187382
vn -0.982287 0.000000 -0.187382
vn -0.982287 0.000000 -0.187382
vn -0.982287 0.000000 -0.187382
vn -0.998027 0.000000 -0.062790
vn -0.998027 0.000000 -0.062790
vn -0.998027 0.000000 -0.062790
vn -0.998027 0.000000 -0.062790
vn -0.998027 0.000000 0.062783
vn -0.998027 0.000000 0.062783
vn -0.998027 0.000000 0.062783
vn -0.998027 0.000000 0.062783
s 1
g pCylinder1
usemtl initialShadingGroup
f 1/51/1 2/52/2 52/103/3 51/102/4
f 2/52/2 3/53/5 53/104/6 52/103/3
f 3/53/5 4/54/7 54/105/8 53/104/6
f 4/54/7 5/55/9 55/106/10 54/105/8
f 5/55/9 6/56/11 56/107/12 55/106/10
f 6/56/11 7/57/13 57/108/14 56/107/12
f 7/57/13 8/58/15 58/109/16 57/108/14
f 8/58/15 9/59/17 59/110/18 58/109/16
f 9/59/17 10/60/19 60/111/20 59/110/18
f 10/60/19 11/61/21 61/112/22 60/111/20
f 11/61/21 12/62/23 62/113/24 61/112/22
f 12/62/23 13/63/25 63/114/26 62/113/24
f 13/63/25 14/64/27 64/115/28 63/114/26
f 14/64/27 15/65/29 65/116/30 64/115/28
f 15/65/29 16/66/31 66/117/32 65/116/30
f 16/66/31 17/67/33 67/118/34 66/117/32
f 17/67/33 18/68/35 68/119/36 67/118/34
f 18/68/35 19/69/37 69/120/38 68/119/36
f 19/69/37 20/70/39 70/121/40 69/120/38
f 20/70/39 21/71/41 71/122/42 70/121/40
f 21/71/41 22/72/43 72/123/44 71/122/42
f 22/72/43 23/73/45 73/124/46 72/123/44
f 23/73/45 24/74/47 74/125/48 73/124/46
f 24/74/47 25/75/49 75/126/50 74/125/48
f 25/75/49 26/76/51 76/127/52 75/126/50
f 26/76/51 27/77/53 77/128/54 76/127/52
f 27/77/53 28/78/55 78/129/56 77/128/54
f 28/78/55 29/79/57 79/130/58 78/129/56
f 29/79/57 30/80/59 80/131/60 79/130/58
f 30/80/59 31/81/61 81/132/62 80/131/60
f 31/81/61 32/82/63 82/133/64 81/132/62
f 32/82/63 33/83/65 83/134/66 82/133/64
f 33/83/65 34/84/67 84/135/68 83/134/66
f 34/84/67 35/85/69 85/136/70 84/135/68
f 35/85/69 36/86/71 86/137/72 85/136/70
f 36/86/71 37/87/73 87/138/74 86/137/72
f 37/87/73 38/88/75 88/139/76 87/138/74
f 38/88/75 39/89/77 89/140/78 88/139/76
f 39/89/77 40/90/79 90/141/80 89/140/78
f 40/90/79 41/91/81 91/142/82 90/141/80
f 41/91/81 42/92/83 92/143/84 91/142/82
f 42/92/83 43/93/85 93/144/86 92/143/84
f 43/93/85 44/94/87 94/145/88 93/144/86
f 44/94/87 45/95/89 95/146/90 94/145/88
f 45/95/89 46/96/91 96/147/92 95/146/90
f 46/96/91 47/97/93 97/148/94 96/147/92
f 47/97/93 48/98/95 98/149/96 97/148/94
f 48/98/95 49/99/97 99/150/98 98/149/96
f 49/99/97 50/100/99 100/151/100 99/150/98
f 50/100/99 1/101/1 51/152/4 100/151/100
s 2
f 303/405/101 302/406/102 304/203/103
f 305/407/104 303/405/101 304/203/103
f 306/408/105 305/407/104 304/203/103
f 307/409/106 306/408/105 304/203/103
f 308/410/107 307/409/106 304/203/103
f 309/411/108 308/410/107 304/203/103
f 310/412/109 309/411/108 304/203/103
f 311/413/110 310/412/109 304/203/103
f 312/414/111 311/413/110 304/203/103
f 313/415/112 312/414/111 304/203/103
f 314/416/113 313/415/112 304/203/103
f 315/417/114 314/416/113 304/203/103
f 316/418/115 315/417/114 304/203/103
f 317/419/116 316/418/115 304/203/103
f 318/420/117 317/419/116 304/203/103
f 319/421/118 318/420/117 304/203/103
f 320/422/119 319/421/118 304/203/103
f 321/423/120 320/422/119 304/203/103
f 322/424/121 321/423/120 304/203/103
f 323/425/122 322/424/121 304/203/103
f 324/426/123 323/425/122 304/203/103
f 325/427/124 324/426/123 304/203/103
f 326/428/125 325/427/124 304/203/103
f 327/429/126 326/428/125 304/203/103
f 328/430/127 327/429/126 304/203/103
f 329/431/128 328/430/127 304/203/103
f 330/432/129 329/431/128 304/203/103
f 331/433/130 330/432/129 304/203/103
f 332/434/131 331/433/130 304/203/103
f 333/435/132 332/434/131 304/203/103
f 334/436/133 333/435/132 304/203/103
f 335/437/134 334/436/133 304/203/103
f 336/438/135 335/437/134 304/203/103
f 337/439/136 336/438/135 304/203/103
f 338/440/137 337/439/136 304/203/103
f 339/441/138 338/440/137 304/203/103
f 340/442/139 339/441/138 304/203/103
f 341/443/140 340/442/139 304/203/103
f 342/444/141 341/443/140 304/203/103
f 343/445/142 342/444/141 304/203/103
f 344/446/143 343/445/142 304/203/103
f 345/447/144 344/446/143 304/203/103
f 346/448/145 345/447/144 304/203/103
f 347/449/146 346/448/145 304/203/103
f 348/450/147 347/449/146 304/203/103
f 349/451/148 348/450/147 304/203/103
f 350/452/149 349/451/148 304/203/103
f 351/453/150 350/452/149 304/203/103
f 352/454/151 351/453/150 304/203/103
f 302/406/102 352/454/151 304/203/103
s 3
f 151/255/152 152/256/153 153/204/154
f 152/256/153 154/257/155 153/204/154
f 154/257/155 155/258/156 153/204/154
f 155/258/156 156/259/157 153/204/154
f 156/259/157 157/260/158 153/204/154
f 157/260/158 158/261/159 153/204/154
f 158/261/159 159/262/160 153/204/154
f 159/262/160 160/263/161 153/204/154
f 160/263/161 161/264/162 153/204/154
f 161/264/162 162/265/163 153/204/154
f 162/265/163 163/266/164 153/204/154
f 163/266/164 164/267/165 153/204/154
f 164/267/165 165/268/166 153/204/154
f 165/268/166 166/269/167 153/204/154
f 166/269/167 167/270/168 153/204/154
f 167/270/168 168/271/169 153/204/154
f 168/271/169 169/272/170 153/204/154
f 169/272/170 170/273/171 153/204/154
f 170/273/171 171/274/172 153/204/154
f 171/274/172 172/275/173 153/204/154
f 172/275/173 173/276/174 153/204/154
f 173/276/174 174/277/175 153/204/154
f 174/277/175 175/278/176 153/204/154
f 175/278/176 176/279/177 153/204/154
f 176/279/177 177/280/178 153/204/154
f 177/280/178 178/281/179 153/204/154
f 178/281/179 179/282/180 153/204/154
f 179/282/180 180/283/181 153/204/154
f 180/283/181 181/284/182 153/204/154
f 181/284/182 182/285/183 153/204/154
f 182/285/183 183/286/184 153/204/154
f 183/286/184 184/287/185 153/204/154
f 184/287/185 185/288/186 153/204/154
f 185/288/186 186/289/187 153/204/154
f 186/289/187 187/290/188 153/204/154
f 187/290/188 188/291/189 153/204/154
f 188/291/189 189/292/190 153/204/154
f 189/292/190 190/293/191 153/204/154
f 190/293/191 191/294/192 153/204/154
f 191/294/192 192/295/193 153/204/154
f 192/295/193 193/296/194 153/204/154
f 193/296/194 194/297/195 153/204/154
f 194/297/195 195/298/196 153/204/154
f 195/298/196 196/299/197 153/204/154
f 196/299/197 197/300/198 153/204/154
f 197/300/198 198/301/199 153/204/154
f 198/301/199 199/302/200 153/204/154
f 199/302/200 200/303/201 153/204/154
f 200/303/201 201/304/202 153/204/154
f 201/304/202 151/255/152 153/204/154
s off
f 51/201/203 52/200/204 102/206/205 101/205/206
f 52/200/207 53/199/208 103/207/209 102/206/210
f 53/199/211 54/198/212 104/208/213 103/207/214
f 54/198/215 55/197/216 105/209/217 104/208/218
f 55/197/219 56/196/220 106/210/221 105/209/222
f 56/196/223 57/195/224 107/211/225 106/210/226
f 57/195/227 58/194/228 108/212/229 107/211/230
f 58/194/231 59/193/232 109/213/233 108/212/234
f 59/193/235 60/192/236 110/214/237 109/213/238
f 60/192/239 61/191/240 111/215/241 110/214/242
f 61/191/243 62/190/244 112/216/245 111/215/246
f 62/190/247 63/189/248 113/217/249 112/216/250
f 63/189/251 64/188/252 114/218/253 113/217/254
f 64/188/255 65/187/256 115/219/257 114/218/258
f 65/187/259 66/186/260 116/220/261 115/219/262
f 66/186/263 67/185/264 117/221/265 116/220/266
f 67/185/267 68/184/268 118/222/269 117/221/270
f 68/184/271 69/183/272 119/223/273 118/222/274
f 69/183/275 70/182/276 120/224/277 119/223/278
f 70/182/279 71/181/280 121/225/281 120/224/282
f 71/181/283 72/180/284 122/226/285 121/225/286
f 72/180/287 73/179/288 123/227/289 122/226/290
f 73/179/291 74/178/292 124/228/293 123/227/294
f 74/178/295 75/177/296 125/229/297 124/228/298
f 75/177/299 76/176/300 126/230/301 125/229/302
f 76/176/303 77/175/304 127/231/305 126/230/306
f 77/175/307 78/174/308 128/232/309 127/231/310
f 78/174/311 79/173/312 129/233/313 128/232/314
f 79/173/315 80/172/316 130/234/317 129/233/318
f 80/172/319 81/171/320 131/235/321 130/234/322
f 81/171/323 82/170/324 132/236/325 131/235/326
f 82/170/327 83/169/328 133/237/329 132/236/330
f 83/169/331 84/168/332 134/238/333 133/237/334
f 84/168/335 85/167/336 135/239/337 134/238/338
f 85/167/339 86/166/340 136/240/341 135/239/342
f 86/166/343 87/165/344 137/241/345 136/240/346
f 87/165/347 88/164/348 138/242/349 137/241/350
f 88/164/351 89/163/352 139/243/353 138/242/354
f 89/163/355 90/162/356 140/244/357 139/243/358
f 90/162/359 91/161/360 141/245/361 140/244/362
f 91/161/363 92/160/364 142/246/365 141/245/366
f 92/160/367 93/159/368 143/247/369 142/246/370
f 93/159/371 94/158/372 144/248/373 143/247/374
f 94/158/375 95/157/376 145/249/377 144/248/378
f 95/157/379 96/156/380 146/250/381 145/249/382
f 96/156/383 97/155/384 147/251/385 146/250/386
f 97/155/387 98/154/388 148/252/389 147/251/390
f 98/154/391 99/153/392 149/253/393 148/252/394
f 99/153/395 100/202/396 150/254/397 149/253/398
f 100/202/399 51/201/400 101/205/401 150/254/402
f 101/205/403 102/206/404 152/256/405 151/255/406
f 102/206/407 103/207/408 154/257/409 152/256/410
f 103/207/411 104/208/412 155/258/413 154/257/414
f 104/208/415 105/209/416 156/259/417 155/258/418
f 105/209/419 106/210/420 157/260/421 156/259/422
f 106/210/423 107/211/424 158/261/425 157/260/426
f 107/211/427 108/212/428 159/262/429 158/261/430
f 108/212/431 109/213/432 160/263/433 159/262/434
f 109/213/435 110/214/436 161/264/437 160/263/438
f 110/214/439 111/215/440 162/265/441 161/264/442
f 111/215/443 112/216/444 163/266/445 162/265/446
f 112/216/447 113/217/448 164/267/449 163/266/450
f 113/217/451 114/218/452 165/268/453 164/267/454
f 114/218/455 115/219/456 166/269/457 165/268/458
f 115/219/459 116/220/460 167/270/461 166/269/462
f 116/220/463 117/221/464 168/271/465 167/270/466
f 117/221/467 118/222/468 169/272/469 168/271/470
f 118/222/471 119/223/472 170/273/473 169/272/474
f 119/223/475 120/224/476 171/274/477 170/273/478
f 120/224/479 121/225/480 172/275/481 171/274/482
f 121/225/483 122/226/484 173/276/485 172/275/486
f 122/226/487 123/227/488 174/277/489 173/276/490
f 123/227/491 124/228/492 175/278/493 174/277/494
f 124/228/495 125/229/496 176/279/497 175/278/498
f 125/229/499 126/230/500 177/280/501 176/279/502
f 126/230/503 127/231/504 178/281/505 177/280/506
f 127/231/507 128/232/508 179/282/509 178/281/510
f 128/232/511 129/233/512 180/283/513 179/282/514
f 129/233/515 130/234/516 181/284/517 180/283/518
f 130/234/519 131/235/520 182/285/521 181/284/522
f 131/235/523 132/236/524 183/286/525 182/285/526
f 132/236/527 133/237/528 184/287/529 183/286/530
f 133/237/531 134/238/532 185/288/533 184/287/534
f 134/238/535 135/239/536 186/289/537 185/288/538
f 135/239/539 136/240/540 187/290/541 186/289/542
f 136/240/543 137/241/544 188/291/545 187/290/546
f 137/241/547 138/242/548 189/292/549 188/291/550
f 138/242/551 139/243/552 190/293/553 189/292/554
f 139/243/555 140/244/556 191/294/557 190/293/558
f 140/244/559 141/245/560 192/295/561 191/294/562
f 141/245/563 142/246/564 193/296/565 192/295/566
f 142/246/567 143/247/568 194/297/569 193/296/570
f 143/247/571 144/248/572 195/298/573 194/297/574
f 144/248/575 145/249/576 196/299/577 195/298/578
f 145/249/579 146/250/580 197/300/581 196/299/582
f 146/250/583 147/251/584 198/301/585 197/300/586
f 147/251/587 148/252/588 199/302/589 198/301/590
f 148/252/591 149/253/592 200/303/593 199/302/594
f 149/253/595 150/254/596 201/304/597 200/303/598
f 150/254/599 101/205/600 151/255/601 201/304/602
f 2/2/603 1/1/604 202/306/605 203/305/606
f 3/3/607 2/2/608 203/305/609 204/307/610
f 4/4/611 3/3/612 204/307/613 205/308/614
f 5/5/615 4/4/616 205/308/617 206/309/618
f 6/6/619 5/5/620 206/309/621 207/310/622
f 7/7/623 6/6/624 207/310/625 208/311/626
f 8/8/627 7/7/628 208/311/629 209/312/630
f 9/9/631 8/8/632 209/312/633 210/313/634
f 10/10/635 9/9/636 210/313/637 211/314/638
f 11/11/639 10/10/640 211/314/641 212/315/642
f 12/12/643 11/11/644 212/315/645 213/316/646
f 13/13/647 12/12/648 213/316/649 214/317/650
f 14/14/651 13/13/652 214/317/653 215/318/654
f 15/15/655 14/14/656 215/318/657 216/319/658
f 16/16/659 15/15/660 216/319/661 217/320/662
f 17/17/663 16/16/664 217/320/665 218/321/666
f 18/18/667 17/17/668 218/321/669 219/322/670
f 19/19/671 18/18/672 219/322/673 220/323/674
f 20/20/675 19/19/676 220/323/677 221/324/678
f 21/21/679 20/20/680 221/324/681 222/325/682
f 22/22/683 21/21/684 222/325/685 223/326/686
f 23/23/687 22/22/688 223/326/689 224/327/690
f 24/24/691 23/23/692 224/327/693 225/328/694
f 25/25/695 24/24/696 225/328/697 226/329/698
f 26/26/699 25/25/700 226/329/701 227/330/702
f 27/27/703 26/26/704 227/330/705 228/331/706
f 28/28/707 27/27/708 228/331/709 229/332/710
f 29/29/711 28/28/712 229/332/713 230/333/714
f 30/30/715 29/29/716 230/333/717 231/334/718
f 31/31/719 30/30/720 231/334/721 232/335/722
f 32/32/723 31/31/724 232/335/725 233/336/726
f 33/33/727 32/32/728 233/336/729 234/337/730
f 34/34/731 33/33/732 234/337/733 235/338/734
f 35/35/735 34/34/736 235/338/737 236/339/738
f 36/36/739 35/35/740 236/339/741 237/340/742
f 37/37/743 36/36/744 237/340/745 238/341/746
f 38/38/747 37/37/748 238/341/749 239/342/750
f 39/39/751 38/38/752 239/342/753 240/343/754
f 40/40/755 39/39/756 240/343/757 241/344/758
f 41/41/759 40/40/760 241/344/761 242/345/762
f 42/42/763 41/41/764 242/345/765 243/346/766
f 43/43/767 42/42/768 243/346/769 244/347/770
f 44/44/771 43/43/772 244/347/773 245/348/774
f 45/45/775 44/44/776 245/348/777 246/349/778
f 46/46/779 45/45/780 246/349/781 247/350/782
f 47/47/783 46/46/784 247/350/785 248/351/786
f 48/48/787 47/47/788 248/351/789 249/352/790
f 49/49/791 48/48/792 249/352/793 250/353/794
f 50/50/795 49/49/796 250/353/797 251/354/798
f 1/1/799 50/50/800 251/354/801 202/306/802
f 203/305/803 202/306/804 252/356/805 253/355/806
f 204/307/807 203/305/808 253/355/809 254/357/810
f 205/308/811 204/307/812 254/357/813 255/358/814
f 206/309/815 205/308/816 255/358/817 256/359/818
f 207/310/819 206/309/820 256/359/821 257/360/822
f 208/311/823 207/310/824 257/360/825 258/361/826
f 209/312/827 208/311/828 258/361/829 259/362/830
f 210/313/831 209/312/832 259/362/833 260/363/834
f 211/314/835 210/313/836 260/363/837 261/364/838
f 212/315/839 211/314/840 261/364/841 262/365/842
f 213/316/843 212/315/844 262/365/845 263/366/846
f 214/317/847 213/316/848 263/366/849 264/367/850
f 215/318/851 214/317/852 264/367/853 265/368/854
f 216/319/855 215/318/856 265/368/857 266/369/858
f 217/320/859 216/319/860 266/369/861 267/370/862
f 218/321/863 217/320/864 267/370/865 268/371/866
f 219/322/867 218/321/868 268/371/869 269/372/870
f 220/323/871 219/322/872 269/372/873 270/373/874
f 221/324/875 220/323/876 270/373/877 271/374/878
f 222/325/879 221/324/880 271/374/881 272/375/882
f 223/326/883 222/325/884 272/375/885 273/376/886
f 224/327/887 223/326/888 273/376/889 274/377/890
f 225/328/891 224/327/892 274/377/893 275/378/894
f 226/329/895 225/328/896 275/378/897 276/379/898
f 227/330/899 226/329/900 276/379/901 277/380/902
f 228/331/903 227/330/904 277/380/905 278/381/906
f 229/332/907 228/331/908 278/381/909 279/382/910
f 230/333/911 229/332/912 279/382/913 280/383/914
f 231/334/915 230/333/916 280/383/917 281/384/918
f 232/335/919 231/334/920 281/384/921 282/385/922
f 233/336/923 232/335/924 282/385/925 283/386/926
f 234/337/927 233/336/928 283/386/929 284/387/930
f 235/338/931 234/337/932 284/387/933 285/388/934
f 236/339/935 235/338/936 285/388/937 286/389/938
f 237/340/939 236/339/940 286/389/941 287/390/942
f 238/341/943 237/340/944 287/390/945 288/391/946
f 239/342/947 238/341/948 288/391/949 289/392/950
f 240/343/951 239/342/952 289/392/953 290/393/954
f 241/344/955 240/343/956 290/393/957 291/394/958
f 242/345/959 241/344/960 291/394/961 292/395/962
f 243/346/963 242/345/964 292/395/965 293/396/966
f 244/347/967 243/346/968 293/396/969 294/397/970
f 245/348/971 244/347/972 294/397/973 295/398/974
f 246/349/975 245/348/976 295/398/977 296/399/978
f 247/350/979 246/349/980 296/399/981 297/400/982
f 248/351/983 247/350/984 297/400/985 298/401/986
f 249/352/987 248/351/988 298/401/989 299/402/990
f 250/353/991 249/352/992 299/402/993 300/403/994
f 251/354/995 250/353/996 300/403/997 301/404/998
f 202/306/999 251/354/1000 301/404/1001 252/356/1002
f 253/355/1003 252/356/1004 302/406/1005 303/405/1006
f 254/357/1007 253/355/1008 303/405/1009 305/407/1010
f 255/358/1011 254/357/1012 305/407/1013 306/408/1014
f 256/359/1015 255/358/1016 306/408/1017 307/409/1018
f 257/360/1019 256/359/1020 307/409/1021 308/410/1022
f 258/361/1023 257/360/1024 308/410/1025 309/411/1026
f 259/362/1027 258/361/1028 309/411/1029 310/412/1030
f 260/363/1031 259/362/1032 310/412/1033 311/413/1034
f 261/364/1035 260/363/1036 311/413/1037 312/414/1038
f 262/365/1039 261/364/1040 312/414/1041 313/415/1042
f 263/366/1043 262/365/1044 313/415/1045 314/416/1046
f 264/367/1047 263/366/1048 314/416/1049 315/417/1050
f 265/368/1051 264/367/1052 315/417/1053 316/418/1054
f 266/369/1055 265/368/1056 316/418/1057 317/419/1058
f 267/370/1059 266/369/1060 317/419/1061 318/420/1062
f 268/371/1063 267/370/1064 318/420/1065 319/421/1066
f 269/372/1067 268/371/1068 319/421/1069 320/422/1070
f 270/373/1071 269/372/1072 320/422/1073 321/423/1074
f 271/374/1075 270/373/1076 321/423/1077 322/424/1078
f 272/375/1079 271/374/1080 322/424/1081 323/425/1082
f 273/376/1083 272/375/1084 323/425/1085 324/426/1086
f 274/377/1087 273/376/1088 324/426/1089 325/427/1090
f 275/378/1091 274/377/1092 325/427/1093 326/428/1094
f 276/379/1095 275/378/1096 326/428/1097 327/429/1098
f 277/380/1099 276/379/1100 327/429/1101 328/430/1102
f 278/381/1103 277/380/1104 328/430/1105 329/431/1106
f 279/382/1107 278/381/1108 329/431/1109 330/432/1110
f 280/383/1111 279/382/1112 330/432/1113 331/433/1114
f 281/384/1115 280/383/1116 331/433/1117 332/434/1118
f 282/385/1119 281/384/1120 332/434/1121 333/435/1122
f 283/386/1123 282/385/1124 333/435/1125 334/436/1126
f 284/387/1127 283/386/1128 334/436/1129 335/437/1130
f 285/388/1131 284/387/1132 335/437/1133 336/438/1134
f 286/389/1135 285/388/1136 336/438/1137 337/439/1138
f 287/390/1139 286/389/1140 337/439/1141 338/440/1142
f 288/391/1143 287/390/1144 338/440/1145 339/441/1146
f 289/392/1147 288/391/1148 339/441/1149 340/442/1150
f 290/393/1151 289/392/1152 340/442/1153 341/443/1154
f 291/394/1155 290/393/1156 341/443/1157 342/444/1158
f 292/395/1159 291/394/1160 342/444/1161 343/445/1162
f 293/396/1163 292/395/1164 343/445/1165 344/446/1166
f 294/397/1167 293/396/1168 344/446/1169 345/447/1170
f 295/398/1171 294/397/1172 345/447/1173 346/448/1174
f 296/399/1175 295/398/1176 346/448/1177 347/449/1178
f 297/400/1179 296/399/1180 347/449/1181 348/450/1182
f 298/401/1183 297/400/1184 348/450/1185 349/451/1186
f 299/402/1187 298/401/1188 349/451/1189 350/452/1190
f 300/403/1191 299/402/1192 350/452/1193 351/453/1194
f 301/404/1195 300/403/1196 351/453/1197 352/454/1198
f 252/356/1199 301/404/1200 352/454/1201 302/406/1202
